<svg width="151" height="45" viewBox="0 0 151 45" fill="none" xmlns="http://www.w3.org/2000/svg">
<path d="M45.8652 35.9006V36.1218H44.6851V39.2531H44.4463V36.1218H43.2664V35.9006H45.8652Z" fill="#1992B1"/>
<path d="M45.8652 35.9006V36.1218H44.6851V39.2531H44.4463V36.1218H43.2664V35.9006H45.8652Z" fill="#1992B1"/>
<path d="M48.8352 35.9006L47.5802 37.994H48.3669V38.1752H47.5147V39.2531H47.2759V38.1752H46.4142V37.994H47.2103L45.9553 35.9006H46.2175L47.4022 37.8738L48.5871 35.9006H48.8352Z" fill="#1992B1"/>
<path d="M48.8352 35.9006L47.5802 37.994H48.3669V38.1752H47.5147V39.2531H47.2759V38.1752H46.4142V37.994H47.2103L45.9553 35.9006H46.2175L47.4022 37.8738L48.5871 35.9006H48.8352Z" fill="#1992B1"/>
<path d="M50.5774 35.9006C51.4015 35.9006 51.898 36.3223 51.898 37.0305C51.898 37.7357 51.4015 38.1559 50.5774 38.1559H49.6409V39.2531H49.4021V35.9006H50.5774ZM50.5774 37.9361C51.2799 37.9361 51.6544 37.605 51.6544 37.0305C51.6544 36.4514 51.2799 36.1218 50.5774 36.1218H49.6409V37.9361H50.5774Z" fill="#1992B1"/>
<path d="M50.5774 35.9006C51.4015 35.9006 51.898 36.3223 51.898 37.0305C51.898 37.7357 51.4015 38.1559 50.5774 38.1559H49.6409V39.2531H49.4021V35.9006H50.5774ZM50.5774 37.9361C51.2799 37.9361 51.6544 37.605 51.6544 37.0305C51.6544 36.4514 51.2799 36.1218 50.5774 36.1218H49.6409V37.9361H50.5774Z" fill="#1992B1"/>
<path d="M54.8388 36.1218H53.0501V37.5917H54.4924V37.7877H53.0501V39.2531H52.8113V37.7877H52.3055V37.5917H52.8113V35.9006H54.8388V36.1218Z" fill="#1992B1"/>
<path d="M54.8388 36.1218H53.0501V37.5917H54.4924V37.7877H53.0501V39.2531H52.8113V37.7877H52.3055V37.5917H52.8113V35.9006H54.8388V36.1218Z" fill="#1992B1"/>
<path d="M56.8319 37.127C57.6044 37.127 58.0165 37.4818 58.0165 38.1707C58.0165 38.8789 57.5763 39.2531 56.7709 39.2531H55.5159V35.9006H55.7548V37.127H56.8319ZM58.6206 39.2531V35.9006H58.8594V39.2531H58.6206ZM56.7756 39.0467C57.4312 39.0467 57.773 38.7497 57.773 38.1752C57.773 37.605 57.4359 37.3333 56.7756 37.3333H55.7548V39.0467H56.7756Z" fill="#1992B1"/>
<path d="M56.8319 37.127C57.6044 37.127 58.0165 37.4818 58.0165 38.1707C58.0165 38.8789 57.5763 39.2531 56.7709 39.2531H55.5159V35.9006H55.7548V37.127H56.8319ZM58.6206 39.2531V35.9006H58.8594V39.2531H58.6206ZM56.7756 39.0467C57.4312 39.0467 57.773 38.7497 57.773 38.1752C57.773 37.605 57.4359 37.3333 56.7756 37.3333H55.7548V39.0467H56.7756Z" fill="#1992B1"/>
<path d="M62.4688 35.9006H62.7076V39.2531H62.4688V37.6585H60.2774V39.2531H60.0386V35.9006H60.2774V37.4432H62.4688V35.9006Z" fill="#1992B1"/>
<path d="M62.4688 35.9006H62.7076V39.2531H62.4688V37.6585H60.2774V39.2531H60.0386V35.9006H60.2774V37.4432H62.4688V35.9006Z" fill="#1992B1"/>
<path d="M67.4376 35.9006L66.1171 38.0994V39.2531H65.8783V38.0994L64.5577 35.9006H64.82L66.0046 37.8738L67.1893 35.9006H67.4376Z" fill="#1992B1"/>
<path d="M67.4376 35.9006L66.1171 38.0994V39.2531H65.8783V38.0994L64.5577 35.9006H64.82L66.0046 37.8738L67.1893 35.9006H67.4376Z" fill="#1992B1"/>
<path d="M69.3343 35.6482C68.9036 35.6482 68.6133 35.4315 68.6038 35.0633H68.7958C68.8052 35.332 69.0206 35.4938 69.3343 35.4938C69.6434 35.4938 69.8587 35.332 69.8682 35.0633H70.0601C70.0508 35.4315 69.7605 35.6482 69.3343 35.6482ZM68.0045 39.2531V35.9006H68.2433V38.8403L70.4768 35.9006H70.6875V39.2531H70.4487V36.3178L68.2152 39.2531H68.0045Z" fill="#1992B1"/>
<path d="M69.3343 35.6482C68.9036 35.6482 68.6133 35.4315 68.6038 35.0633H68.7958C68.8052 35.332 69.0206 35.4938 69.3343 35.4938C69.6434 35.4938 69.8587 35.332 69.8682 35.0633H70.0601C70.0508 35.4315 69.7605 35.6482 69.3343 35.6482ZM68.0045 39.2531V35.9006H68.2433V38.8403L70.4768 35.9006H70.6875V39.2531H70.4487V36.3178L68.2152 39.2531H68.0045Z" fill="#1992B1"/>
<path d="M75.347 39.2531L74.0968 37.6629H73.31V39.2531H73.0713V35.9006H73.31V37.4432H74.1013L75.2767 35.9006H75.5436L74.2887 37.5338L75.628 39.2531H75.347Z" fill="#1992B1"/>
<path d="M75.347 39.2531L74.0968 37.6629H73.31V39.2531H73.0713V35.9006H73.31V37.4432H74.1013L75.2767 35.9006H75.5436L74.2887 37.5338L75.628 39.2531H75.347Z" fill="#1992B1"/>
<path d="M76.4516 39.0318H78.4744V39.2531H76.2128V35.9006H78.4043V36.1218H76.4516V37.4432H78.1981V37.6585H76.4516V39.0318Z" fill="#1992B1"/>
<path d="M76.4516 39.0318H78.4744V39.2531H76.2128V35.9006H78.4043V36.1218H76.4516V37.4432H78.1981V37.6585H76.4516V39.0318Z" fill="#1992B1"/>
<path d="M82.9713 35.9006H83.21V39.2531H79.272V35.9006H79.5108V39.0318H81.1217V35.9006H81.3605V39.0318H82.9713V35.9006Z" fill="#1992B1"/>
<path d="M82.9713 35.9006H83.21V39.2531H79.272V35.9006H79.5108V39.0318H81.1217V35.9006H81.3605V39.0318H82.9713V35.9006Z" fill="#1992B1"/>
<path d="M84.6279 39.0318H86.6507V39.2531H84.3891V35.9006H86.5806V36.1218H84.6279V37.4432H86.3744V37.6585H84.6279V39.0318Z" fill="#1992B1"/>
<path d="M84.6279 39.0318H86.6507V39.2531H84.3891V35.9006H86.5806V36.1218H84.6279V37.4432H86.3744V37.6585H84.6279V39.0318Z" fill="#1992B1"/>
<path d="M89.8786 35.9006H90.1175V39.2531H89.8786V37.6585H87.6871V39.2531H87.4483V35.9006H87.6871V37.4432H89.8786V35.9006Z" fill="#1992B1"/>
<path d="M89.8786 35.9006H90.1175V39.2531H89.8786V37.6585H87.6871V39.2531H87.4483V35.9006H87.6871V37.4432H89.8786V35.9006Z" fill="#1992B1"/>
<path d="M91.2985 39.2531V35.9006H91.5374V39.2531H91.2985Z" fill="#1992B1"/>
<path d="M91.2985 39.2531V35.9006H91.5374V39.2531H91.2985Z" fill="#1992B1"/>
<path d="M100.48 39.2531L99.3984 37.6629H98.6773V39.2531H98.443V37.6629H97.722L96.6403 39.2531H96.3547L97.5253 37.5293L96.4436 35.9006H96.7151L97.7172 37.4432H98.443V35.9006H98.6773V37.4432H99.3984L100.405 35.9006H100.672L99.595 37.5293L100.766 39.2531H100.48Z" fill="#1992B1"/>
<path d="M100.48 39.2531L99.3984 37.6629H98.6773V39.2531H98.443V37.6629H97.722L96.6403 39.2531H96.3547L97.5253 37.5293L96.4436 35.9006H96.7151L97.7172 37.4432H98.443V35.9006H98.6773V37.4432H99.3984L100.405 35.9006H100.672L99.595 37.5293L100.766 39.2531H100.48Z" fill="#1992B1"/>
<path d="M101.368 39.2531V35.9006H101.607V38.8403L103.841 35.9006H104.051V39.2531H103.813V36.3178L101.579 39.2531H101.368Z" fill="#1992B1"/>
<path d="M101.368 39.2531V35.9006H101.607V38.8403L103.841 35.9006H104.051V39.2531H103.813V36.3178L101.579 39.2531H101.368Z" fill="#1992B1"/>
<path d="M105.501 35.9006H107.65V39.2531H107.411V36.1218H105.716L105.674 37.3526C105.622 38.7022 105.412 39.2812 104.859 39.2812C104.784 39.2812 104.714 39.2768 104.625 39.2531L104.653 39.0274C104.714 39.0422 104.756 39.0467 104.808 39.0467C105.234 39.0467 105.407 38.5627 105.454 37.3571L105.501 35.9006Z" fill="#1992B1"/>
<path d="M105.501 35.9006H107.65V39.2531H107.411V36.1218H105.716L105.674 37.3526C105.622 38.7022 105.412 39.2812 104.859 39.2812C104.784 39.2812 104.714 39.2768 104.625 39.2531L104.653 39.0274C104.714 39.0422 104.756 39.0467 104.808 39.0467C105.234 39.0467 105.407 38.5627 105.454 37.3571L105.501 35.9006Z" fill="#1992B1"/>
<path d="M110.236 39.2768C109.257 39.2768 108.531 38.5493 108.531 37.5768C108.531 36.6044 109.257 35.8769 110.236 35.8769C111.21 35.8769 111.94 36.5999 111.94 37.5768C111.94 38.5537 111.21 39.2768 110.236 39.2768ZM110.236 39.0511C111.069 39.0511 111.697 38.4246 111.697 37.5768C111.697 36.7291 111.069 36.1025 110.236 36.1025C109.398 36.1025 108.77 36.7291 108.77 37.5768C108.77 38.4246 109.398 39.0511 110.236 39.0511Z" fill="#1992B1"/>
<path d="M110.236 39.2768C109.257 39.2768 108.531 38.5493 108.531 37.5768C108.531 36.6044 109.257 35.8769 110.236 35.8769C111.21 35.8769 111.94 36.5999 111.94 37.5768C111.94 38.5537 111.21 39.2768 110.236 39.2768ZM110.236 39.0511C111.069 39.0511 111.697 38.4246 111.697 37.5768C111.697 36.7291 111.069 36.1025 110.236 36.1025C109.398 36.1025 108.77 36.7291 108.77 37.5768C108.77 38.4246 109.398 39.0511 110.236 39.0511Z" fill="#1992B1"/>
<path d="M114.153 35.6482C113.722 35.6482 113.432 35.4315 113.423 35.0633H113.615C113.624 35.332 113.839 35.4938 114.153 35.4938C114.462 35.4938 114.678 35.332 114.687 35.0633H114.879C114.87 35.4315 114.579 35.6482 114.153 35.6482ZM112.823 39.2531V35.9006H113.062V38.8403L115.296 35.9006H115.506V39.2531H115.268V36.3178L113.034 39.2531H112.823Z" fill="#1992B1"/>
<path d="M114.153 35.6482C113.722 35.6482 113.432 35.4315 113.423 35.0633H113.615C113.624 35.332 113.839 35.4938 114.153 35.4938C114.462 35.4938 114.678 35.332 114.687 35.0633H114.879C114.87 35.4315 114.579 35.6482 114.153 35.6482ZM112.823 39.2531V35.9006H113.062V38.8403L115.296 35.9006H115.506V39.2531H115.268V36.3178L113.034 39.2531H112.823Z" fill="#1992B1"/>
<path d="M120.166 39.2531L118.915 37.6629H118.129V39.2531H117.89V35.9006H118.129V37.4432H118.92L120.095 35.9006H120.362L119.107 37.5338L120.447 39.2531H120.166Z" fill="#1992B1"/>
<path d="M120.166 39.2531L118.915 37.6629H118.129V39.2531H117.89V35.9006H118.129V37.4432H118.92L120.095 35.9006H120.362L119.107 37.5338L120.447 39.2531H120.166Z" fill="#1992B1"/>
<path d="M122.432 39.2768C121.453 39.2768 120.727 38.5493 120.727 37.5768C120.727 36.6044 121.453 35.8769 122.432 35.8769C123.406 35.8769 124.136 36.5999 124.136 37.5768C124.136 38.5537 123.406 39.2768 122.432 39.2768ZM122.432 39.0511C123.265 39.0511 123.893 38.4246 123.893 37.5768C123.893 36.7291 123.265 36.1025 122.432 36.1025C121.594 36.1025 120.966 36.7291 120.966 37.5768C120.966 38.4246 121.594 39.0511 122.432 39.0511Z" fill="#1992B1"/>
<path d="M122.432 39.2768C121.453 39.2768 120.727 38.5493 120.727 37.5768C120.727 36.6044 121.453 35.8769 122.432 35.8769C123.406 35.8769 124.136 36.5999 124.136 37.5768C124.136 38.5537 123.406 39.2768 122.432 39.2768ZM122.432 39.0511C123.265 39.0511 123.893 38.4246 123.893 37.5768C123.893 36.7291 123.265 36.1025 122.432 36.1025C121.594 36.1025 120.966 36.7291 120.966 37.5768C120.966 38.4246 121.594 39.0511 122.432 39.0511Z" fill="#1992B1"/>
<path d="M128.353 39.2531H128.119L128.114 36.3846L126.742 38.8076H126.625L125.253 36.395V39.2531H125.019V35.9006H125.22L126.686 38.4914L128.152 35.9006H128.348L128.353 39.2531Z" fill="#1992B1"/>
<path d="M128.353 39.2531H128.119L128.114 36.3846L126.742 38.8076H126.625L125.253 36.395V39.2531H125.019V35.9006H125.22L126.686 38.4914L128.152 35.9006H128.348L128.353 39.2531Z" fill="#1992B1"/>
<path d="M129.533 35.9006H132.23V39.2531H131.991V36.1218H129.771V39.2531H129.533V35.9006Z" fill="#1992B1"/>
<path d="M129.533 35.9006H132.23V39.2531H131.991V36.1218H129.771V39.2531H129.533V35.9006Z" fill="#1992B1"/>
<path d="M133.678 35.9006H135.828V39.2531H135.589V36.1218H133.894L133.851 37.3526C133.801 38.7022 133.589 39.2812 133.037 39.2812C132.962 39.2812 132.892 39.2768 132.804 39.2531L132.832 39.0274C132.892 39.0422 132.934 39.0467 132.986 39.0467C133.412 39.0467 133.585 38.5627 133.632 37.3571L133.678 35.9006Z" fill="#1992B1"/>
<path d="M133.678 35.9006H135.828V39.2531H135.589V36.1218H133.894L133.851 37.3526C133.801 38.7022 133.589 39.2812 133.037 39.2812C132.962 39.2812 132.892 39.2768 132.804 39.2531L132.832 39.0274C132.892 39.0422 132.934 39.0467 132.986 39.0467C133.412 39.0467 133.585 38.5627 133.632 37.3571L133.678 35.9006Z" fill="#1992B1"/>
<path d="M137.247 39.0318H139.27V39.2531H137.009V35.9006H139.201V36.1218H137.247V37.4432H138.995V37.6585H137.247V39.0318Z" fill="#1992B1"/>
<path d="M137.247 39.0318H139.27V39.2531H137.009V35.9006H139.201V36.1218H137.247V37.4432H138.995V37.6585H137.247V39.0318Z" fill="#1992B1"/>
<path d="M142.343 39.2531L141.093 37.6629H140.307V39.2531H140.068V35.9006H140.307V37.4432H141.099L142.274 35.9006H142.54L141.285 37.5338L142.625 39.2531H142.343Z" fill="#1992B1"/>
<path d="M142.343 39.2531L141.093 37.6629H140.307V39.2531H140.068V35.9006H140.307V37.4432H141.099L142.274 35.9006H142.54L141.285 37.5338L142.625 39.2531H142.343Z" fill="#1992B1"/>
<path d="M144.61 39.2768C143.637 39.2768 142.91 38.5537 142.91 37.5768C142.91 36.5999 143.637 35.8769 144.61 35.8769C145.074 35.8769 145.491 36.0313 145.777 36.3416L145.626 36.5004C145.346 36.2168 145.004 36.1025 144.619 36.1025C143.782 36.1025 143.149 36.735 143.149 37.5768C143.149 38.4201 143.782 39.0511 144.619 39.0511C145.004 39.0511 145.346 38.9323 145.626 38.6488L145.777 38.8076C145.491 39.1179 145.074 39.2768 144.61 39.2768Z" fill="#1992B1"/>
<path d="M144.61 39.2768C143.637 39.2768 142.91 38.5537 142.91 37.5768C142.91 36.5999 143.637 35.8769 144.61 35.8769C145.074 35.8769 145.491 36.0313 145.777 36.3416L145.626 36.5004C145.346 36.2168 145.004 36.1025 144.619 36.1025C143.782 36.1025 143.149 36.735 143.149 37.5768C143.149 38.4201 143.782 39.0511 144.619 39.0511C145.004 39.0511 145.346 38.9323 145.626 38.6488L145.777 38.8076C145.491 39.1179 145.074 39.2768 144.61 39.2768Z" fill="#1992B1"/>
<path d="M93.9275 40.1334V35.1018H94.1661V40.1334H93.9275Z" fill="#1992B1"/>
<path d="M93.9275 40.1334V35.1018H94.1661V40.1334H93.9275Z" fill="#1992B1"/>
<path d="M45.2087 32.2973C43.4857 32.2973 42.0238 31.9751 40.823 31.3278C39.6395 30.6641 38.6215 29.8446 37.7687 28.8662L41.0058 26.2991C41.493 27.138 42.0934 27.7838 42.807 28.2381C43.5206 28.6746 44.3124 28.8929 45.1825 28.8929C45.6524 28.8929 46.0614 28.8231 46.4095 28.6836C46.775 28.5425 47.0795 28.3599 47.3231 28.1327C47.5842 27.8878 47.7756 27.6086 47.8975 27.2954C48.0193 26.9806 48.0802 26.657 48.0802 26.3259C48.0802 25.9235 47.967 25.5835 47.7408 25.3044C47.5145 25.0253 47.2187 24.7892 46.8532 24.5962C46.4877 24.3869 46.0614 24.2043 45.5742 24.0469C45.1042 23.8895 44.6169 23.7321 44.1122 23.5747C43.4683 23.3654 42.8244 23.1382 42.1805 22.8948C41.5365 22.6499 40.9535 22.3269 40.4315 21.9253C39.9267 21.5063 39.509 20.9999 39.1784 20.4061C38.8652 19.795 38.7085 19.0355 38.7085 18.1274C38.7085 17.3591 38.8652 16.6432 39.1784 15.9797C39.4917 15.3162 39.9267 14.74 40.4837 14.2509C41.058 13.7446 41.728 13.3518 42.4938 13.0724C43.2594 12.7929 44.1036 12.6532 45.0259 12.6532C45.7917 12.6532 46.479 12.7232 47.0882 12.8627C47.7148 13.0024 48.2803 13.1945 48.785 13.4391C49.3071 13.6835 49.7771 13.9804 50.1946 14.3296C50.6297 14.6613 51.0387 15.028 51.4216 15.4296L48.4978 17.656C47.6798 16.4337 46.5313 15.8224 45.052 15.8224C44.1819 15.8224 43.5206 16.0321 43.0681 16.4511C42.6156 16.8702 42.3893 17.3854 42.3893 17.9965C42.3893 18.3806 42.4938 18.7036 42.7026 18.9655C42.9114 19.2274 43.1899 19.4632 43.5379 19.6728C43.9034 19.8648 44.3211 20.0394 44.7909 20.1966C45.2609 20.3537 45.7569 20.5197 46.279 20.6943C46.9228 20.9038 47.5668 21.1483 48.2108 21.4276C48.8721 21.6896 49.4638 22.0388 49.9859 22.4753C50.5254 22.8948 50.9604 23.4189 51.2911 24.0469C51.6217 24.6749 51.7871 25.444 51.7871 26.3511C51.7871 27.1024 51.6392 27.8358 51.3434 28.5514C51.0474 29.2685 50.6211 29.9055 50.0641 30.4637C49.5073 31.0056 48.8198 31.451 48.0018 31.7999C47.184 32.131 46.2528 32.2973 45.2087 32.2973ZM64.3561 24.1523H57.0466V32.036H53.4964V12.9151H57.0466V20.7467H64.3561V12.9151H67.9062V32.036H64.3561V24.1523ZM76.1749 12.9151H79.7513L86.5385 32.036H82.8316L81.6569 28.6301H74.2691L73.0945 32.036H69.3876L76.1749 12.9151ZM75.4699 25.2257H80.4821L77.976 17.9703L75.4699 25.2257ZM88.014 12.9151H91.5643V28.6301H98.5343V32.036H88.014V12.9151ZM107.113 22.6326H111.369L113.77 25.7751C114.066 25.2866 114.301 24.7714 114.475 24.2295C114.649 23.6712 114.736 23.0863 114.736 22.4753C114.736 21.6023 114.571 20.7816 114.24 20.0133C113.927 19.245 113.483 18.5814 112.909 18.0226C112.352 17.4464 111.691 16.9924 110.925 16.6607C110.176 16.3289 109.367 16.163 108.497 16.163C107.627 16.163 106.809 16.3289 106.043 16.6607C105.295 16.9924 104.642 17.4464 104.085 18.0226C103.528 18.5814 103.085 19.245 102.754 20.0133C102.441 20.7816 102.284 21.6023 102.284 22.4753C102.284 23.3491 102.441 24.1686 102.754 24.9377C103.085 25.7053 103.528 26.3778 104.085 26.9539C104.642 27.5136 105.295 27.9575 106.043 28.2901C106.809 28.6212 107.627 28.7875 108.497 28.7875C109.124 28.7875 109.741 28.691 110.351 28.4995L112.569 31.4065C111.282 32.0004 109.924 32.2973 108.497 32.2973C107.14 32.2973 105.869 32.0449 104.686 31.5371C103.502 31.0145 102.467 30.3152 101.579 29.4422C100.709 28.5514 100.022 27.5136 99.5169 26.3259C99.0123 25.1203 98.7598 23.8375 98.7598 22.4753C98.7598 21.1133 99.0123 19.8387 99.5169 18.6512C100.022 17.4639 100.709 16.4249 101.579 15.5344C102.467 14.6439 103.502 13.9454 104.686 13.4391C105.869 12.9151 107.14 12.6532 108.497 12.6532C109.855 12.6532 111.125 12.9151 112.308 13.4391C113.492 13.9454 114.527 14.6439 115.415 15.5344C116.302 16.4249 116.999 17.4639 117.503 18.6512C118.008 19.8387 118.26 21.1133 118.26 22.4753C118.26 23.6802 118.06 24.807 117.66 25.8537C117.277 26.9019 116.746 27.8536 116.067 28.7088L118.626 32.036H114.292L107.113 22.6326ZM125.326 12.9151H128.902L135.689 32.036H131.982L130.808 28.6301H123.42L122.245 32.036H118.538L125.326 12.9151ZM124.621 25.2257H129.633L127.127 17.9703L124.621 25.2257ZM137.164 32.036V12.9151H143.273C144.405 12.9151 145.405 13.0811 146.275 13.4128C147.163 13.7271 147.912 14.1811 148.52 14.7748C149.13 15.3511 149.591 16.0495 149.904 16.8702C150.235 17.6734 150.401 18.5727 150.401 19.568C150.401 20.7204 150.121 21.8031 149.565 22.8161C149.025 23.8108 148.233 24.5888 147.19 25.147L151 32.036H146.954L143.9 26.1952H140.716V32.036H137.164ZM142.961 22.92C143.692 22.92 144.3 22.8339 144.788 22.6587C145.293 22.4666 145.692 22.2134 145.988 21.8991C146.302 21.5673 146.519 21.192 146.641 20.7728C146.78 20.3537 146.849 19.9085 146.849 19.4371C146.849 18.4592 146.537 17.6822 145.91 17.106C145.302 16.5297 144.318 16.2416 142.961 16.2416H140.716V22.92H142.961Z" fill="#1992B1"/>
<path fill-rule="evenodd" clip-rule="evenodd" d="M14.8737 0C23.0881 0 29.7473 6.68143 29.7473 14.9234V30.0766C29.7473 38.3185 23.0881 45 14.8737 45C6.65916 45 0 38.3185 0 30.0766V14.9234C0 6.68143 6.65916 0 14.8737 0ZM15.5527 3.91413C16.8774 3.22894 16.8948 2.72381 15.5832 3.03041C11.5437 3.97466 8.21613 7.52011 7.36096 11.7911C6.35838 16.7977 8.06496 20.6395 12.6246 23.6406C13.1421 23.981 13.936 24.5065 14.3888 24.8082C19.5159 28.2235 20.5591 33.455 17.0879 38.3442C16.4197 39.2855 15.0496 40.3713 13.6449 41.0726C12.7764 41.5062 12.7302 41.5523 12.8574 41.858C12.9598 42.104 13.1442 42.12 13.8094 41.9406C19.9678 40.2797 23.6899 33.3706 21.6813 27.3285C20.8164 24.7269 19.5507 23.256 16.2765 21.0479C14.4523 19.8177 14.3994 19.7799 13.6802 19.1926C8.38177 14.8663 9.32958 7.13287 15.5527 3.91413ZM4.55166 10.539C3.85293 10.535 2.89524 15.0247 3.01024 17.7657C3.2481 23.4366 5.56566 27.3354 10.8577 30.9668C12.8449 32.3305 13.4206 33.8557 12.6004 35.5839C11.2469 38.4357 7.28308 38.3977 5.34151 35.5143C5.03401 35.0577 4.75596 34.9762 4.55176 35.283C4.26172 35.7187 5.70195 37.6942 6.90931 38.5168C8.1042 39.3308 9.45743 39.6092 11.0341 39.3651C17.3308 38.3907 18.8907 31.2705 13.5296 27.9738C13.1634 27.7486 12.1573 27.0848 11.3213 26.5167C6.61092 23.316 4.89743 19.714 4.8911 12.9993C4.88879 10.4385 4.90289 10.541 4.55166 10.539ZM24.5918 8.46706C23.0152 6.08757 20.2042 5.21146 17.2939 6.19247C12.1762 7.91756 11.4219 14.1912 15.9826 17.1012C20.3455 19.8847 21.8325 21.2252 23.018 23.4426C24.483 26.183 25.0503 29.4564 24.7883 33.6568C24.7266 34.646 24.933 34.9613 25.3927 34.5802C25.6495 34.3672 26.2994 32.2396 26.5146 30.9074C27.5168 24.7057 25.2345 18.9466 20.3254 15.2895C19.2392 14.4803 19.055 14.3489 18.7539 14.1686C15.4526 12.1929 16.511 7.78861 20.3417 7.56178C21.9292 7.46776 23.408 8.23706 24.4139 9.68028C25.2503 10.8802 25.4206 9.718 24.5918 8.46706Z" fill="#1992B1"/>
</svg>
