<svg width="1843" height="3435" viewBox="0 0 1843 3435" fill="none" xmlns="http://www.w3.org/2000/svg">
<path fill-rule="evenodd" clip-rule="evenodd" d="M1805 15C2431.28 15 2939 522.789 2939 1149.18V2300.82C2939 2927.2 2431.28 3435 1805 3435C1178.71 3435 671 2927.2 671 2300.82V1149.18C671 522.789 1178.71 15 1805 15ZM1856.77 312.474C1957.77 260.4 1959.1 222.009 1859.1 245.311C1551.12 317.074 1297.42 586.529 1232.22 911.122C1155.78 1291.63 1285.89 1583.6 1633.53 1811.68C1672.98 1837.56 1733.51 1877.49 1768.03 1900.42C2158.93 2159.99 2238.47 2557.58 1973.82 2929.16C1922.87 3000.7 1818.41 3083.22 1711.32 3136.52C1645.1 3169.47 1641.58 3172.98 1651.27 3196.2C1659.08 3214.91 1673.15 3216.12 1723.86 3202.49C2193.39 3076.26 2477.17 2551.17 2324.03 2091.97C2258.09 1894.25 2161.59 1782.46 1911.95 1614.64C1772.88 1521.14 1768.84 1518.27 1714.01 1473.64C1310.04 1144.84 1382.31 557.098 1856.77 312.474ZM1018.03 815.962C964.756 815.662 891.739 1156.88 900.507 1365.19C918.643 1796.19 1095.34 2092.49 1498.81 2368.47C1650.32 2472.12 1694.21 2588.03 1631.68 2719.38C1528.49 2936.11 1226.28 2933.22 1078.25 2714.09C1054.8 2679.38 1033.6 2673.19 1018.04 2696.51C995.923 2729.62 1105.73 2879.76 1197.78 2942.28C1288.88 3004.14 1392.06 3025.3 1512.26 3006.75C1992.34 2932.7 2111.27 2391.56 1702.53 2141.01C1674.61 2123.89 1597.9 2073.44 1534.16 2030.27C1175.03 1787.01 1044.39 1513.27 1043.91 1002.95C1043.73 808.327 1044.81 816.116 1018.03 815.962ZM2545.93 658.496C2425.73 477.656 2211.41 411.071 1989.53 485.628C1599.34 616.734 1541.83 1093.53 1889.55 1314.69C2222.19 1526.24 2335.56 1628.11 2425.95 1796.64C2537.64 2004.91 2580.89 2253.68 2560.91 2572.92C2556.21 2648.1 2571.95 2672.06 2606.99 2643.09C2626.58 2626.91 2676.13 2465.21 2692.54 2363.96C2768.94 1892.63 2594.93 1454.94 2220.65 1177C2137.84 1115.51 2123.79 1105.52 2100.84 1091.82C1849.14 941.657 1929.83 606.934 2221.89 589.695C2342.93 582.55 2455.68 641.016 2532.37 750.701C2596.14 841.897 2609.12 753.568 2545.93 658.496Z" fill="#E2F1F3"/>
<path d="M519 2801.01C519 2846.63 510.488 2885.34 493.386 2917.13C475.852 2948.47 454.199 2975.42 428.349 2998L360.528 2912.29C382.69 2899.39 399.754 2883.5 411.757 2864.6C423.289 2845.71 429.055 2824.74 429.055 2801.71C429.055 2789.26 427.212 2778.43 423.524 2769.22C419.798 2759.54 414.973 2751.48 408.972 2745.03C402.5 2738.12 395.125 2733.05 386.848 2729.82C378.533 2726.6 369.981 2724.98 361.234 2724.98C350.604 2724.98 341.621 2727.98 334.247 2733.97C326.872 2739.96 320.635 2747.79 315.536 2757.47C310.005 2767.15 305.18 2778.43 301.022 2791.34C296.864 2803.78 292.707 2816.68 288.549 2830.04C283.018 2847.09 277.016 2864.14 270.583 2881.19C264.115 2898.24 255.579 2913.68 244.969 2927.5C233.899 2940.86 220.52 2951.92 204.833 2960.67C188.688 2968.97 168.62 2973.12 144.629 2973.12C124.33 2973.12 105.415 2968.97 87.8853 2960.67C70.3553 2952.38 55.1319 2940.86 42.2109 2926.11C28.8349 2910.91 18.4558 2893.17 11.0735 2872.89C3.69124 2852.62 0.000114739 2830.27 0.000113671 2805.85C0.000112785 2785.58 1.84745 2767.38 5.53467 2751.25C9.22581 2734.66 14.3017 2719.69 20.7622 2706.32C27.2187 2692.5 35.0638 2680.06 44.2897 2669C53.0528 2657.48 62.7415 2646.65 73.3521 2636.51L132.175 2713.93C99.8806 2735.58 83.7312 2766 83.7312 2805.16C83.7312 2828.2 89.2699 2845.71 100.339 2857.69C111.413 2869.67 125.024 2875.66 141.17 2875.66C151.317 2875.66 159.853 2872.89 166.772 2867.37C173.692 2861.84 179.921 2854.46 185.459 2845.25C190.531 2835.57 195.144 2824.51 199.298 2812.07C203.448 2799.63 207.834 2786.5 212.447 2772.68C217.981 2755.63 224.442 2738.58 231.82 2721.53C238.744 2704.02 247.97 2688.35 259.502 2674.53C270.583 2660.24 284.43 2648.73 301.022 2639.97C317.615 2631.22 337.934 2626.84 361.901 2626.84C381.749 2626.84 401.126 2630.75 420.033 2638.59C438.979 2646.42 455.807 2657.71 470.556 2672.46C484.873 2687.2 496.641 2705.4 505.859 2727.06C514.607 2748.71 519 2773.37 519 2801.01ZM303.808 2294.05L303.808 2487.58L512.096 2487.58L512.096 2581.58L6.91943 2581.58L6.91942 2487.58L213.832 2487.58L213.832 2294.05L6.91941 2294.05L6.91941 2200.05L512.096 2200.05L512.096 2294.05L303.808 2294.05ZM6.9194 1981.13L6.9194 1886.44L512.096 1706.73L512.096 1804.88L422.112 1835.98L422.112 2031.59L512.096 2062.69L512.096 2160.83L6.9194 1981.13ZM332.168 1999.79L332.168 1867.09L140.479 1933.44L332.168 1999.79ZM6.91939 1667.67L6.91938 1573.66L422.112 1573.66L422.112 1389.12L512.096 1389.12L512.096 1667.67L6.91939 1667.67ZM263.656 1161.97L263.656 1049.31L346.681 985.725C333.776 977.889 320.164 971.668 305.847 967.061C291.098 962.453 275.643 960.149 259.502 960.149C236.437 960.149 214.753 964.526 194.454 973.282C174.155 981.576 156.625 993.326 141.86 1008.53C126.636 1023.28 114.641 1040.79 105.878 1061.06C97.1113 1080.87 92.7296 1102.3 92.7296 1125.34C92.7296 1148.38 97.1113 1170.04 105.878 1190.31C114.641 1210.13 126.636 1227.4 141.86 1242.15C156.625 1256.89 174.155 1268.64 194.454 1277.4C214.753 1285.69 236.437 1289.84 259.502 1289.84C282.586 1289.84 304.239 1285.69 324.558 1277.4C344.838 1268.64 362.607 1256.89 377.826 1242.15C392.614 1227.4 404.343 1210.13 413.129 1190.31C421.877 1170.04 426.27 1148.38 426.27 1125.34C426.27 1108.75 423.72 1092.39 418.66 1076.27L495.465 1017.52C511.155 1051.62 519 1087.55 519 1125.34C519 1161.28 512.331 1194.92 498.916 1226.25C485.109 1257.59 466.633 1285 443.569 1308.5C420.033 1331.54 392.614 1349.74 361.234 1363.11C329.382 1376.47 295.492 1383.15 259.502 1383.15C223.516 1383.15 189.841 1376.47 158.468 1363.11C127.099 1349.74 99.6492 1331.54 76.1216 1308.5C52.594 1285 34.1381 1257.59 20.7621 1226.25C6.91933 1194.92 4.17848e-05 1161.28 4.02138e-05 1125.34C3.86428e-05 1089.4 6.91933 1055.76 20.7621 1024.43C34.1381 993.095 52.594 965.677 76.1216 942.178C99.6492 918.679 127.099 900.249 158.468 886.885C189.841 873.521 223.516 866.841 259.502 866.841C291.334 866.841 321.106 872.138 348.76 882.74C376.453 892.875 401.597 906.929 424.191 924.9L512.096 857.164L512.096 971.899L263.656 1161.97ZM6.91934 679.775L6.91934 585.083L512.096 405.382L512.096 503.525L422.112 534.629L422.112 730.233L512.096 761.333L512.096 859.479L6.91934 679.775ZM332.168 698.435L332.168 565.733L140.479 632.086L332.168 698.435ZM512.096 366.321L6.91933 366.321L6.91932 204.591C6.91932 174.62 11.3047 148.135 20.0678 125.097C28.3719 101.59 40.3671 81.7659 56.0535 65.6633C71.277 49.5217 89.7288 37.2986 111.413 29.0317C132.634 20.2556 156.393 15.8677 182.69 15.8677C213.137 15.8677 241.74 23.272 268.504 38.0032C294.785 52.3035 315.34 73.2641 330.089 100.885L512.096 -2.23844e-05L512.096 107.114L357.782 187.979L357.782 272.292L512.096 272.292L512.096 366.321ZM271.25 212.858C271.25 193.504 268.975 177.401 264.346 164.472C259.27 151.112 252.582 140.534 244.278 132.698C235.511 124.392 225.595 118.633 214.522 115.42C203.448 111.738 191.684 109.896 179.23 109.896C153.396 109.896 132.865 118.163 117.642 134.775C102.418 150.877 94.8048 176.931 94.8048 212.858L94.8048 272.292L271.25 272.292L271.25 212.858Z" fill="#E2F1F3"/>
</svg>
