<svg width="27" height="27" viewBox="0 0 27 27" fill="none" xmlns="http://www.w3.org/2000/svg">
<path d="M13.4032 0C15.7042 0 17.9908 0 20.2918 0C23.5275 0 26.1162 2.1572 26.7058 5.33544C26.7777 5.70934 26.8065 6.09763 26.8065 6.5003C26.8065 11.1166 26.8065 15.7186 26.8065 20.335C26.8065 23.5707 24.5918 26.1881 21.4135 26.7346C21.0396 26.7921 20.6657 26.8209 20.2918 26.8209C15.7042 26.8209 11.1167 26.8209 6.5291 26.8209C3.27896 26.8209 0.704687 24.6924 0.100679 21.4998C0.0287728 21.1259 0 20.7376 0 20.335C0 15.7186 0 11.1166 0 6.5003C0 3.30769 2.09967 0.747844 5.23476 0.115074C5.66619 0.0287869 6.09766 0 6.5291 0C8.83008 0 11.1166 0 13.4176 0H13.4032ZM13.4032 1.27994C11.1023 1.27994 8.78689 1.27994 6.48591 1.27994C3.48025 1.27994 1.25115 3.50904 1.25115 6.5147C1.25115 11.1167 1.25115 15.7186 1.25115 20.3206C1.25115 23.3118 3.49462 25.5409 6.47152 25.5409C11.0735 25.5409 15.6755 25.5409 20.2775 25.5409C23.2831 25.5409 25.5121 23.3118 25.5121 20.3062C25.5121 15.7186 25.5121 11.131 25.5121 6.5434C25.5121 6.18387 25.4834 5.81004 25.4115 5.45051C24.9082 2.97695 22.8804 1.29432 20.3494 1.27994C18.034 1.27994 15.7186 1.27994 13.4032 1.27994Z" fill="white"/>
<path d="M19.1557 21.7299C16.7828 21.6724 14.7551 20.9966 12.9143 19.8317C9.70733 17.7896 7.23377 15.1147 5.81004 11.5481C5.36422 10.4264 5.11973 9.26154 5.07658 8.05352C5.00468 6.50036 5.83877 5.27789 7.30564 4.74579C7.62203 4.63074 7.93839 4.55887 8.26915 4.51573C9.33336 4.37192 10.1531 4.73147 10.6852 5.70939C10.9584 6.21273 11.3036 6.67285 11.6056 7.16181C12.1952 8.11096 12.2528 9.10335 11.7926 10.1244C11.6487 10.4552 11.4906 10.7859 11.3467 11.1166C11.2461 11.318 11.2748 11.5049 11.3467 11.6919C12.1233 13.432 15.1146 15.4598 15.1146 15.4598C15.3447 15.5604 15.5605 15.5316 15.7906 15.431C16.4089 15.1577 16.9985 14.7982 17.7032 14.7407C18.3647 14.6832 18.9975 14.8127 19.5584 15.1578C20.1912 15.5461 20.8095 15.9487 21.4279 16.3514C22.0176 16.7397 22.3052 17.3006 22.3196 18.0196C22.3196 19.0407 22.0319 19.9467 21.3417 20.6945C20.7233 21.3704 19.9754 21.8018 19.1845 21.7299H19.1557ZM18.7099 20.4357C19.8028 20.4932 20.5795 19.9611 20.8958 18.9113C20.9821 18.6236 20.9964 18.336 21.0108 18.0483C21.0108 17.7607 20.9102 17.5451 20.6657 17.4013C20.0761 17.0274 19.4865 16.6246 18.8824 16.2651C18.336 15.9343 17.7751 15.92 17.1999 16.1788C16.8691 16.3226 16.5383 16.4808 16.2076 16.639C15.7186 16.8547 15.2009 16.8979 14.6976 16.6822C12.5404 15.7762 11.0016 14.2374 10.0956 12.0658C9.89425 11.5769 9.92297 11.0735 10.1387 10.5989C10.2825 10.2825 10.4263 9.96618 10.5845 9.63541C10.8865 9.00264 10.8434 8.38421 10.4551 7.79458C10.1531 7.33439 9.82237 6.88861 9.57789 6.39965C9.29027 5.81003 8.83002 5.7094 8.26915 5.81007C8.16849 5.82445 8.06786 5.85318 7.95281 5.86756C6.87423 6.1408 6.28461 6.96048 6.34213 8.06783C6.39966 9.17518 6.64414 10.2538 7.06119 11.2893C8.24044 14.1655 10.225 16.3802 12.6986 18.1778C14.4818 19.4865 16.4664 20.3206 18.7099 20.4501V20.4357Z" fill="white"/>
</svg>
