<svg width="27" height="27" viewBox="0 0 27 27" fill="none" xmlns="http://www.w3.org/2000/svg">
<path d="M20.1153 0L6.7051 0C3.01762 0 0 3.01762 0 6.7051L0 20.1159C0 23.8024 3.01762 26.821 6.7051 26.821H20.1153C23.8028 26.821 26.8204 23.8024 26.8204 20.1159V6.7051C26.8204 3.01762 23.8028 0 20.1153 0ZM24.5852 20.1159C24.5852 22.5801 22.5808 24.5859 20.1153 24.5859H6.7051C4.24065 24.5859 2.23514 22.5801 2.23514 20.1159V6.7051C2.23514 4.24032 4.24065 2.23514 6.7051 2.23514H20.1153C22.5808 2.23514 24.5852 4.24032 24.5852 6.7051V20.1159Z" fill="white"/>
<path d="M20.1153 0L6.7051 0C3.01762 0 0 3.01762 0 6.7051L0 20.1159C0 23.8024 3.01762 26.821 6.7051 26.821H20.1153C23.8028 26.821 26.8204 23.8024 26.8204 20.1159V6.7051C26.8204 3.01762 23.8028 0 20.1153 0ZM24.5852 20.1159C24.5852 22.5801 22.5808 24.5859 20.1153 24.5859H6.7051C4.24065 24.5859 2.23514 22.5801 2.23514 20.1159V6.7051C2.23514 4.24032 4.24065 2.23514 6.7051 2.23514H20.1153C22.5808 2.23514 24.5852 4.24032 24.5852 6.7051V20.1159Z" fill="white"/>
<path d="M20.6782 7.82521C21.604 7.82521 22.3545 7.07471 22.3545 6.14893C22.3545 5.22315 21.604 4.47266 20.6782 4.47266C19.7524 4.47266 19.002 5.22315 19.002 6.14893C19.002 7.07471 19.7524 7.82521 20.6782 7.82521Z" fill="white"/>
<path d="M20.6782 7.82521C21.604 7.82521 22.3545 7.07471 22.3545 6.14893C22.3545 5.22315 21.604 4.47266 20.6782 4.47266C19.7524 4.47266 19.002 5.22315 19.002 6.14893C19.002 7.07471 19.7524 7.82521 20.6782 7.82521Z" fill="white"/>
<path d="M13.4048 6.69385C9.70089 6.69385 6.69971 9.69536 6.69971 13.3989C6.69971 17.1012 9.70089 20.1047 13.4048 20.1047C17.1077 20.1047 20.1099 17.1012 20.1099 13.3989C20.1099 9.69536 17.1077 6.69385 13.4048 6.69385ZM13.4048 17.8696C10.9363 17.8696 8.93485 15.8681 8.93485 13.3989C8.93485 10.9298 10.9363 8.92899 13.4048 8.92899C15.8733 8.92899 17.8748 10.9298 17.8748 13.3989C17.8748 15.8681 15.8733 17.8696 13.4048 17.8696Z" fill="white"/>
<path d="M13.4048 6.69385C9.70089 6.69385 6.69971 9.69536 6.69971 13.3989C6.69971 17.1012 9.70089 20.1047 13.4048 20.1047C17.1077 20.1047 20.1099 17.1012 20.1099 13.3989C20.1099 9.69536 17.1077 6.69385 13.4048 6.69385ZM13.4048 17.8696C10.9363 17.8696 8.93485 15.8681 8.93485 13.3989C8.93485 10.9298 10.9363 8.92899 13.4048 8.92899C15.8733 8.92899 17.8748 10.9298 17.8748 13.3989C17.8748 15.8681 15.8733 17.8696 13.4048 17.8696Z" fill="white"/>
</svg>
