<svg width="28" height="28" viewBox="0 0 28 28" fill="none" xmlns="http://www.w3.org/2000/svg">
<path d="M23.8243 4.08762C21.1884 1.45164 17.6837 0 13.956 0C10.2282 0 6.7235 1.45164 4.08762 4.08757C1.45164 6.7235 0 10.2282 0 13.956C0 17.6837 1.45164 21.1884 4.08762 23.8243C6.7235 26.4602 10.2282 27.9118 13.956 27.9118C17.6838 27.9118 21.1884 26.4602 23.8243 23.8242C26.4602 21.1884 27.9119 17.6837 27.9119 13.9559C27.9119 10.2281 26.4602 6.7235 23.8243 4.08762ZM5.24526 5.24526C6.47246 4.01806 7.91313 3.08203 9.4834 2.47108C9.06516 2.99322 8.67379 3.59338 8.31513 4.26839C7.89858 5.05233 7.53916 5.91329 7.23981 6.83291C6.20282 6.6608 5.24199 6.44918 4.38359 6.2008C4.65262 5.87011 4.93964 5.55087 5.24526 5.24526ZM3.39244 7.60954C4.39645 7.93102 5.54466 8.20212 6.79753 8.41686C6.44863 9.89782 6.24327 11.4915 6.19426 13.1374H1.66468C1.79334 11.1621 2.38658 9.277 3.39244 7.60954ZM3.30331 20.151C2.35174 18.521 1.78947 16.6903 1.66463 14.7745H6.19737C6.2509 16.3734 6.45218 17.9217 6.7893 19.3639C5.51069 19.5712 4.33365 19.8354 3.30331 20.151ZM5.24526 22.6666C4.89745 22.3188 4.57352 21.9535 4.27319 21.5733C5.16305 21.3266 6.15785 21.1176 7.22869 20.9501C7.53016 21.8824 7.89345 22.7548 8.31508 23.5484C8.70595 24.284 9.1357 24.9303 9.59674 25.4839C7.98253 24.8743 6.50195 23.9232 5.24526 22.6666ZM13.1373 26.0646C11.894 25.7163 10.7177 24.5809 9.76088 22.7801C9.42621 22.1504 9.13226 21.4633 8.88046 20.7311C10.2286 20.5827 11.6632 20.495 13.1373 20.4744V26.0646ZM13.1373 18.8371C11.5025 18.8594 9.90911 18.962 8.41686 19.1373C8.08769 17.7766 7.88964 16.3037 7.83529 14.7746H13.1374V18.8371H13.1373ZM13.1373 13.1373H7.83218C7.88184 11.5654 8.08306 10.0515 8.42247 8.65613C9.90518 8.84148 11.4953 8.95422 13.1373 8.98649V13.1373ZM13.1373 7.34912C11.6575 7.3193 10.2261 7.2228 8.88743 7.06536C9.13772 6.34074 9.42937 5.66061 9.76088 5.03657C10.7177 3.23582 11.894 2.10037 13.1373 1.75207V7.34912ZM24.571 7.69649C25.5454 9.34247 26.1207 11.1963 26.2473 13.1373H21.7178C21.6693 11.5104 21.4679 9.93462 21.1263 8.46826C22.3874 8.2646 23.5498 8.00548 24.571 7.69649ZM22.6666 5.24526C22.9953 5.57393 23.3023 5.91847 23.5887 6.27614C22.7124 6.51541 21.7367 6.71848 20.6882 6.88192C20.3858 5.94382 20.0208 5.06628 19.5968 4.26839C19.2382 3.59338 18.8468 2.99322 18.4286 2.47108C19.9987 3.08203 21.4395 4.01806 22.6666 5.24526ZM14.7746 14.7746H20.0767C20.0219 16.3156 19.8212 17.7996 19.4874 19.1692C18.0049 18.9848 16.4155 18.8731 14.7746 18.8417V14.7746ZM14.7746 13.1373V8.99194C16.4103 8.97046 18.005 8.86868 19.4986 8.69407C19.8326 10.0789 20.0305 11.5797 20.0797 13.1373H14.7746ZM14.7744 1.75207H14.7745C16.0179 2.10037 17.1941 3.23582 18.151 5.03657C18.4878 5.67042 18.7834 6.36228 19.0363 7.09987C17.6863 7.24772 16.2501 7.33478 14.7744 7.35468V1.75207ZM14.7746 26.0646V20.4791C16.253 20.5081 17.6833 20.6037 19.0215 20.7602C18.7718 21.4815 18.4812 22.1587 18.151 22.7801C17.1942 24.5809 16.0179 25.7163 14.7746 26.0646ZM22.6666 22.6666C21.41 23.9233 19.9294 24.8743 18.3151 25.4839C18.7762 24.9302 19.2059 24.284 19.5968 23.5484C20.0122 22.7666 20.3708 21.9081 20.6696 20.9913C21.7308 21.1664 22.7125 21.383 23.587 21.6378C23.3012 21.9946 22.9947 22.3385 22.6666 22.6666ZM24.565 20.2257C23.5491 19.8991 22.3844 19.6243 21.1127 19.4074C21.456 17.953 21.6605 16.3895 21.7146 14.7746H26.2474C26.1205 16.7196 25.5432 18.5772 24.565 20.2257Z" fill="white"/>
<path d="M23.8243 4.08762C21.1884 1.45164 17.6837 0 13.956 0C10.2282 0 6.7235 1.45164 4.08762 4.08757C1.45164 6.7235 0 10.2282 0 13.956C0 17.6837 1.45164 21.1884 4.08762 23.8243C6.7235 26.4602 10.2282 27.9118 13.956 27.9118C17.6838 27.9118 21.1884 26.4602 23.8243 23.8242C26.4602 21.1884 27.9119 17.6837 27.9119 13.9559C27.9119 10.2281 26.4602 6.7235 23.8243 4.08762ZM5.24526 5.24526C6.47246 4.01806 7.91313 3.08203 9.4834 2.47108C9.06516 2.99322 8.67379 3.59338 8.31513 4.26839C7.89858 5.05233 7.53916 5.91329 7.23981 6.83291C6.20282 6.6608 5.24199 6.44918 4.38359 6.2008C4.65262 5.87011 4.93964 5.55087 5.24526 5.24526ZM3.39244 7.60954C4.39645 7.93102 5.54466 8.20212 6.79753 8.41686C6.44863 9.89782 6.24327 11.4915 6.19426 13.1374H1.66468C1.79334 11.1621 2.38658 9.277 3.39244 7.60954ZM3.30331 20.151C2.35174 18.521 1.78947 16.6903 1.66463 14.7745H6.19737C6.2509 16.3734 6.45218 17.9217 6.7893 19.3639C5.51069 19.5712 4.33365 19.8354 3.30331 20.151ZM5.24526 22.6666C4.89745 22.3188 4.57352 21.9535 4.27319 21.5733C5.16305 21.3266 6.15785 21.1176 7.22869 20.9501C7.53016 21.8824 7.89345 22.7548 8.31508 23.5484C8.70595 24.284 9.1357 24.9303 9.59674 25.4839C7.98253 24.8743 6.50195 23.9232 5.24526 22.6666ZM13.1373 26.0646C11.894 25.7163 10.7177 24.5809 9.76088 22.7801C9.42621 22.1504 9.13226 21.4633 8.88046 20.7311C10.2286 20.5827 11.6632 20.495 13.1373 20.4744V26.0646ZM13.1373 18.8371C11.5025 18.8594 9.90911 18.962 8.41686 19.1373C8.08769 17.7766 7.88964 16.3037 7.83529 14.7746H13.1374V18.8371H13.1373ZM13.1373 13.1373H7.83218C7.88184 11.5654 8.08306 10.0515 8.42247 8.65613C9.90518 8.84148 11.4953 8.95422 13.1373 8.98649V13.1373ZM13.1373 7.34912C11.6575 7.3193 10.2261 7.2228 8.88743 7.06536C9.13772 6.34074 9.42937 5.66061 9.76088 5.03657C10.7177 3.23582 11.894 2.10037 13.1373 1.75207V7.34912ZM24.571 7.69649C25.5454 9.34247 26.1207 11.1963 26.2473 13.1373H21.7178C21.6693 11.5104 21.4679 9.93462 21.1263 8.46826C22.3874 8.2646 23.5498 8.00548 24.571 7.69649ZM22.6666 5.24526C22.9953 5.57393 23.3023 5.91847 23.5887 6.27614C22.7124 6.51541 21.7367 6.71848 20.6882 6.88192C20.3858 5.94382 20.0208 5.06628 19.5968 4.26839C19.2382 3.59338 18.8468 2.99322 18.4286 2.47108C19.9987 3.08203 21.4395 4.01806 22.6666 5.24526ZM14.7746 14.7746H20.0767C20.0219 16.3156 19.8212 17.7996 19.4874 19.1692C18.0049 18.9848 16.4155 18.8731 14.7746 18.8417V14.7746ZM14.7746 13.1373V8.99194C16.4103 8.97046 18.005 8.86868 19.4986 8.69407C19.8326 10.0789 20.0305 11.5797 20.0797 13.1373H14.7746ZM14.7744 1.75207H14.7745C16.0179 2.10037 17.1941 3.23582 18.151 5.03657C18.4878 5.67042 18.7834 6.36228 19.0363 7.09987C17.6863 7.24772 16.2501 7.33478 14.7744 7.35468V1.75207ZM14.7746 26.0646V20.4791C16.253 20.5081 17.6833 20.6037 19.0215 20.7602C18.7718 21.4815 18.4812 22.1587 18.151 22.7801C17.1942 24.5809 16.0179 25.7163 14.7746 26.0646ZM22.6666 22.6666C21.41 23.9233 19.9294 24.8743 18.3151 25.4839C18.7762 24.9302 19.2059 24.284 19.5968 23.5484C20.0122 22.7666 20.3708 21.9081 20.6696 20.9913C21.7308 21.1664 22.7125 21.383 23.587 21.6378C23.3012 21.9946 22.9947 22.3385 22.6666 22.6666ZM24.565 20.2257C23.5491 19.8991 22.3844 19.6243 21.1127 19.4074C21.456 17.953 21.6605 16.3895 21.7146 14.7746H26.2474C26.1205 16.7196 25.5432 18.5772 24.565 20.2257Z" fill="white"/>
</svg>
