<svg width="102" height="21" viewBox="0 0 102 21" fill="none" xmlns="http://www.w3.org/2000/svg">
<g clip-path="url(#clip0_169_1748)">
<path d="M0 3.79377C0.0438079 3.5566 0.0751978 3.31609 0.135218 3.08258C0.450152 1.85936 1.28595 1.08279 2.44669 0.592766C3.19591 0.275868 3.98859 0.121088 4.79921 0.0533721C6.83438 -0.117086 8.79159 0.176796 10.6605 0.986053C10.7792 1.03676 10.8306 1.09246 10.8292 1.22556C10.823 2.36639 10.8254 3.50723 10.8254 4.64773C10.8254 4.69476 10.8202 4.74213 10.8178 4.79183C10.7354 4.79417 10.684 4.74346 10.6239 4.71578C8.94544 3.92587 7.18174 3.48688 5.30697 3.50122C5.06689 3.50356 4.83025 3.53758 4.61294 3.64533C4.31146 3.7941 4.27765 4.05663 4.5305 4.27312C4.71815 4.4329 4.94822 4.5173 5.1783 4.59736C6.00996 4.88757 6.8668 5.10306 7.70985 5.36292C8.53806 5.6181 9.33591 5.93634 10.0551 6.42036C10.9534 7.02513 11.5522 7.82238 11.675 8.89183C11.854 10.4583 11.3035 11.7272 9.95129 12.6419C9.14688 13.1863 8.24279 13.4899 7.28074 13.6119C5.30835 13.8635 3.37217 13.717 1.49464 13.0432C0.969293 12.8544 0.470159 12.6149 0.00137978 12.3173V8.38446C0.7744 8.96621 1.64745 9.3545 2.57294 9.64604C3.7561 10.0173 4.95685 10.2835 6.21279 10.2075C6.52669 10.1881 6.84059 10.1541 7.11723 9.98863C7.42975 9.80249 7.44355 9.49026 7.15587 9.27377C7.02065 9.17203 6.86818 9.10065 6.71192 9.03793C6.05515 8.77674 5.37596 8.5806 4.69814 8.38346C3.72264 8.10025 2.76059 7.78602 1.89271 7.25597C1.04208 6.73592 0.394271 6.06076 0.140392 5.09072C0.0789922 4.85721 0.0479472 4.61637 0.00275955 4.37953V3.79644" fill="black"/>
<path d="M56.4442 6.86868C56.4442 4.73846 56.4453 2.6079 56.4404 0.477681C56.4404 0.319232 56.4729 0.262191 56.6543 0.263525C58.5456 0.270864 60.4366 0.259856 62.3279 0.271864C63.7474 0.281538 65.1158 0.536724 66.3665 1.21655C68.0678 2.1419 69.2596 3.4702 69.6525 5.35391C70.0602 7.31 69.8101 9.16936 68.5028 10.7879C67.3997 12.1549 65.9212 12.9531 64.1713 13.2967C63.5235 13.4238 62.8667 13.4782 62.2051 13.4782C60.3518 13.4782 58.498 13.4758 56.6443 13.4828C56.4704 13.4828 56.4404 13.4321 56.4418 13.2784C56.4466 11.1421 56.4453 9.00557 56.4453 6.86935M60.6329 6.87235V9.52996C60.6329 9.99196 60.6329 9.99463 61.1096 9.99096C61.7812 9.98729 62.4542 10.026 63.1172 9.87721C64.1141 9.65472 64.8781 9.15502 65.261 8.20299C65.4573 7.7153 65.5173 7.20259 65.4897 6.68355C65.4035 5.04068 64.5018 4.07898 62.8233 3.81912C62.1603 3.71638 61.4935 3.77209 60.8295 3.75141C60.6743 3.7464 60.6281 3.78643 60.6291 3.94021C60.6367 4.91759 60.6329 5.89397 60.6329 6.87135" fill="black"/>
<path d="M33.9412 13.7244C31.9999 13.717 30.3552 13.255 28.9692 12.0948C27.1493 10.5717 26.3562 8.64098 26.4952 6.32328C26.6777 3.27239 29.192 0.626792 32.3076 0.132097C34.419 -0.203148 36.4217 0.0667161 38.1864 1.32497C39.7011 2.40509 40.6928 3.8278 41.0043 5.64479C41.7387 9.93325 38.6794 13.1099 35.231 13.6166C34.758 13.6857 34.2827 13.7184 33.9412 13.7244ZM30.7667 6.87235C30.7643 7.18925 30.7953 7.50381 30.8829 7.81004C31.1868 8.87215 31.8346 9.64871 32.9616 9.93926C34.0899 10.2295 35.123 10.0143 35.956 9.17837C36.9567 8.1743 37.1278 6.34297 36.3676 5.1064C35.2479 3.28573 32.6915 3.30408 31.5245 4.71444C30.9968 5.35057 30.7729 6.07277 30.7667 6.87369" fill="black"/>
<path d="M11.906 0.268863H12.1661C13.5607 0.268863 14.9567 0.271198 16.3513 0.265194C16.4937 0.265194 16.5541 0.306224 16.6014 0.43832C17.4982 2.9278 18.4013 5.41495 19.3044 7.9021C19.3292 7.96982 19.3568 8.0362 19.3982 8.14028C19.5769 7.65392 19.7435 7.20526 19.9073 6.75627C20.6752 4.65373 21.4434 2.5512 22.2064 0.446326C22.2564 0.307224 22.3202 0.26486 22.4716 0.26486C23.8349 0.270865 25.1984 0.26853 26.563 0.26853H26.7493C26.7669 0.343584 26.7269 0.395622 26.7041 0.449995C24.928 4.82185 23.1505 9.19271 21.3771 13.5656C21.3285 13.6853 21.2695 13.73 21.1332 13.729C19.9263 13.723 18.7204 13.724 17.5134 13.729C17.3847 13.729 17.3158 13.7 17.2644 13.5729C15.4944 9.19238 13.7197 4.81351 11.946 0.435318C11.926 0.385615 11.8936 0.338581 11.9074 0.26953" fill="black"/>
<path d="M40.613 0.26853H40.8007C42.2515 0.26853 43.7037 0.269865 45.1546 0.266195C45.2832 0.266195 45.3571 0.30489 45.4247 0.411301C46.1415 1.53746 46.8631 2.66028 47.5847 3.7841C47.6237 3.84581 47.6647 3.90619 47.7061 3.96923C47.7848 3.9292 47.8086 3.85682 47.8462 3.79877C48.5806 2.67629 49.3132 1.55247 50.0414 0.424978C50.1176 0.306558 50.1977 0.265195 50.3415 0.266529C51.7423 0.272533 53.1431 0.270198 54.5453 0.270198H54.733C54.7216 0.371939 54.6592 0.427313 54.6167 0.491693C53.0431 2.80238 51.4698 5.11273 49.8924 7.42075C49.8061 7.54785 49.7647 7.67127 49.7647 7.82471C49.7699 9.71776 49.7648 11.6111 49.7723 13.5055C49.7723 13.6663 49.7313 13.7063 49.5661 13.705C48.3091 13.6977 47.0531 13.6967 45.7962 13.705C45.6061 13.7063 45.5723 13.647 45.5737 13.4802C45.5799 11.6232 45.5761 9.76647 45.5799 7.90944C45.5799 7.76901 45.5437 7.65426 45.4647 7.53684C43.89 5.18379 42.3191 2.82873 40.7469 0.473347C40.7093 0.417639 40.6741 0.361932 40.613 0.270198" fill="black"/>
<path d="M85.5785 6.88703C85.5785 9.00524 85.5758 11.1221 85.5833 13.2403C85.5833 13.4291 85.5271 13.4702 85.3395 13.4702C80.9604 13.4655 76.5817 13.4665 72.2026 13.4665C72.0332 13.4665 71.9487 13.3831 71.9487 13.216V0.563745C71.9487 0.384614 72.0422 0.295216 72.2288 0.295216H85.3094C85.4888 0.295216 85.5785 0.380945 85.5785 0.552737V6.88803M78.7679 9.38152C79.5658 9.38152 80.364 9.37785 81.1618 9.38519C81.3133 9.38652 81.3509 9.34049 81.3509 9.20005C81.3457 7.64692 81.3457 6.09345 81.3509 4.54032C81.3509 4.40588 81.3119 4.36252 81.1708 4.36252C79.562 4.36619 77.9535 4.36619 76.345 4.36252C76.1964 4.36252 76.1501 4.40722 76.1512 4.54999C76.155 6.09712 76.1564 7.64425 76.1512 9.19171C76.1512 9.34549 76.204 9.38652 76.3564 9.38519C77.1605 9.37918 77.9649 9.38285 78.7693 9.38285" fill="#0E6131"/>
<path d="M97.9291 6.12381C97.75 6.41402 97.5713 6.70556 97.3923 6.99611C96.9732 7.67961 96.5493 8.36077 96.1378 9.04794C96.0602 9.17737 95.9729 9.21473 95.8252 9.21373C95.2037 9.20639 94.5807 9.20639 93.9591 9.21373C93.8225 9.21506 93.7452 9.1737 93.6749 9.06129C93.086 8.12994 92.4917 7.20193 91.8963 6.27425C91.8625 6.22088 91.8453 6.15216 91.7477 6.1098V13.2133C91.7477 13.3721 91.6676 13.4515 91.5076 13.4515C90.3079 13.4515 89.1071 13.4492 87.9077 13.4552C87.7449 13.4552 87.6963 13.4188 87.6963 13.2543C87.7015 8.98756 87.7015 4.72245 87.6963 0.455667C87.6963 0.28154 87.7539 0.247515 87.9188 0.248849C89.1695 0.254854 90.4193 0.253853 91.67 0.248849C91.8063 0.248849 91.8825 0.289879 91.9539 0.402628C92.8708 1.85202 93.7915 3.29741 94.7131 4.74313C94.7521 4.80351 94.7783 4.87489 94.8456 4.91959C94.9146 4.87956 94.9394 4.80718 94.977 4.7478C95.8991 3.30942 96.8221 1.87103 97.7376 0.429314C97.8252 0.290213 97.9201 0.247849 98.0829 0.247849C99.3147 0.253853 100.545 0.253853 101.778 0.247849C101.94 0.247849 102 0.275535 102 0.452331C101.994 4.71911 101.995 8.98456 102 13.251C102 13.4095 101.963 13.4555 101.794 13.4542C100.594 13.4468 99.3937 13.4468 98.194 13.4542C98.0253 13.4542 97.9729 13.4168 97.9729 13.2437C97.9791 10.944 97.9763 8.64298 97.9763 6.34363V6.12948C97.9615 6.12714 97.9463 6.12347 97.9315 6.12114" fill="black"/>
<path d="M-4.25335e-05 17.5882C-4.25335e-05 17.2663 0.0596328 16.9784 0.177604 16.7242C0.29592 16.47 0.453559 16.2689 0.650177 16.1198C0.846795 15.9707 1.06411 15.8582 1.30143 15.7832C1.53875 15.7075 1.78815 15.6698 2.051 15.6698C2.46976 15.6698 2.84299 15.7548 3.17103 15.9256V16.8189C2.88852 16.6435 2.56496 16.5558 2.20208 16.5558C1.88439 16.5558 1.61706 16.6361 1.3994 16.7969C1.18208 16.9577 1.07411 17.2046 1.07411 17.5365C1.07411 17.8684 1.18277 18.0959 1.3994 18.265C1.61602 18.4331 1.87852 18.5172 2.1869 18.5172C2.57531 18.5172 2.91577 18.4321 3.20863 18.2613V19.162C2.83057 19.3184 2.42112 19.3962 1.9827 19.3962C1.43734 19.3962 0.97132 19.2417 0.582568 18.9318C0.194161 18.6219 -0.000732422 18.1739 -0.000732422 17.5888V17.5878L-4.25335e-05 17.5882Z" fill="black"/>
<path d="M5.62367 18.1523L6.52467 15.7805H7.61469L6.00311 19.7191C5.64471 20.573 5.12212 21 4.43672 21C4.29012 21 4.10109 20.9737 3.8686 20.9196V20.0777C4.03486 20.1114 4.1787 20.129 4.29978 20.129C4.6837 20.129 4.97104 19.8732 5.16283 19.3601L5.17042 19.3455L3.4519 15.7809H4.56435L5.62402 18.1526L5.62367 18.1523Z" fill="black"/>
<path d="M9.18782 19.2941H8.13574V15.7805H11.708V19.2941H10.6559V16.6372H9.18782V19.2941Z" fill="black"/>
<path d="M12.3976 17.5368C12.3976 17.2196 12.4552 16.938 12.5714 16.6912C12.6877 16.4443 12.8398 16.2505 13.0288 16.1088C13.2178 15.967 13.4172 15.8599 13.6273 15.7869C13.8363 15.7138 14.0498 15.6771 14.2672 15.6771C14.63 15.6771 14.945 15.7428 15.2095 15.8746C15.4741 16.0064 15.67 16.1761 15.7966 16.384C15.9222 16.5914 16.0091 16.8256 16.0574 17.0871C16.1057 17.3487 16.0916 17.6082 16.0157 17.867H13.4579C13.5138 18.1112 13.6594 18.293 13.8963 18.4128C14.1337 18.5325 14.4134 18.5919 14.7366 18.5919C15.1357 18.5919 15.5014 18.5215 15.8342 18.3798V19.178C15.4758 19.3244 15.0316 19.3975 14.5024 19.3975C13.8963 19.3975 13.3945 19.2337 12.9967 18.9075C12.598 18.5802 12.3983 18.1239 12.3983 17.5388L12.3972 17.5371L12.3976 17.5368ZM15.0692 17.2076C15.0947 17.0468 15.0464 16.8803 14.9257 16.7102C14.8046 16.5394 14.5976 16.4543 14.3044 16.4543C14.0719 16.4543 13.8732 16.5211 13.7059 16.6555C13.5397 16.7899 13.4534 16.9737 13.449 17.2086H15.0681L15.0692 17.2076Z" fill="black"/>
<path d="M17.6582 16.2926C17.9558 15.8829 18.3946 15.6774 18.9748 15.6774C19.525 15.6774 19.9579 15.8592 20.2728 16.2232C20.5885 16.5871 20.7454 17.0251 20.7454 17.5371C20.7454 18.0492 20.5874 18.4878 20.2728 18.8508C19.9572 19.2147 19.525 19.3958 18.9748 19.3958C18.4757 19.3958 18.0769 19.2377 17.7789 18.9205V20.9043H16.7268V15.7799H17.6578V16.2929L17.6582 16.2926ZM19.4146 18.251C19.5857 18.0582 19.6716 17.8203 19.6716 17.5371C19.6716 17.2539 19.5857 17.0161 19.4146 16.823C19.2425 16.6301 19.011 16.5341 18.7178 16.5341C18.5005 16.5341 18.3077 16.5898 18.1383 16.7022C17.9693 16.8146 17.8472 16.9537 17.7716 17.1192V17.9538C17.8472 18.1202 17.9693 18.259 18.1383 18.3707C18.3077 18.4832 18.5005 18.5389 18.7178 18.5389C19.01 18.5389 19.2425 18.4428 19.4146 18.25V18.251Z" fill="black"/>
<path d="M22.4565 19.2941H21.4348V15.7805H22.4414L23.569 17.5231L24.7042 15.7805H25.7035V19.2941H24.689V17.2226L23.8336 18.5325H23.3117L22.4562 17.2226V19.2941H22.4565Z" fill="black"/>
<path d="M29.844 18.3861C29.844 18.5425 29.9299 18.6203 30.1009 18.6203C30.172 18.6203 30.2372 18.6103 30.2976 18.5909V19.2574C30.1058 19.3261 29.9119 19.3598 29.7143 19.3598C29.3303 19.3598 29.063 19.228 28.9116 18.9648C28.5335 19.2527 28.0968 19.3965 27.6022 19.3965C27.2438 19.3965 26.9423 19.3004 26.6977 19.1076C26.4528 18.9148 26.3311 18.6523 26.3311 18.3204C26.3311 18.0425 26.4169 17.8103 26.588 17.6245C26.7591 17.4391 26.9585 17.3136 27.1865 17.2479C27.4135 17.1822 27.6612 17.1492 27.9285 17.1492C28.2262 17.1492 28.5135 17.1812 28.7915 17.2443V17.1198C28.7915 16.9397 28.7188 16.7953 28.5722 16.6882C28.4256 16.5811 28.2138 16.5274 27.9361 16.5274C27.5325 16.5274 27.1034 16.6151 26.6494 16.7906V15.912C27.1334 15.7555 27.6032 15.6778 28.0568 15.6778C29.2479 15.6778 29.8433 16.2072 29.8433 17.2666V18.3864V18.3854L29.844 18.3861ZM28.1717 17.7563C27.9544 17.7563 27.7726 17.7957 27.6263 17.8734C27.4797 17.9511 27.4069 18.0735 27.4069 18.239C27.4069 18.3661 27.4607 18.4695 27.5694 18.5499C27.6781 18.6303 27.8122 18.6706 27.974 18.6706C28.2917 18.6706 28.5649 18.5756 28.7919 18.3854V17.837C28.5594 17.783 28.3531 17.7566 28.1706 17.7566H28.1717V17.7563Z" fill="black"/>
<path d="M31.7893 16.2926C32.0869 15.8829 32.5257 15.6774 33.1059 15.6774C33.6561 15.6774 34.089 15.8592 34.4039 16.2232C34.7199 16.5871 34.8769 17.0251 34.8769 17.5371C34.8769 18.0492 34.7189 18.4878 34.4039 18.8508C34.0883 19.2147 33.6561 19.3958 33.1059 19.3958C32.6068 19.3958 32.208 19.2377 31.91 18.9205V20.9043H30.8579V15.7799H31.7889V16.2929L31.7893 16.2926ZM33.5454 18.251C33.7165 18.0582 33.8024 17.8203 33.8024 17.5371C33.8024 17.2539 33.7165 17.0161 33.5454 16.823C33.3732 16.6301 33.1418 16.5341 32.8486 16.5341C32.6313 16.5341 32.4384 16.5898 32.2691 16.7022C32.1001 16.8146 31.9779 16.9537 31.9024 17.1192V17.9538C31.9779 18.1202 32.1001 18.259 32.2691 18.3707C32.4384 18.4832 32.6313 18.5389 32.8486 18.5389C33.1407 18.5389 33.3732 18.4428 33.5454 18.25V18.251Z" fill="black"/>
<path d="M36.618 19.2941H35.5659V15.7805H36.618V17.0905H37.0568L37.9802 15.7805H39.1609L37.9122 17.5158L39.2668 19.2951H38.0861L37.0416 17.9044H36.618V19.2951V19.2941Z" fill="black"/>
<path d="M39.3191 17.5368C39.3191 17.2196 39.3767 16.938 39.4929 16.6912C39.6092 16.4443 39.7613 16.2505 39.9507 16.1088C40.1397 15.967 40.3391 15.8599 40.5488 15.7869C40.7579 15.7138 40.9714 15.6771 41.1887 15.6771C41.5519 15.6771 41.8665 15.7428 42.1314 15.8746C42.396 16.0064 42.5916 16.1761 42.7182 16.384C42.8441 16.5914 42.931 16.8256 42.9793 17.0871C43.0276 17.3487 43.0131 17.6082 42.9376 17.867H40.3798C40.4353 18.1112 40.5809 18.293 40.8182 18.4128C41.0555 18.5325 41.3353 18.5919 41.6585 18.5919C42.0576 18.5919 42.4232 18.5215 42.7561 18.3798V19.178C42.3977 19.3244 41.9534 19.3975 41.4243 19.3975C40.8182 19.3975 40.3163 19.2337 39.9183 18.9075C39.5195 18.5802 39.3201 18.1239 39.3201 17.5388L39.3191 17.5371V17.5368ZM41.9903 17.2076C42.0159 17.0468 41.9679 16.8803 41.8468 16.7102C41.7258 16.5394 41.5188 16.4543 41.2256 16.4543C40.9931 16.4543 40.7948 16.5211 40.6275 16.6555C40.4609 16.7899 40.375 16.9737 40.3701 17.2086H41.9897L41.9903 17.2076Z" fill="black"/>
<path d="M45.4809 19.2941H44.4361V16.6372H43.2781V15.7805H46.6389V16.6372H45.4809V19.2941Z" fill="black"/>
<path d="M49.9386 19.2941H48.8865V15.7805H49.9386V17.1125H51.4066V15.7805H52.4587V19.2941H51.4066V17.9621H49.9386V19.2941Z" fill="black"/>
<path d="M53.1479 17.5368C53.1479 17.2196 53.2056 16.938 53.3218 16.6912C53.438 16.4443 53.5902 16.2505 53.7795 16.1088C53.9686 15.967 54.1679 15.8599 54.3777 15.7869C54.5867 15.7138 54.8002 15.6771 55.0179 15.6771C55.3808 15.6771 55.6954 15.7428 55.9603 15.8746C56.2249 16.0064 56.4204 16.1761 56.547 16.384C56.6729 16.5914 56.7599 16.8256 56.8082 17.0871C56.8564 17.3487 56.8423 17.6082 56.7664 17.867H54.2087C54.2642 18.1112 54.4098 18.293 54.6471 18.4128C54.8844 18.5325 55.1641 18.5919 55.4874 18.5919C55.8865 18.5919 56.2521 18.5215 56.585 18.3798V19.178C56.2266 19.3244 55.7826 19.3975 55.2531 19.3975C54.6471 19.3975 54.1452 19.2337 53.7471 18.9075C53.3484 18.5802 53.149 18.1239 53.149 17.5388L53.1479 17.5371V17.5368ZM55.8192 17.2076C55.8447 17.0468 55.7968 16.8803 55.6757 16.7102C55.5546 16.5394 55.3477 16.4543 55.0545 16.4543C54.822 16.4543 54.6236 16.5211 54.4563 16.6555C54.2897 16.7899 54.2038 16.9737 54.199 17.2086H55.8185L55.8192 17.2076Z" fill="black"/>
<path d="M58.1127 20.2238H57.1438V18.5179H57.6505C58.0286 17.8834 58.2055 16.9711 58.18 15.7795H61.17V18.5179H61.7153V20.2238H60.7464V19.2941H58.1127V20.2238ZM59.1497 16.5558C59.1196 17.3567 58.9834 18.0105 58.7412 18.5179H60.1262V16.5558H59.1497Z" fill="black"/>
<path d="M64.5914 19.2941H62.3662V15.7805H64.5311C64.9347 15.7805 65.2351 15.8703 65.4317 16.0474C65.6283 16.2259 65.7267 16.446 65.7267 16.7102C65.7267 17.1105 65.5397 17.3784 65.1661 17.5158C65.5956 17.6529 65.8101 17.9281 65.8101 18.3431C65.8101 18.6209 65.7146 18.8494 65.5228 19.0279C65.3307 19.206 65.0206 19.2948 64.5914 19.2948V19.2938V19.2941ZM63.4107 16.4754V17.2222H64.2134C64.5159 17.2222 64.667 17.1005 64.667 16.8566C64.667 16.6128 64.5131 16.4764 64.2058 16.4764H63.4107V16.4754ZM63.4183 17.8367V18.5982H64.2813C64.6049 18.5982 64.7653 18.4738 64.7653 18.2253C64.7653 17.9768 64.6039 17.8377 64.2813 17.8377H63.4183V17.8367Z" fill="black"/>
<path d="M67.438 19.2941H66.5222V15.7805H67.5743V17.757L69.1935 15.7805H70.102V19.2941H69.0572V17.3173L67.437 19.2941H67.438Z" fill="black"/>
<path d="M76.4903 19.2941H75.3624L74.4617 17.9838H74.0533V19.2941H73.0012V17.9838H72.5928L71.6918 19.2941H70.5642L71.8205 17.5295L70.6701 15.7795H71.7901L72.6608 17.1775H73.0012V15.7795H74.0533V17.1775H74.3934L75.2641 15.7795H76.3844L75.2341 17.5295L76.4903 19.2941Z" fill="black"/>
<path d="M77.8675 19.2941H76.9517V15.7805H78.0037V17.757L79.6229 15.7805H80.5315V19.2941H79.4867V17.3173L77.8665 19.2941H77.8675Z" fill="black"/>
<path d="M82.4465 19.2941H81.4248V15.7805H82.4313L83.5593 17.5231L84.6945 15.7805H85.6938V19.2941H84.6794V17.2226L83.8239 18.5325H83.302L82.4465 17.2226V19.2941Z" fill="black"/>
<path d="M86.9649 18.9065C86.5765 18.5792 86.3816 18.1229 86.3816 17.5378C86.3816 16.9527 86.5754 16.4954 86.9649 16.1691C87.3533 15.8419 87.8279 15.6791 88.3874 15.6791C88.9469 15.6791 89.4285 15.8429 89.8141 16.1691C90.1998 16.4964 90.3936 16.9527 90.3936 17.5378C90.3936 18.1229 90.2008 18.5799 89.8141 18.9065C89.4285 19.2337 88.9518 19.3965 88.3874 19.3965C87.8231 19.3965 87.3533 19.2327 86.9649 18.9065ZM89.0766 18.2216C89.2433 18.0435 89.3264 17.8157 89.3264 17.5368C89.3264 17.2579 89.2433 17.0304 89.0766 16.852C88.9104 16.6738 88.6806 16.5851 88.3874 16.5851C88.0942 16.5851 87.8666 16.6738 87.7024 16.852C87.5378 17.0304 87.4564 17.2579 87.4564 17.5368C87.4564 17.8157 87.5389 18.0432 87.7024 18.2216C87.8659 18.3998 88.0946 18.4885 88.3874 18.4885C88.6803 18.4885 88.9093 18.3998 89.0766 18.2216Z" fill="black"/>
<path d="M90.8784 17.5882C90.8784 17.2663 90.9381 16.9784 91.0561 16.7242C91.1744 16.47 91.332 16.2689 91.5286 16.1198C91.7253 15.9707 91.9429 15.8582 92.1802 15.7832C92.4172 15.7075 92.667 15.6698 92.9298 15.6698C93.3486 15.6698 93.7218 15.7548 94.0498 15.9256V16.8189C93.7673 16.6435 93.4438 16.5558 93.0809 16.5558C92.7632 16.5558 92.4959 16.6361 92.2785 16.7969C92.0609 16.9577 91.9533 17.2046 91.9533 17.5365C91.9533 17.8684 92.0619 18.0959 92.2785 18.265C92.4948 18.4331 92.7577 18.5172 93.0657 18.5172C93.4545 18.5172 93.7946 18.4321 94.0878 18.2613V19.162C93.7097 19.3184 93.3003 19.3962 92.8615 19.3962C92.3161 19.3962 91.8501 19.2417 91.4617 18.9318C91.0733 18.6219 90.8784 18.1739 90.8784 17.5888V17.5878V17.5882Z" fill="black"/>
<path d="M96.691 19.2941H95.6465V16.6372H94.4885V15.7805H97.849V16.6372H96.691V19.2941Z" fill="black"/>
<path d="M99.3332 19.2941H98.417V15.7805H99.4691V17.757L101.089 15.7805H101.997V19.2941H100.952V17.3173L99.3321 19.2941H99.3332Z" fill="black"/>
</g>
<defs>
<clipPath id="clip0_169_1748">
<rect width="102" height="21" fill="white"/>
</clipPath>
</defs>
</svg>
