<svg width="590" height="176" viewBox="0 0 590 176" fill="none" xmlns="http://www.w3.org/2000/svg">
<path d="M179.154 139.764V140.625H174.544V152.815H173.611V140.625H169.002V139.764H179.154Z" fill="white"/>
<path d="M179.154 139.764V140.625H174.544V152.815H173.611V140.625H169.002V139.764H179.154Z" fill="white"/>
<path d="M190.755 139.764L185.853 147.914H188.925V148.619H185.597V152.815H184.664V148.619H181.298V147.914H184.408L179.506 139.764H180.53L185.157 147.445L189.786 139.764H190.755Z" fill="white"/>
<path d="M190.755 139.764L185.853 147.914H188.925V148.619H185.597V152.815H184.664V148.619H181.298V147.914H184.408L179.506 139.764H180.53L185.157 147.445L189.786 139.764H190.755Z" fill="white"/>
<path d="M197.56 139.764C200.779 139.764 202.718 141.405 202.718 144.162C202.718 146.908 200.779 148.544 197.56 148.544H193.902V152.815H192.969V139.764H197.56ZM197.56 147.688C200.304 147.688 201.767 146.399 201.767 144.162C201.767 141.908 200.304 140.625 197.56 140.625H193.902V147.688H197.56Z" fill="white"/>
<path d="M197.56 139.764C200.779 139.764 202.718 141.405 202.718 144.162C202.718 146.908 200.779 148.544 197.56 148.544H193.902V152.815H192.969V139.764H197.56ZM197.56 147.688C200.304 147.688 201.767 146.399 201.767 144.162C201.767 141.908 200.304 140.625 197.56 140.625H193.902V147.688H197.56Z" fill="white"/>
<path d="M214.206 140.625H207.219V146.347H212.852V147.11H207.219V152.815H206.286V147.11H204.31V146.347H206.286V139.764H214.206V140.625Z" fill="white"/>
<path d="M214.206 140.625H207.219V146.347H212.852V147.11H207.219V152.815H206.286V147.11H204.31V146.347H206.286V139.764H214.206V140.625Z" fill="white"/>
<path d="M221.991 144.538C225.008 144.538 226.618 145.919 226.618 148.601C226.618 151.358 224.898 152.815 221.752 152.815H216.85V139.764H217.783V144.538H221.991ZM228.977 152.815V139.764H229.91V152.815H228.977ZM221.771 152.012C224.331 152.012 225.667 150.856 225.667 148.619C225.667 146.399 224.35 145.341 221.771 145.341H217.783V152.012H221.771Z" fill="white"/>
<path d="M221.991 144.538C225.008 144.538 226.618 145.919 226.618 148.601C226.618 151.358 224.898 152.815 221.752 152.815H216.85V139.764H217.783V144.538H221.991ZM228.977 152.815V139.764H229.91V152.815H228.977ZM221.771 152.012C224.331 152.012 225.667 150.856 225.667 148.619C225.667 146.399 224.35 145.341 221.771 145.341H217.783V152.012H221.771Z" fill="white"/>
<path d="M244.009 139.764H244.942V152.815H244.009V146.607H235.449V152.815H234.516V139.764H235.449V145.769H244.009V139.764Z" fill="white"/>
<path d="M244.009 139.764H244.942V152.815H244.009V146.607H235.449V152.815H234.516V139.764H235.449V145.769H244.009V139.764Z" fill="white"/>
<path d="M263.418 139.764L258.259 148.324V152.815H257.327V148.324L252.169 139.764H253.193L257.82 147.445L262.448 139.764H263.418Z" fill="white"/>
<path d="M263.418 139.764L258.259 148.324V152.815H257.327V148.324L252.169 139.764H253.193L257.82 147.445L262.448 139.764H263.418Z" fill="white"/>
<path d="M270.826 138.781C269.144 138.781 268.01 137.937 267.973 136.504H268.723C268.759 137.55 269.601 138.18 270.826 138.18C272.034 138.18 272.875 137.55 272.912 136.504H273.661C273.625 137.937 272.491 138.781 270.826 138.781ZM265.632 152.815V139.764H266.565V151.208L275.289 139.764H276.112V152.815H275.179V141.388L266.455 152.815H265.632Z" fill="white"/>
<path d="M270.826 138.781C269.144 138.781 268.01 137.937 267.973 136.504H268.723C268.759 137.55 269.601 138.18 270.826 138.18C272.034 138.18 272.875 137.55 272.912 136.504H273.661C273.625 137.937 272.491 138.781 270.826 138.781ZM265.632 152.815V139.764H266.565V151.208L275.289 139.764H276.112V152.815H275.179V141.388L266.455 152.815H265.632Z" fill="white"/>
<path d="M294.312 152.815L289.429 146.625H286.356V152.815H285.423V139.764H286.356V145.769H289.447L294.038 139.764H295.08L290.178 146.122L295.41 152.815H294.312Z" fill="white"/>
<path d="M294.312 152.815L289.429 146.625H286.356V152.815H285.423V139.764H286.356V145.769H289.447L294.038 139.764H295.08L290.178 146.122L295.41 152.815H294.312Z" fill="white"/>
<path d="M298.627 151.954H306.528V152.815H297.694V139.764H306.254V140.625H298.627V145.769H305.449V146.607H298.627V151.954Z" fill="white"/>
<path d="M298.627 151.954H306.528V152.815H297.694V139.764H306.254V140.625H298.627V145.769H305.449V146.607H298.627V151.954Z" fill="white"/>
<path d="M324.094 139.764H325.026V152.815H309.644V139.764H310.577V151.954H316.869V139.764H317.802V151.954H324.094V139.764Z" fill="white"/>
<path d="M324.094 139.764H325.026V152.815H309.644V139.764H310.577V151.954H316.869V139.764H317.802V151.954H324.094V139.764Z" fill="white"/>
<path d="M330.564 151.954H338.466V152.815H329.631V139.764H338.192V140.625H330.564V145.769H337.387V146.607H330.564V151.954Z" fill="white"/>
<path d="M330.564 151.954H338.466V152.815H329.631V139.764H338.192V140.625H330.564V145.769H337.387V146.607H330.564V151.954Z" fill="white"/>
<path d="M351.074 139.764H352.007V152.815H351.074V146.607H342.514V152.815H341.581V139.764H342.514V145.769H351.074V139.764Z" fill="white"/>
<path d="M351.074 139.764H352.007V152.815H351.074V146.607H342.514V152.815H341.581V139.764H342.514V145.769H351.074V139.764Z" fill="white"/>
<path d="M356.621 152.815V139.764H357.553V152.815H356.621Z" fill="white"/>
<path d="M356.621 152.815V139.764H357.553V152.815H356.621Z" fill="white"/>
<path d="M392.484 152.815L388.259 146.625H385.443V152.815H384.528V146.625H381.711L377.486 152.815H376.37L380.943 146.104L376.718 139.764H377.778L381.693 145.769H384.528V139.764H385.443V145.769H388.259L392.191 139.764H393.234L389.027 146.104L393.6 152.815H392.484Z" fill="white"/>
<path d="M392.484 152.815L388.259 146.625H385.443V152.815H384.528V146.625H381.711L377.486 152.815H376.37L380.943 146.104L376.718 139.764H377.778L381.693 145.769H384.528V139.764H385.443V145.769H388.259L392.191 139.764H393.234L389.027 146.104L393.6 152.815H392.484Z" fill="white"/>
<path d="M395.953 152.815V139.764H396.886V151.208L405.611 139.764H406.434V152.815H405.501V141.388L396.776 152.815H395.953Z" fill="white"/>
<path d="M395.953 152.815V139.764H396.886V151.208L405.611 139.764H406.434V152.815H405.501V141.388L396.776 152.815H395.953Z" fill="white"/>
<path d="M412.095 139.764H420.491V152.815H419.558V140.625H412.936L412.772 145.417C412.571 150.671 411.747 152.925 409.589 152.925C409.297 152.925 409.022 152.907 408.675 152.815L408.785 151.936C409.022 151.994 409.187 152.012 409.388 152.012C411.053 152.012 411.73 150.127 411.912 145.434L412.095 139.764Z" fill="white"/>
<path d="M412.095 139.764H420.491V152.815H419.558V140.625H412.936L412.772 145.417C412.571 150.671 411.747 152.925 409.589 152.925C409.297 152.925 409.022 152.907 408.675 152.815L408.785 151.936C409.022 151.994 409.187 152.012 409.388 152.012C411.053 152.012 411.73 150.127 411.912 145.434L412.095 139.764Z" fill="white"/>
<path d="M430.591 152.907C426.769 152.907 423.934 150.075 423.934 146.289C423.934 142.503 426.769 139.671 430.591 139.671C434.396 139.671 437.249 142.486 437.249 146.289C437.249 150.093 434.396 152.907 430.591 152.907ZM430.591 152.029C433.847 152.029 436.299 149.59 436.299 146.289C436.299 142.989 433.847 140.55 430.591 140.55C427.318 140.55 424.867 142.989 424.867 146.289C424.867 149.59 427.318 152.029 430.591 152.029Z" fill="white"/>
<path d="M430.591 152.907C426.769 152.907 423.934 150.075 423.934 146.289C423.934 142.503 426.769 139.671 430.591 139.671C434.396 139.671 437.249 142.486 437.249 146.289C437.249 150.093 434.396 152.907 430.591 152.907ZM430.591 152.029C433.847 152.029 436.299 149.59 436.299 146.289C436.299 142.989 433.847 140.55 430.591 140.55C427.318 140.55 424.867 142.989 424.867 146.289C424.867 149.59 427.318 152.029 430.591 152.029Z" fill="white"/>
<path d="M445.893 138.781C444.21 138.781 443.076 137.937 443.039 136.504H443.789C443.826 137.55 444.667 138.18 445.893 138.18C447.1 138.18 447.941 137.55 447.978 136.504H448.728C448.691 137.937 447.557 138.781 445.893 138.781ZM440.698 152.815V139.764H441.631V151.208L450.356 139.764H451.179V152.815H450.246V141.388L441.521 152.815H440.698Z" fill="white"/>
<path d="M445.893 138.781C444.21 138.781 443.076 137.937 443.039 136.504H443.789C443.826 137.55 444.667 138.18 445.893 138.18C447.1 138.18 447.941 137.55 447.978 136.504H448.728C448.691 137.937 447.557 138.781 445.893 138.781ZM440.698 152.815V139.764H441.631V151.208L450.356 139.764H451.179V152.815H450.246V141.388L441.521 152.815H440.698Z" fill="white"/>
<path d="M469.378 152.815L464.494 146.625H461.422V152.815H460.489V139.764H461.422V145.769H464.513L469.104 139.764H470.147L465.245 146.122L470.476 152.815H469.378Z" fill="white"/>
<path d="M469.378 152.815L464.494 146.625H461.422V152.815H460.489V139.764H461.422V145.769H464.513L469.104 139.764H470.147L465.245 146.122L470.476 152.815H469.378Z" fill="white"/>
<path d="M478.23 152.907C474.407 152.907 471.572 150.075 471.572 146.289C471.572 142.503 474.407 139.671 478.23 139.671C482.034 139.671 484.888 142.486 484.888 146.289C484.888 150.093 482.034 152.907 478.23 152.907ZM478.23 152.029C481.485 152.029 483.936 149.59 483.936 146.289C483.936 142.989 481.485 140.55 478.23 140.55C474.956 140.55 472.504 142.989 472.504 146.289C472.504 149.59 474.956 152.029 478.23 152.029Z" fill="white"/>
<path d="M478.23 152.907C474.407 152.907 471.572 150.075 471.572 146.289C471.572 142.503 474.407 139.671 478.23 139.671C482.034 139.671 484.888 142.486 484.888 146.289C484.888 150.093 482.034 152.907 478.23 152.907ZM478.23 152.029C481.485 152.029 483.936 149.59 483.936 146.289C483.936 142.989 481.485 140.55 478.23 140.55C474.956 140.55 472.504 142.989 472.504 146.289C472.504 149.59 474.956 152.029 478.23 152.029Z" fill="white"/>
<path d="M501.359 152.815H500.444L500.426 141.648L495.067 151.081H494.609L489.25 141.688V152.815H488.336V139.764H489.122L494.848 149.85L500.573 139.764H501.341L501.359 152.815Z" fill="white"/>
<path d="M501.359 152.815H500.444L500.426 141.648L495.067 151.081H494.609L489.25 141.688V152.815H488.336V139.764H489.122L494.848 149.85L500.573 139.764H501.341L501.359 152.815Z" fill="white"/>
<path d="M505.966 139.764H516.501V152.815H515.57V140.625H506.898V152.815H505.966V139.764Z" fill="white"/>
<path d="M505.966 139.764H516.501V152.815H515.57V140.625H506.898V152.815H505.966V139.764Z" fill="white"/>
<path d="M522.159 139.764H530.558V152.815H529.621V140.625H523.003L522.836 145.417C522.639 150.671 521.812 152.925 519.656 152.925C519.362 152.925 519.09 152.907 518.743 152.815L518.853 151.936C519.09 151.994 519.252 152.012 519.454 152.012C521.119 152.012 521.795 150.127 521.98 145.434L522.159 139.764Z" fill="white"/>
<path d="M522.159 139.764H530.558V152.815H529.621V140.625H523.003L522.836 145.417C522.639 150.671 521.812 152.925 519.656 152.925C519.362 152.925 519.09 152.907 518.743 152.815L518.853 151.936C519.09 151.994 519.252 152.012 519.454 152.012C521.119 152.012 521.795 150.127 521.98 145.434L522.159 139.764Z" fill="white"/>
<path d="M536.101 151.954H544.002V152.815H535.17V139.764H543.73V140.625H536.101V145.769H542.927V146.607H536.101V151.954Z" fill="white"/>
<path d="M536.101 151.954H544.002V152.815H535.17V139.764H543.73V140.625H536.101V145.769H542.927V146.607H536.101V151.954Z" fill="white"/>
<path d="M556.007 152.815L551.123 146.625H548.054V152.815H547.117V139.764H548.054V145.769H551.146L555.735 139.764H556.776L551.874 146.122L557.105 152.815H556.007Z" fill="white"/>
<path d="M556.007 152.815L551.123 146.625H548.054V152.815H547.117V139.764H548.054V145.769H551.146L555.735 139.764H556.776L551.874 146.122L557.105 152.815H556.007Z" fill="white"/>
<path d="M564.862 152.907C561.059 152.907 558.221 150.093 558.221 146.289C558.221 142.486 561.059 139.671 564.862 139.671C566.671 139.671 568.301 140.272 569.417 141.48L568.827 142.099C567.735 140.995 566.399 140.55 564.897 140.55C561.625 140.55 559.151 143.012 559.151 146.289C559.151 149.572 561.625 152.029 564.897 152.029C566.399 152.029 567.735 151.566 568.827 150.462L569.417 151.081C568.301 152.289 566.671 152.907 564.862 152.907Z" fill="white"/>
<path d="M564.862 152.907C561.059 152.907 558.221 150.093 558.221 146.289C558.221 142.486 561.059 139.671 564.862 139.671C566.671 139.671 568.301 140.272 569.417 141.48L568.827 142.099C567.735 140.995 566.399 140.55 564.897 140.55C561.625 140.55 559.151 143.012 559.151 146.289C559.151 149.572 561.625 152.029 564.897 152.029C566.399 152.029 567.735 151.566 568.827 150.462L569.417 151.081C568.301 152.289 566.671 152.907 564.862 152.907Z" fill="white"/>
<path d="M366.889 156.242V136.654H367.822V156.242H366.889Z" fill="white"/>
<path d="M366.889 156.242V136.654H367.822V156.242H366.889Z" fill="white"/>
<path d="M176.589 125.736C169.859 125.736 164.149 124.481 159.458 121.961C154.836 119.378 150.859 116.187 147.528 112.378L160.172 102.384C162.076 105.65 164.421 108.164 167.208 109.933C169.995 111.632 173.088 112.482 176.487 112.482C178.323 112.482 179.92 112.21 181.28 111.667C182.707 111.118 183.897 110.407 184.848 109.523C185.868 108.569 186.616 107.482 187.092 106.263C187.568 105.038 187.806 103.777 187.806 102.489C187.806 100.922 187.364 99.5985 186.48 98.5119C185.596 97.4253 184.441 96.5062 183.013 95.7548C181.585 94.9398 179.92 94.2289 178.017 93.6162C176.181 93.0035 174.278 92.3909 172.306 91.7782C169.791 90.9632 167.276 90.0789 164.761 89.1309C162.246 88.1778 159.968 86.9201 157.929 85.3566C155.958 83.7255 154.326 81.754 153.035 79.4425C151.811 77.0635 151.199 74.1064 151.199 70.5714C151.199 67.5802 151.811 64.7931 153.035 62.21C154.258 59.6269 155.958 57.3837 158.133 55.4798C160.376 53.5088 162.993 51.9794 165.985 50.8916C168.975 49.8038 172.273 49.2599 175.875 49.2599C178.867 49.2599 181.551 49.5322 183.931 50.0755C186.378 50.6194 188.587 51.3673 190.559 52.3193C192.598 53.2707 194.434 54.4267 196.065 55.7861C197.764 57.0774 199.362 58.505 200.858 60.0685L189.437 68.7362C186.242 63.9776 181.755 61.5979 175.977 61.5979C172.578 61.5979 169.995 62.414 168.228 64.0452C166.46 65.6768 165.577 67.6825 165.577 70.0616C165.577 71.5568 165.985 72.8146 166.8 73.8342C167.616 74.8538 168.704 75.7716 170.063 76.5878C171.491 77.3351 173.122 78.0149 174.958 78.627C176.793 79.2385 178.731 79.8847 180.77 80.5644C183.285 81.38 185.8 82.3319 188.316 83.4192C190.899 84.4393 193.21 85.7988 195.249 87.4981C197.357 89.131 199.056 91.1713 200.348 93.6162C201.639 96.0612 202.285 99.0552 202.285 102.587C202.285 105.511 201.707 108.367 200.552 111.153C199.396 113.944 197.731 116.424 195.555 118.597C193.38 120.707 190.695 122.441 187.5 123.799C184.305 125.088 180.668 125.736 176.589 125.736ZM251.381 94.0266H222.829V124.718H208.962V50.2795H222.829V80.7685H251.381V50.2795H265.248V124.718H251.381V94.0266ZM297.546 50.2795H311.516L338.028 124.718H323.548L318.959 111.459H290.102L285.514 124.718H271.034L297.546 50.2795ZM294.793 98.2055H314.371L304.582 69.9599L294.793 98.2055ZM343.791 50.2795H357.659V111.459H384.884V124.718H343.791V50.2795ZM418.395 88.1102H435.016L444.397 100.344C445.553 98.4425 446.471 96.4369 447.15 94.3272C447.83 92.1539 448.17 89.8766 448.17 87.4981C448.17 84.0995 447.524 80.9043 446.233 77.9131C445.009 74.922 443.276 72.3389 441.032 70.1633C438.857 67.9201 436.274 66.1526 433.283 64.8613C430.36 63.5695 427.199 62.9238 423.799 62.9238C420.401 62.9238 417.205 63.5695 414.214 64.8613C411.291 66.1526 408.742 67.9201 406.567 70.1633C404.392 72.3389 402.658 74.922 401.366 77.9131C400.143 80.9043 399.531 84.0995 399.531 87.4981C399.531 90.8996 400.143 94.0902 401.366 97.0842C402.658 100.072 404.392 102.691 406.567 104.933C408.742 107.112 411.291 108.841 414.214 110.135C417.205 111.424 420.401 112.072 423.799 112.072C426.247 112.072 428.66 111.696 431.039 110.95L439.706 122.268C434.676 124.58 429.374 125.736 423.799 125.736C418.497 125.736 413.535 124.753 408.912 122.776C404.289 120.742 400.245 118.019 396.778 114.621C393.379 111.153 390.694 107.113 388.722 102.489C386.751 97.7952 385.765 92.8013 385.765 87.4981C385.765 82.1955 386.751 77.2334 388.722 72.6106C390.694 67.9883 393.379 63.9435 396.778 60.4766C400.245 57.0098 404.289 54.2903 408.912 52.3193C413.535 50.2795 418.497 49.2599 423.799 49.2599C429.102 49.2599 434.065 50.2795 438.687 52.3193C443.31 54.2903 447.354 57.0098 450.821 60.4766C454.288 63.9435 457.007 67.9883 458.979 72.6106C460.95 77.2334 461.936 82.1955 461.936 87.4981C461.936 92.1886 461.154 96.5756 459.59 100.65C458.095 104.731 456.022 108.436 453.37 111.765L463.363 124.718H446.437L418.395 88.1102ZM489.533 50.2795H503.503L530.014 124.718H515.535L510.947 111.459H482.089L477.501 124.718H463.022L489.533 50.2795ZM486.78 98.2055H506.358L496.569 69.9599L486.78 98.2055ZM535.777 124.718V50.2795H559.637C564.058 50.2795 567.966 50.9257 571.364 52.217C574.832 53.4406 577.757 55.2081 580.133 57.5196C582.514 59.7628 584.317 62.4817 585.537 65.6769C586.832 68.8038 587.479 72.3048 587.479 76.1797C587.479 80.6661 586.387 84.8809 584.213 88.8246C582.104 92.6972 579.011 95.7259 574.936 97.8992L589.82 124.718H574.017L562.088 101.98H549.649V124.718H535.777ZM558.417 89.2292C561.273 89.2292 563.648 88.894 565.556 88.2119C567.527 87.464 569.087 86.4785 570.243 85.2549C571.468 83.963 572.318 82.5019 572.792 80.8702C573.335 79.2385 573.607 77.5051 573.607 75.6699C573.607 71.8632 572.388 68.8379 569.937 66.5947C567.561 64.3515 563.717 63.2296 558.417 63.2296H549.649V89.2292H558.417Z" fill="white"/>
<path fill-rule="evenodd" clip-rule="evenodd" d="M58.0979 0C90.1841 0 116.196 26.0113 116.196 58.0979V117.09C116.196 149.177 90.1841 175.188 58.0979 175.188C26.0113 175.188 0 149.177 0 117.09V58.0979C0 26.0113 26.0113 0 58.0979 0ZM60.7504 15.238C65.9246 12.5705 65.9928 10.604 60.8695 11.7976C45.0909 15.4736 32.0929 29.2763 28.7526 45.9035C24.8364 65.3948 31.5025 80.3511 49.3128 92.0344C51.3344 93.3599 54.4353 95.4055 56.204 96.58C76.2308 109.876 80.3058 130.243 66.747 149.277C64.1368 152.941 58.785 157.169 53.2983 159.899C49.9059 161.587 49.7253 161.766 50.2221 162.956C50.6222 163.914 51.3426 163.976 53.9408 163.278C77.9961 156.812 92.535 129.914 84.6891 106.392C81.3109 96.2638 76.3667 90.5373 63.5774 81.9411C56.452 77.1516 56.2453 77.0044 53.4362 74.7183C32.74 57.8757 36.4422 27.7688 60.7504 15.238ZM17.7792 41.029C15.0499 41.0136 11.3091 58.4924 11.7583 69.163C12.6874 91.2406 21.74 106.419 42.4111 120.556C50.1734 125.865 52.422 131.803 49.2184 138.531C43.9314 149.633 28.4484 149.485 20.8644 138.26C19.6633 136.482 18.5772 136.165 17.7796 137.359C16.6467 139.056 22.2724 146.746 26.9884 149.949C31.6557 153.117 36.9416 154.201 43.1 153.251C67.6955 149.458 73.7888 121.738 52.848 108.904C51.4176 108.027 47.4875 105.443 44.2221 103.231C25.8229 90.7708 19.1298 76.7481 19.1051 50.6072C19.0961 40.6379 19.1512 41.0369 17.7792 41.029ZM96.0578 32.9629C89.8993 23.6994 78.9196 20.2886 67.5517 24.1077C47.5613 30.8236 44.6151 55.2475 62.4295 66.5761C79.4714 77.4127 85.28 82.6312 89.9106 91.2638C95.6329 101.932 97.8489 114.676 96.8254 131.028C96.5845 134.879 97.3908 136.107 99.1861 134.623C100.189 133.794 102.728 125.511 103.569 120.325C107.483 96.181 98.5683 73.7603 79.3927 59.523C75.1503 56.373 74.4306 55.8612 73.2546 55.1595C60.3592 47.4677 64.4935 30.3216 79.4565 29.4386C85.6576 29.0725 91.4339 32.0675 95.3628 37.686C98.6301 42.3575 99.2951 37.8329 96.0578 32.9629Z" fill="white"/>
</svg>
