<svg width="7" height="5" viewBox="0 0 7 5" fill="none" xmlns="http://www.w3.org/2000/svg">
<path fill-rule="evenodd" clip-rule="evenodd" d="M0.58323 0C0.467871 3.05176e-05 0.35511 0.0419397 0.259201 0.120431C0.163291 0.198922 0.088541 0.310471 0.0443983 0.440975C0.000256062 0.571479 -0.0112963 0.715078 0.0112023 0.85362C0.0337009 0.992162 0.0892391 1.11943 0.170798 1.21932L3.08757 4.79086C3.19696 4.92477 3.34532 5 3.5 5C3.65468 5 3.80304 4.92477 3.91243 4.79086L6.8292 1.21932C6.91076 1.11943 6.9663 0.992162 6.9888 0.85362C7.0113 0.715078 6.99974 0.571479 6.9556 0.440975C6.91146 0.310471 6.83671 0.198922 6.7408 0.120431C6.64489 0.0419397 6.53213 3.05176e-05 6.41677 0H0.58323Z" fill="#ADADAD"/>
</svg>
