<svg width="167" height="118" viewBox="0 0 167 118" fill="none" xmlns="http://www.w3.org/2000/svg">
<path fill-rule="evenodd" clip-rule="evenodd" d="M12.197 0.310016C12.6617 0.224517 13.4015 0.14053 14.5092 0.0475279C15.2275 -0.0127868 17.8333 -0.0148243 18.6712 0.044269C20.1646 0.149602 21.0306 0.228994 21.6192 0.31461C21.9531 0.363176 22.4083 0.426983 22.6308 0.456414C22.8534 0.485844 23.1525 0.537607 23.2956 0.571457C23.4387 0.605308 23.8028 0.683131 24.1049 0.744376C25.7779 1.08358 26.9093 1.40563 28.5559 2.01151C29.5692 2.38439 31.1405 3.09572 31.6629 3.41812L31.8508 3.53409V15.5833L31.7208 15.542C31.6492 15.5192 31.5102 15.4389 31.4118 15.3635C31.3135 15.2881 31.2047 15.2265 31.1703 15.2265C31.1358 15.2265 31.0722 15.1938 31.029 15.1538C30.9858 15.1138 30.8993 15.0525 30.837 15.0176C30.7747 14.9827 30.5675 14.8662 30.3768 14.7587C29.9356 14.5102 28.4177 13.758 28.1513 13.6559C28.04 13.6133 27.9229 13.5592 27.8911 13.5357C27.8063 13.4729 26.8834 13.1196 26.1859 12.8828C23.7075 12.0415 21.6929 11.6819 18.9313 11.5878C16.5663 11.5073 15.2011 11.7783 14.5854 12.4504C14.0951 12.9856 14.0971 13.8101 14.59 14.3451C14.749 14.5178 15.2558 14.9004 15.5786 15.0913C16.2854 15.5095 17.4089 15.9375 19.2203 16.4786C19.5065 16.5641 19.8966 16.6814 20.0874 16.7392C20.2782 16.7971 20.6683 16.9119 20.9545 16.9943C21.2406 17.0768 21.7088 17.2121 21.995 17.295C23.0222 17.5927 24.9001 18.2597 25.6078 18.5785C27.2333 19.3105 28.1046 19.7705 29.1918 20.4707C30.3401 21.2102 31.3179 22.0451 32.0072 22.8749C32.3533 23.2913 33.0647 24.3527 33.0647 24.4524C33.0647 24.4911 33.0873 24.5315 33.1148 24.5422C33.2071 24.5779 33.7457 25.787 33.9811 26.4868C34.5059 28.0468 34.6962 29.7125 34.5735 31.6723C34.4936 32.9499 34.3616 33.783 34.0517 34.966C33.6725 36.4136 32.8341 38.0668 31.9395 39.131C31.6728 39.4482 30.6332 40.4785 30.3839 40.6727C29.9524 41.0088 29.2714 41.4878 29.1023 41.5741C29.0084 41.6221 28.9186 41.678 28.9027 41.6984C28.818 41.8071 27.0036 42.6793 26.862 42.6793C26.8208 42.6793 26.7624 42.702 26.7321 42.7298C26.6257 42.8278 25.1554 43.2839 24.1666 43.5257C23.962 43.5758 23.8393 43.6042 23.8381 43.6374C23.8362 43.6853 24.0879 43.7431 24.7118 43.8901C25.4387 44.0613 26.2387 44.2752 26.4171 44.346C26.4648 44.365 26.7769 44.4792 27.1108 44.5999C27.9599 44.9069 28.2404 45.0301 29.1629 45.5017C30.2903 46.078 31.4154 46.8074 32.1656 47.4485C32.686 47.8932 32.9063 48.0974 33.3249 48.5229C34.721 49.9426 35.6958 51.3226 36.613 53.1777C37.0006 53.9616 37.4579 55.054 37.4579 55.196C37.4579 55.2407 37.4813 55.3022 37.5099 55.3326C37.5678 55.3942 37.7188 55.9008 38.0028 56.9873C38.2781 58.0403 38.3273 58.2641 38.448 59.0156C38.7249 60.7401 38.7519 61.1592 38.7513 63.7342C38.7508 66.2623 38.7269 66.6544 38.4735 68.3C38.2993 69.4305 37.7711 71.5471 37.5155 72.1387C37.4878 72.2027 37.4475 72.3205 37.4259 72.4004C37.3133 72.8175 36.6155 74.3379 36.1314 75.2213C35.8855 75.6702 35.1979 76.7277 35.1357 76.7529C35.1094 76.7636 35.0879 76.7959 35.0879 76.8248C35.0879 76.8905 34.5827 77.5506 34.1304 78.0756C32.648 79.7967 30.911 81.125 28.803 82.1493C28.3826 82.3536 28.0168 82.5207 27.9902 82.5207C27.9635 82.5207 27.8393 82.5702 27.7141 82.6307C27.2234 82.8677 24.985 83.569 24.7225 83.5681C24.6648 83.5679 24.571 83.5927 24.5141 83.6233C24.3745 83.6985 23.279 83.8972 22.2551 84.0329C21.7941 84.094 21.2088 84.1771 20.9545 84.2175C20.5984 84.2739 18.1355 84.2951 10.246 84.3093L0 84.3278V43.0864H3.5377C5.55412 43.0864 7.05175 43.0646 7.02047 43.0357C6.9903 43.0078 6.77047 42.9382 6.53202 42.881C6.29357 42.8238 6.05946 42.7573 6.01177 42.7331C5.96408 42.7091 5.65193 42.6052 5.3181 42.5024C4.98428 42.3996 4.59409 42.2691 4.45102 42.2125C4.30795 42.1558 4.00881 42.0386 3.78626 41.952C3.56371 41.8654 3.27757 41.7472 3.1504 41.6894C3.02323 41.6316 2.7501 41.5138 2.54344 41.4275C2.16638 41.27 1.4319 40.9083 0.650312 40.495L0.231222 40.2734V33.9443C0.231222 30.3524 0.253187 27.6151 0.281975 27.6151C0.309837 27.6151 0.365042 27.6544 0.404638 27.7024C0.444235 27.7504 0.501926 27.7896 0.532852 27.7896C0.563778 27.7896 0.670602 27.8486 0.770259 27.9205C0.869857 27.9924 0.99674 28.0775 1.05223 28.1095C1.10767 28.1415 1.36831 28.2985 1.63144 28.4584C1.89463 28.6183 2.18794 28.7901 2.28332 28.84C2.3787 28.89 2.5998 29.0108 2.77466 29.1086C3.45411 29.4884 4.39437 29.9504 5.2892 30.3443C5.44817 30.4142 5.63025 30.4952 5.69384 30.5241C5.88859 30.613 6.87405 30.9886 6.91221 30.9886C6.93198 30.9886 7.03007 31.0236 7.13025 31.0665C7.4069 31.1847 8.50463 31.5243 9.33558 31.7487C12.7732 32.6772 17.8069 32.8142 19.3359 32.021C19.8962 31.7304 20.2896 31.123 20.2897 30.5487C20.2898 29.993 19.7733 29.3411 18.9583 28.8681C18.5233 28.6156 17.7851 28.2553 17.7015 28.2546C17.6784 28.2544 17.5892 28.2173 17.5033 28.1722C17.246 28.0372 15.9894 27.6327 14.9716 27.3573C13.3675 26.9232 13.2344 26.8829 12.1681 26.5101C11.6169 26.3174 10.4622 25.8724 10.2027 25.7526C10.1391 25.7233 9.88566 25.6203 9.63952 25.5238C9.39339 25.4273 9.14627 25.3223 9.09037 25.2904C9.03447 25.2586 8.78065 25.138 8.52631 25.0224C7.01024 24.3338 4.89283 23.143 4.27795 22.6333C3.39908 21.9046 2.62662 21.0984 2.09134 20.3511C1.56381 19.6145 0.763725 18.1281 0.659848 17.6917C0.637882 17.5994 0.600425 17.4977 0.576552 17.4657C0.516954 17.3858 0.300994 16.6433 0.153648 16.0117C0.0398291 15.5238 0.0314468 15.3244 0.0302329 13.0745C0.0289611 10.811 0.0366474 10.6263 0.153299 10.1082C0.534757 8.41412 1.00246 7.31059 1.89041 6.00961C2.30442 5.40297 2.98837 4.63226 3.51931 4.17406C3.72221 3.99893 3.9173 3.82782 3.95285 3.79379C4.08829 3.66415 4.90271 3.07618 5.3181 2.80822C6.17108 2.25795 7.55841 1.5932 8.69972 1.18787C9.46611 0.915724 10.7646 0.561162 11.3799 0.456062C11.559 0.425468 11.9267 0.359745 12.197 0.310016ZM91.1014 1.69225C93.6472 0.732918 95.6965 0.304491 98.963 0.0487491C99.7759 -0.0148809 102.357 -0.0166264 103.154 0.0458985C105.674 0.243884 106.509 0.370157 108.414 0.841042C110.268 1.29925 112.062 2.00051 113.559 2.85149C114.052 3.13166 115.365 3.98276 115.662 4.2139C116.687 5.01323 118.029 6.28496 118.678 7.07219C120.066 8.75553 120.743 9.78053 121.565 11.4459C122.145 12.6193 122.513 13.5922 123.038 15.3428C123.216 15.9334 123.565 17.6861 123.641 18.3673C123.671 18.6392 123.73 19.1365 123.772 19.4724C123.822 19.8732 123.848 20.7828 123.848 22.1188C123.848 23.4548 123.822 24.3644 123.772 24.7652C123.73 25.1011 123.671 25.5984 123.641 25.8703C123.582 26.4005 123.49 26.9035 123.258 27.9641C122.752 30.2829 121.845 32.5342 120.61 34.5365C120.364 34.9364 120.146 35.2766 120.126 35.2926C120.106 35.3086 120.014 35.4395 119.921 35.5834C119.551 36.1594 118.544 37.3473 117.704 38.2008C116.808 39.1112 116.445 39.4346 115.702 39.9876C115.477 40.1547 115.267 40.3135 115.234 40.3406C115.202 40.3677 115.007 40.4983 114.801 40.6309C114.595 40.7635 114.398 40.8962 114.363 40.9258C114.264 41.0105 113.436 41.4718 112.865 41.7606C110.751 42.8296 108.462 43.5385 105.957 43.8995C104.834 44.0615 104.316 44.1249 103.775 44.1667C103.513 44.187 103.298 44.2133 103.298 44.2251C103.298 44.244 103.508 44.5846 103.992 45.3544C104.424 46.04 105.943 48.435 106.539 49.368C106.917 49.9598 107.285 50.5411 107.358 50.6597C107.43 50.7783 107.653 51.1316 107.853 51.4449C108.053 51.7581 108.248 52.0667 108.286 52.1307C108.325 52.1947 108.415 52.3303 108.486 52.4322C108.558 52.534 108.616 52.6313 108.616 52.6484C108.616 52.6655 108.768 52.9093 108.952 53.1903C109.137 53.4713 109.572 54.1526 109.92 54.7044C110.597 55.7777 111.493 57.1935 112.554 58.8686C112.916 59.4395 113.238 59.9504 113.27 60.004C113.302 60.0576 113.386 60.1835 113.458 60.2837C113.529 60.384 113.588 60.4833 113.588 60.5045C113.588 60.5256 113.653 60.6288 113.732 60.7336C113.812 60.8385 113.877 60.9545 113.877 60.9915C113.877 61.2103 114.115 60.8783 115.259 59.0631C115.676 58.401 115.77 58.2532 116.38 57.2937C116.66 56.8532 117.097 56.1658 117.35 55.7659C117.604 55.366 117.962 54.8033 118.147 54.5154C118.517 53.9394 118.995 53.1889 119.484 52.4178C119.659 52.1419 119.984 51.6316 120.206 51.2838C120.429 50.9359 120.845 50.2831 121.131 49.8331C121.417 49.383 121.816 48.7605 122.016 48.4498C122.217 48.1391 122.593 47.5446 122.852 47.1287C123.112 46.7129 123.351 46.3417 123.384 46.3039C123.417 46.2661 123.574 46.0224 123.733 45.7624C123.892 45.5024 124.204 45.0064 124.426 44.66C124.649 44.3137 124.922 43.8812 125.033 43.6991C125.145 43.5169 125.283 43.3046 125.341 43.2272L125.446 43.0864H137.288V28.8638L137.158 28.6295C136.959 28.2705 136.307 27.1318 136.245 27.0335C136.215 26.9855 136.103 26.7892 135.996 26.5973C135.803 26.2513 134.761 24.4283 134.579 24.1197C134.527 24.0314 134.248 23.545 133.958 23.0389C133.093 21.5254 132.787 20.9923 132.346 20.2285C132.115 19.8286 131.868 19.3968 131.797 19.2688C131.726 19.1408 131.491 18.7352 131.276 18.3673C131.061 17.9994 130.834 17.6068 130.772 17.4948C130.468 16.9468 130.335 16.7129 129.946 16.0408C129.714 15.6409 129.458 15.1959 129.379 15.052C129.299 14.908 129.193 14.7205 129.142 14.6351C129.092 14.5499 128.814 14.0657 128.524 13.5591C128.023 12.6849 127.626 11.9918 126.043 9.23572C124.056 5.77656 123.913 5.52698 123.73 5.19342C123.659 5.06546 123.426 4.65977 123.211 4.29189C122.996 3.92401 122.762 3.51833 122.69 3.39037C122.378 2.83271 121.492 1.29134 121.452 1.23835C121.429 1.20636 121.393 1.13436 121.373 1.0784C121.339 0.981796 121.736 0.976619 129.19 0.976619H137.043L137.119 1.16565C137.16 1.26964 137.348 1.68184 137.535 2.08171C137.723 2.48158 137.942 2.96578 138.022 3.15772C138.168 3.50897 138.253 3.69962 138.645 4.55363C138.834 4.96472 139.02 5.38262 139.372 6.18218C139.429 6.31014 139.559 6.59805 139.662 6.82197C139.839 7.2098 139.966 7.48956 140.321 8.27604C140.407 8.46798 140.554 8.78869 140.646 8.98871C140.739 9.18873 140.814 9.36299 140.814 9.3759C140.814 9.38887 140.933 9.65705 141.078 9.97195C141.502 10.8923 141.549 10.9944 141.684 11.3005C141.755 11.4604 141.871 11.7222 141.943 11.8821C142.016 12.0421 142.197 12.4478 142.346 12.7837C142.495 13.1195 142.695 13.5645 142.791 13.7724C142.942 14.1012 143.282 14.8588 143.574 15.5173C143.624 15.6293 143.753 15.9137 143.862 16.1495C143.97 16.3852 144.085 16.6466 144.117 16.7305L144.174 16.8828L144.285 16.738C144.346 16.6585 144.396 16.5721 144.397 16.5461C144.397 16.5201 144.461 16.3631 144.537 16.1971C144.613 16.0312 144.783 15.6648 144.913 15.383C145.043 15.1012 145.15 14.8596 145.15 14.8461C145.15 14.8326 145.255 14.5944 145.385 14.3168C145.514 14.0392 145.796 13.417 146.013 12.9343C147.442 9.74267 147.735 9.09072 147.961 8.60698C148.1 8.30913 148.213 8.05589 148.213 8.04414C148.213 8.03239 148.301 7.83115 148.408 7.59687C148.515 7.36259 148.661 7.04008 148.731 6.88013C148.865 6.57676 148.908 6.48061 149.329 5.5688C149.469 5.26344 149.619 4.91662 149.662 4.79814C149.705 4.67966 149.76 4.58271 149.786 4.58271C149.811 4.58271 149.832 4.54903 149.832 4.5078C149.832 4.44777 150.73 2.40731 151.277 1.22381L151.391 0.976619H159.196C166.59 0.976619 167 0.98197 167 1.0784C166.999 1.13436 166.788 1.54661 166.53 1.99447C166.272 2.44232 165.866 3.149 165.627 3.56486C165.388 3.98072 165.145 4.39949 165.085 4.49546C165.026 4.59143 164.959 4.70921 164.937 4.75719C164.915 4.80518 164.706 5.16771 164.474 5.5628C164.242 5.95796 164.052 6.29217 164.052 6.30554C164.052 6.31892 163.991 6.42751 163.916 6.54686C163.631 7.00408 162.722 8.61297 162.722 8.66142C162.722 8.6894 162.702 8.71226 162.677 8.71226C162.651 8.71226 162.591 8.79735 162.542 8.90129C162.494 9.00523 162.28 9.38817 162.068 9.75221C161.856 10.1162 161.682 10.4368 161.682 10.4647C161.682 10.4925 161.661 10.5153 161.636 10.5153C161.611 10.5153 161.551 10.6004 161.502 10.7043C161.454 10.8083 161.224 11.2205 160.992 11.6204C160.524 12.4258 159.785 13.7097 158.847 15.3428C158.507 15.9346 157.95 16.903 157.608 17.4948C157.267 18.0866 156.701 19.0681 156.352 19.6759C155.766 20.6944 154.971 22.0717 154.831 22.3097C154.799 22.3647 154.5 22.8882 154.166 23.4731C153.833 24.0581 153.519 24.6077 153.468 24.6946C153.417 24.7814 153.127 25.2843 152.824 25.8121C152.521 26.3399 152.045 27.1644 151.767 27.6442C151.489 28.1241 151.226 28.5821 151.183 28.6621C151.118 28.7826 151.104 30.0443 151.104 36.028C151.104 42.5582 151.095 43.2518 151.012 43.2838C150.962 43.3032 147.892 43.3191 144.191 43.3191H137.461V84.3238H124.224V65.6261L124.105 65.7998C124.039 65.8953 123.716 66.3922 123.386 66.9041C123.056 67.4159 122.759 67.8663 122.725 67.9049C122.691 67.9435 122.663 67.9882 122.663 68.004C122.663 68.031 122.423 68.4096 121.536 69.7831C121.34 70.087 121.058 70.5254 120.91 70.7573C120.254 71.7825 120.075 72.0615 119.668 72.6912C118.756 74.1058 118.519 74.4742 118.354 74.7393C118.26 74.8901 118.04 75.2304 117.865 75.4954L117.547 75.9774L110.437 76.0042L109.975 75.2743C109.721 74.8729 109.376 74.3357 109.209 74.0806C109.042 73.8256 108.906 73.594 108.906 73.5661C108.906 73.5381 108.885 73.5065 108.86 73.4958C108.835 73.4852 108.661 73.2278 108.473 72.9239C108.285 72.62 108.071 72.2904 107.998 72.1914C107.925 72.0924 107.865 71.9834 107.865 71.949C107.865 71.9147 107.844 71.878 107.819 71.8673C107.794 71.8566 107.555 71.4945 107.288 71.0627C107.02 70.6308 106.786 70.2644 106.767 70.2484C106.748 70.2324 106.578 69.9707 106.389 69.6668C106.2 69.3629 105.89 68.8723 105.698 68.5766C105.507 68.281 105.181 67.7736 104.975 67.4492C104.768 67.1248 104.411 66.5684 104.181 66.2128L103.763 65.5663L103.761 84.3238H90.5232L90.5523 42.3594L89.6852 41.9332C88.179 41.1928 86.7272 40.244 85.6099 39.2698C84.8893 38.6416 83.5404 37.2264 83.0107 36.5431C82.9115 36.4152 82.7989 36.2707 82.7606 36.2221C82.0937 35.3778 81.2451 34.0155 80.7202 32.9467C80.5448 32.5895 80.38 32.2571 80.3539 32.2081C80.2461 32.0053 79.7136 30.6256 79.5237 30.0574C78.6251 27.3673 78.2266 24.1427 78.376 20.7723C78.4594 18.8908 78.6992 17.2459 79.1593 15.401C79.4342 14.298 80.0947 12.5455 80.6607 11.4168C81.0923 10.5562 81.9882 9.02849 82.1444 8.88675C82.162 8.87075 82.2661 8.72686 82.3757 8.56697C83.3964 7.07864 84.9781 5.42688 86.477 4.28404C87.8338 3.2495 89.6086 2.25486 91.1014 1.69225ZM34.7381 2.28528C34.6787 2.15308 34.2786 1.03275 34.2786 0.998547C34.2786 0.986217 37.5978 0.982841 41.6545 0.990925L49.0304 1.0057L49.1634 1.44192C49.2364 1.68184 49.3651 2.1137 49.4493 2.40161C49.5334 2.68951 49.6506 3.08211 49.7096 3.27405C49.9618 4.09437 50.2906 5.17824 50.4593 5.74596C50.7958 6.8781 50.9356 7.34421 51.0177 7.60717C51.1998 8.19013 51.7506 10.0203 52.1206 11.2714C52.201 11.5433 52.3002 11.8705 52.3409 11.9985C52.4805 12.4361 52.5953 12.813 52.7752 13.4234C52.8742 13.7593 53.0043 14.1912 53.0643 14.3831C53.1243 14.5751 53.2022 14.8499 53.2374 14.9938C53.2726 15.1378 53.325 15.3079 53.3538 15.3719C53.3825 15.4359 53.4614 15.6845 53.5291 15.9244C53.6543 16.3681 53.6945 16.5034 53.9616 17.3785C54.0446 17.6504 54.174 18.0823 54.2491 18.3382C54.3243 18.5941 54.4552 19.026 54.5401 19.2979C54.625 19.5698 54.7288 19.91 54.7709 20.054C54.813 20.1979 54.9163 20.5382 55.0005 20.8101C55.0846 21.082 55.2017 21.4746 55.2606 21.6825C55.3975 22.1655 55.9622 24.0447 56.1875 24.7669C56.2825 25.0716 56.3603 25.3609 56.3603 25.4096C56.3603 25.4582 56.3829 25.5229 56.4104 25.5533C56.438 25.5836 56.5078 25.7917 56.5657 26.0157C56.6235 26.2396 56.7017 26.4985 56.7393 26.5911C56.8054 26.7536 56.814 26.7387 56.9921 26.1549C57.0935 25.8224 57.226 25.3802 57.2866 25.1723C57.3472 24.9644 57.5163 24.4017 57.6625 23.9218C57.8086 23.442 57.9935 22.8269 58.0734 22.555C58.1533 22.2831 58.2661 21.9036 58.3241 21.7116C58.3821 21.5197 58.5643 20.9046 58.7291 20.3448C58.8939 19.785 59.0512 19.2746 59.0787 19.2106C59.1062 19.1467 59.1786 18.9111 59.2397 18.6872C59.3856 18.1516 59.9253 16.3294 60.2646 15.2265C60.3482 14.9546 60.4505 14.6143 60.4919 14.4704C60.5333 14.3264 60.6377 13.9731 60.724 13.6852C60.8103 13.3973 60.9422 12.9523 61.0171 12.6964C61.092 12.4405 61.2165 12.0217 61.2938 11.7658C62.1477 8.93816 62.3068 8.40249 62.5981 7.37452C62.666 7.1346 62.7442 6.88595 62.7717 6.82197C62.7992 6.75799 62.8915 6.457 62.9769 6.1531C63.0621 5.8492 63.167 5.49586 63.2098 5.3679C63.2526 5.23995 63.4483 4.58562 63.6446 3.91384C63.8409 3.24206 64.0627 2.49612 64.1374 2.2562C64.2121 2.01628 64.3293 1.63019 64.3977 1.3983L64.5222 0.976619H71.8867C75.9373 0.976619 79.2513 0.993081 79.2513 1.01321C79.2513 1.04863 78.3387 3.58702 78.0934 4.23373C78.0267 4.40967 77.9246 4.69758 77.8665 4.87352C77.8084 5.04946 77.7333 5.25885 77.6996 5.33882C77.6659 5.4188 77.5322 5.78522 77.4024 6.1531C77.2726 6.52098 77.1434 6.87432 77.1153 6.9383C77.0872 7.00228 77.038 7.13314 77.006 7.22911C76.974 7.32508 76.8899 7.56064 76.8192 7.75258C76.7485 7.94451 76.6204 8.29785 76.5346 8.53777C76.4487 8.77769 76.1499 9.60215 75.8704 10.3699C75.591 11.1376 75.3121 11.9098 75.2507 12.0857C75.1892 12.2616 75.1154 12.4579 75.0867 12.5219C75.058 12.5859 74.8905 13.0439 74.7145 13.5398C74.5386 14.0356 74.3707 14.4936 74.3414 14.5576C74.312 14.6216 74.2572 14.7786 74.2194 14.9066C74.1816 15.0345 74.1183 15.2178 74.0786 15.3137C73.9842 15.5421 73.7809 16.0964 73.3851 17.204C73.208 17.6999 73.0398 18.1579 73.0114 18.2219C72.9829 18.2858 72.9155 18.4691 72.8614 18.629C72.7252 19.0321 72.5825 19.4305 72.403 19.9086C72.319 20.1325 72.1318 20.6429 71.9871 21.0428C71.8423 21.4426 71.6468 21.9792 71.5525 22.2351C71.4583 22.491 71.3596 22.7658 71.3332 22.8458C71.3069 22.9258 71.2081 23.2006 71.1138 23.4565C71.0195 23.7124 70.7147 24.55 70.4364 25.3177C69.9384 26.6918 69.7057 27.327 69.6374 27.4988C69.6184 27.5468 69.5522 27.73 69.4905 27.906C69.158 28.8528 68.6638 30.2183 68.6169 30.3197C68.5873 30.3837 68.353 31.0249 68.0962 31.7447C67.8394 32.4645 67.6058 33.1057 67.5771 33.1697C67.5483 33.2337 67.494 33.3907 67.4562 33.5187C67.4184 33.6466 67.3541 33.8298 67.3134 33.9258C67.2726 34.0218 67.2126 34.1788 67.1801 34.2748C67.1475 34.3707 67.063 34.6063 66.9923 34.7982C66.9216 34.9902 66.7928 35.3435 66.7061 35.5834C66.3882 36.4632 65.9956 37.5438 65.8293 37.9972C65.7353 38.2531 65.6363 38.5279 65.6092 38.6079C65.582 38.6879 65.491 38.9365 65.4068 39.1604C65.2443 39.5928 64.8774 40.607 64.5023 41.6614C64.3771 42.0133 64.2107 42.4627 64.1326 42.6601C64.0545 42.8575 63.9907 43.0473 63.9907 43.0818L49.6468 43.1446L49.4759 42.6647C49.3819 42.4009 49.2827 42.1326 49.2556 42.0686C49.2284 42.0046 49.1392 41.769 49.0574 41.5451C48.5784 40.2339 48.2384 39.2957 48.1405 39.015C48.079 38.8391 47.9928 38.6035 47.9489 38.4916C47.8433 38.2222 47.24 36.5709 47.0989 36.1651C47.0377 35.9891 46.9644 35.7928 46.936 35.7288C46.9076 35.6649 46.8346 35.4686 46.7738 35.2926C46.6534 34.9439 46.2071 33.7156 45.3475 31.3666C45.0432 30.5349 44.5229 29.1085 44.1913 28.1968C43.6538 26.719 42.7809 24.3255 42.5791 23.7764C42.5379 23.6644 42.2913 22.9839 42.031 22.2642C41.7707 21.5444 41.5303 20.8901 41.4966 20.8101C41.4631 20.7301 41.3977 20.5469 41.3514 20.403C41.3051 20.259 41.2433 20.0889 41.2139 20.0249C41.1845 19.9609 41.0156 19.5029 40.8385 19.0071C40.6614 18.5112 40.4817 18.027 40.4392 17.9311C40.3967 17.8351 40.331 17.6519 40.2932 17.5239C40.2554 17.396 40.201 17.2389 40.1723 17.1749C40.1435 17.111 39.976 16.6529 39.8 16.1571C39.6241 15.6613 39.4562 15.2032 39.4269 15.1392C39.3977 15.0753 39.3233 14.879 39.2618 14.703C39.1149 14.2831 38.4323 12.401 38.2387 11.8821C38.1114 11.541 37.4523 9.73441 36.9654 8.39237C36.8958 8.20043 36.8234 8.00413 36.8044 7.95614C36.7854 7.90816 36.6242 7.46322 36.4461 6.96738C36.268 6.47154 36.0863 5.97425 36.0424 5.86229C35.9985 5.75032 35.9129 5.51476 35.8521 5.33882C35.7914 5.16288 35.6065 4.6525 35.4412 4.20465C35.276 3.7568 35.062 3.1679 34.9656 2.89599C34.8692 2.62408 34.7669 2.34926 34.7381 2.28528ZM107.507 15.3614C106.141 13.7993 104.599 13.0207 102.287 12.7243C101.804 12.6624 100.347 12.6649 99.8589 12.7284C98.5065 12.9044 97.3771 13.2812 96.3617 13.8951C96.0769 14.0674 95.4332 14.603 95.0611 14.9773C94.749 15.2914 94.1073 16.1084 94.1073 16.1918C94.1073 16.2157 94.0707 16.2765 94.0259 16.327C93.9224 16.4436 93.4502 17.3919 93.3263 17.7316C93.2746 17.8733 93.1717 18.1986 93.0976 18.4545C93.0235 18.7104 92.9477 18.9591 92.9292 19.0071C92.9107 19.055 92.83 19.5597 92.75 20.1286C92.5511 21.5413 92.5511 22.6963 92.75 24.109C92.83 24.6778 92.9107 25.1825 92.9292 25.2305C92.9477 25.2785 93.0235 25.5271 93.0976 25.783C93.2892 26.4448 93.3863 26.6955 93.676 27.2769C95.0916 30.1176 97.5985 31.5695 101.09 31.5704C102.69 31.5708 104.036 31.2847 105.235 30.6901C106.57 30.0274 107.737 28.8474 108.454 27.4351C108.792 26.7699 108.829 26.6816 109.039 26.0448C109.783 23.7861 109.783 20.4515 109.039 18.1928C108.679 17.1001 108.113 16.0543 107.507 15.3614ZM21.7927 55.7924C21.0278 55.2955 20.3824 55.0257 19.3937 54.7896C18.7646 54.6394 18.7295 54.6375 16.0842 54.6165L13.4105 54.5953L13.4398 72.8948L15.0294 72.912C18.4179 72.9488 19.7177 72.763 21.1477 72.0377C22.8563 71.171 24.03 69.5128 24.5478 67.2337C24.8161 66.0533 24.9321 64.3145 24.8501 62.7018C24.7777 61.2772 24.6389 60.4215 24.3086 59.3622C24.1462 58.8411 23.5431 57.5561 23.3714 57.3653C23.3138 57.3013 23.1892 57.1443 23.0946 57.0163C22.8116 56.6339 22.1934 56.0527 21.7927 55.7924ZM1.03662 93.2769C1.69381 92.6155 2.75027 92.0864 3.69175 91.9473C4.15517 91.8788 5.10549 91.8773 5.56667 91.9444C6.01304 92.0093 6.61751 92.1902 6.98001 92.3672L7.22568 92.4872V94.671L6.80492 94.47C5.95859 94.0655 4.96034 93.9442 4.19217 94.1523C3.40584 94.3654 2.84704 94.7877 2.57847 95.3717C2.47523 95.5962 2.45673 95.7468 2.45673 96.3635C2.45673 97.0305 2.46951 97.118 2.61171 97.4232C3.05265 98.3698 4.18344 98.8623 5.52563 98.6923C6.06443 98.6241 6.67537 98.4499 7.03833 98.261C7.13822 98.209 7.24782 98.1665 7.28187 98.1665C7.3243 98.1665 7.33886 98.5096 7.32811 99.2544L7.31239 100.342L6.96556 100.451C6.7748 100.512 6.57369 100.585 6.51866 100.614C6.10611 100.833 4.14945 100.943 3.38162 100.79C1.81596 100.478 0.505221 99.3996 0.10908 98.0969C0.000868462 97.7411 -0.00745724 97.5904 0.0126591 96.352C0.027341 95.4498 0.0270374 95.1567 0.103412 94.8854C0.147318 94.7295 0.216565 94.5808 0.328567 94.3278C0.468572 94.0114 0.809333 93.5056 1.03662 93.2769ZM31.7091 92.054C31.7424 92.0278 31.9375 91.9824 32.1426 91.9529C33.331 91.7821 34.5441 92.0064 35.3769 92.551C36.2454 93.1189 36.6891 93.794 36.9994 95.0189C37.1001 95.4165 37.1188 95.6313 37.1008 96.1822C37.0865 96.6219 37.0489 96.9188 36.993 97.0323L36.9072 97.2068L34.0033 97.2219C31.7375 97.2337 31.0996 97.2528 31.1006 97.3091C31.1034 97.4657 31.3237 97.859 31.5381 98.0901C32.0993 98.6948 33.7188 99.0822 34.78 98.8657C35.7938 98.6589 35.9898 98.6105 36.2031 98.5144C36.3341 98.4553 36.4619 98.4199 36.4872 98.4356C36.5124 98.4513 36.5331 98.8924 36.5331 99.4158V100.367L36.2296 100.462C36.0626 100.515 35.8845 100.58 35.8336 100.607C35.7827 100.635 35.4576 100.704 35.111 100.76C34.2282 100.904 32.8033 100.904 32.1109 100.76C31.8248 100.701 31.5647 100.634 31.5329 100.612C31.5011 100.59 31.345 100.523 31.1861 100.465C30.5161 100.217 29.6269 99.5057 29.2242 98.8948C28.6408 98.0096 28.4245 96.7343 28.6371 95.4329C28.827 94.271 29.3608 93.3923 30.2612 92.7599C30.5656 92.546 31.2566 92.1948 31.4751 92.1428C31.5705 92.1201 31.6758 92.0801 31.7091 92.054ZM41.8512 92.3452C41.9199 92.2636 42.7244 91.9957 43.0391 91.9496C44.8033 91.6909 46.252 92.3001 47.1338 93.6716C47.6709 94.507 47.871 95.2456 47.871 96.3925C47.871 97.5428 47.6723 98.2734 47.1277 99.1253C46.8557 99.5508 46.263 100.17 46.0682 100.232C46.0062 100.252 45.9553 100.29 45.9553 100.318C45.9553 100.345 45.8318 100.414 45.6808 100.471C45.5298 100.528 45.3932 100.592 45.3773 100.613C45.3614 100.635 45.1537 100.697 44.9158 100.751C43.4686 101.081 42.1413 100.799 41.2366 99.9705L41.0419 99.7922V104.506H38.5557L38.5852 92.1467H40.724L40.7572 93.291L41.1206 92.9224C41.3204 92.7197 41.56 92.5146 41.6531 92.4667C41.7461 92.4187 41.8353 92.3641 41.8512 92.3452ZM63.1525 92.0319C63.2161 92.0134 63.5022 91.9745 63.7883 91.9454C64.569 91.8659 65.7931 91.9217 66.3368 92.0615C67.6838 92.408 68.5265 93.2369 68.8223 94.5062C68.9024 94.85 68.9299 95.3279 68.9569 96.8413C68.9838 98.3519 68.9752 98.7859 69.1641 98.9063C69.2551 98.9643 69.3917 98.9496 69.6002 98.9472L70.0024 98.9428V99.7377C70.0024 100.519 70.0001 100.534 69.8644 100.596C69.577 100.728 69.0057 100.799 68.4511 100.772C67.761 100.738 67.3374 100.56 67.0084 100.164C66.8931 100.025 66.7779 99.9114 66.7526 99.9114C66.7272 99.9114 66.6072 99.9834 66.4859 100.071C66.3646 100.159 66.0982 100.306 65.8939 100.398C65.6896 100.49 65.4767 100.589 65.4206 100.617C65.2398 100.71 64.504 100.844 63.9949 100.877C63.068 100.938 62.169 100.652 61.5633 100.104C61.02 99.6128 60.8052 99.0986 60.8025 98.2828C60.801 97.8295 60.8271 97.6599 60.9477 97.3383C61.1103 96.9047 61.1218 96.8874 61.5339 96.4551C61.9902 95.9764 62.446 95.7301 63.169 95.5716C63.733 95.4479 65.308 95.4431 65.9994 95.5629L66.4763 95.6456L66.475 95.3793C66.4726 94.8777 66.1082 94.3476 65.667 94.204C65.5557 94.1678 65.4354 94.1149 65.3997 94.0865C65.2942 94.0027 64.2884 93.9665 63.7883 94.0285C63.1869 94.1031 62.6744 94.2246 62.0652 94.437C61.7941 94.5315 61.5572 94.5936 61.5387 94.5749C61.5202 94.5563 61.505 94.0778 61.505 93.5117V92.4824L61.7636 92.383C61.9058 92.3284 62.2505 92.2346 62.5296 92.1745C62.8086 92.1145 63.0889 92.0503 63.1525 92.0319ZM73.7887 92.9308C74.2862 92.4194 75.0593 92.036 75.783 91.9417C77.2595 91.7491 78.5176 92.1527 79.3669 93.0911C79.7654 93.5314 79.7676 93.5344 79.9798 93.9206C80.4401 94.7581 80.6001 95.4739 80.5647 96.538C80.5328 97.4968 80.425 97.9747 80.0896 98.6439C79.946 98.9305 79.8729 99.0784 79.7797 99.2121C79.6738 99.3641 79.542 99.4979 79.2513 99.7961C78.907 100.149 78.7166 100.29 78.3264 100.479C78.0562 100.61 77.679 100.75 77.4882 100.791C77.0451 100.886 75.9066 100.888 75.4939 100.794C75.0786 100.7 74.3119 100.317 74.0205 100.058C73.8937 99.9454 73.7701 99.8532 73.746 99.8532C73.7217 99.8532 73.702 100.901 73.702 102.181V104.509L71.2452 104.477L71.2305 98.3764C71.2196 93.8593 71.233 92.2547 71.282 92.1953C71.3348 92.1313 71.5609 92.1182 72.3951 92.1309L73.4418 92.1467L73.4996 93.2279L73.7887 92.9308ZM91.3496 94.1303C91.9128 93.0339 93.2024 92.1382 94.4902 91.949C95.9504 91.7345 97.376 92.1485 98.2682 93.0461C98.6774 93.4577 98.9148 93.8626 99.173 94.5895C99.3295 95.0299 99.3384 95.1061 99.3385 96.0145C99.3386 96.6899 99.3167 97.0129 99.2644 97.105L99.1901 97.2359H96.273C94.3042 97.2359 93.3558 97.2554 93.3558 97.296C93.3558 97.4301 93.6466 97.918 93.8447 98.1166C94.2896 98.5621 95.3861 98.9226 96.2967 98.9226C96.8803 98.9226 98.0088 98.7205 98.4138 98.5434C98.5808 98.4703 98.6786 98.4214 98.7371 98.4511C98.8256 98.496 98.8237 98.7213 98.8344 99.3162C98.8432 99.8046 98.8261 100.25 98.7965 100.305C98.6337 100.61 96.5645 100.957 95.3716 100.879C94.7728 100.84 93.9395 100.689 93.8501 100.604C93.8199 100.575 93.7549 100.551 93.7056 100.551C93.5599 100.551 92.7232 100.103 92.4013 99.8526C91.7056 99.3126 91.2899 98.6939 91.0065 97.7768C90.8633 97.3131 90.8486 97.1829 90.8504 96.3925C90.8528 95.3734 90.9595 94.8897 91.3496 94.1303ZM7.97553 92.4424C7.91559 92.3171 7.87998 92.1928 7.89634 92.1661C7.91276 92.1394 8.49336 92.1176 9.18656 92.1176H10.447L10.6034 92.4811C10.6895 92.6811 10.7834 92.897 10.8121 92.9609C11.0197 93.4244 11.6189 94.8075 11.6189 94.8234C11.6189 94.8343 11.6969 95.0128 11.7923 95.2201C11.8877 95.4275 11.9657 95.6117 11.9657 95.6296C11.9657 95.6474 12.0276 95.8003 12.1033 95.9691C12.1789 96.138 12.3774 96.5903 12.5442 96.9742C12.7111 97.358 12.8574 97.6831 12.8692 97.6964C12.9152 97.7484 12.9713 97.6169 13.3297 96.6152C13.5337 96.0449 13.7236 95.5259 13.7517 95.4619C13.7798 95.398 13.8821 95.1231 13.979 94.8512C14.0759 94.5793 14.2377 94.1344 14.3385 93.8625C14.4393 93.5906 14.6139 93.1064 14.7264 92.7865C14.839 92.4666 14.9597 92.1856 14.9947 92.1621C15.0825 92.1031 17.4434 92.1062 17.4797 92.1653C17.5034 92.2038 16.7373 94.2592 16.5329 94.7058C16.5036 94.7698 16.2699 95.3587 16.0136 96.0145C15.7573 96.6703 15.5247 97.2592 15.4967 97.3232C15.4686 97.3871 15.4132 97.5311 15.3734 97.6431C15.3337 97.755 15.2682 97.9251 15.2279 98.0211C15.1596 98.1838 14.8846 98.8842 14.0746 100.958C13.7692 101.74 13.2751 102.81 13.1882 102.878C13.1676 102.894 13.0524 103.054 12.9322 103.233C12.4041 104.023 11.5439 104.574 10.6503 104.695C10.1934 104.757 9.21928 104.697 8.94002 104.589C8.85574 104.556 8.84424 104.426 8.84424 103.505C8.84424 102.53 8.85117 102.461 8.9454 102.502C9.00101 102.527 9.30911 102.559 9.62999 102.573C10.1801 102.598 10.2325 102.59 10.547 102.435C10.7494 102.335 10.9807 102.156 11.1356 101.978C11.4007 101.674 11.7923 100.949 11.7923 100.763C11.7923 100.704 11.6777 100.417 11.5376 100.124C11.3975 99.831 11.1894 99.3886 11.0752 99.1407C10.8248 98.5976 10.4922 97.8741 10.3463 97.5558C10.2877 97.4278 10.0688 96.9617 9.85988 96.5199C9.65103 96.0781 9.4801 95.7062 9.4801 95.6933C9.4801 95.6805 9.31102 95.3137 9.10436 94.8781C8.89771 94.4426 8.72863 94.0784 8.72863 94.0688C8.72863 94.0524 8.21069 92.9338 7.97553 92.4424ZM18.6851 96.4507C18.6769 94.1475 18.6827 92.2301 18.6979 92.1899C18.7199 92.132 19.5803 92.1199 22.8459 92.1317L26.9662 92.1467L26.9959 100.67L24.5384 100.638L24.5085 94.2696H21.1568V100.67L18.7001 100.638L18.6851 96.4507ZM49.4377 96.4253C49.426 93.0933 49.4381 92.2024 49.4955 92.1657C49.5355 92.1403 50.0649 92.119 50.672 92.1185C51.8408 92.1175 51.8614 92.1221 51.9882 92.4084C52.0094 92.4564 52.0979 92.6056 52.1848 92.7399C52.2717 92.8742 52.4989 93.2348 52.6897 93.5413C52.8804 93.8478 53.1015 94.2016 53.181 94.3275C53.2605 94.4535 53.5597 94.9366 53.8458 95.4011C54.1319 95.8656 54.3841 96.246 54.4063 96.2464C54.4285 96.2468 54.535 96.1097 54.6429 95.9418C54.9835 95.4122 55.6903 94.2809 55.8234 94.0527C55.8937 93.932 55.981 93.7917 56.0174 93.7408C56.0538 93.6899 56.2962 93.3104 56.5561 92.8974L57.0286 92.1467H59.3373L59.367 100.668H56.9962V98.2863C56.9962 96.9766 56.9739 95.8912 56.9466 95.8743C56.9194 95.8573 56.5125 96.4643 56.0423 97.2231C55.5721 97.9819 55.1481 98.6485 55.1002 98.7045C55.0277 98.789 54.9131 98.8063 54.4238 98.8063C53.9342 98.8063 53.8203 98.7891 53.7487 98.7045C53.7015 98.6485 53.4446 98.2494 53.1779 97.8175C52.9113 97.3857 52.6404 96.9518 52.5758 96.8532C52.5113 96.7548 52.3414 96.4872 52.1983 96.2586C52.0553 96.03 51.9187 95.8423 51.8949 95.8415C51.871 95.8407 51.8515 96.9267 51.8515 98.2549V100.67L49.4526 100.638L49.4377 96.4253ZM82.1555 96.4507C82.1473 94.1475 82.1532 92.2297 82.1686 92.1891C82.1903 92.132 82.4683 92.1188 83.3975 92.131L84.5983 92.1467L84.6561 95.2875L85.0997 95.3044C85.4074 95.3161 85.5634 95.2983 85.6094 95.2462C85.6459 95.2049 85.8552 94.9094 86.0748 94.5895C86.2943 94.2696 86.5282 93.9294 86.5946 93.8334C86.6609 93.7374 86.9498 93.3116 87.2364 92.8872L87.7577 92.1155L89.0972 92.1311C90.0977 92.1427 90.4367 92.1645 90.4367 92.217C90.4367 92.2899 90.4197 92.3167 90.0278 92.8645C89.7931 93.1927 89.303 93.902 88.8159 94.6186C88.6746 94.8265 88.3522 95.2963 88.0997 95.6626C87.8471 96.0288 87.6567 96.356 87.6764 96.3896C87.739 96.496 87.9497 96.7985 87.9824 96.8288C87.9996 96.8448 88.2984 97.2505 88.6464 97.7303C88.9944 98.2101 89.3249 98.6535 89.381 98.7155C89.437 98.7775 89.4829 98.8476 89.4829 98.8713C89.4829 98.8949 89.5157 98.9489 89.556 98.9912C89.75 99.1952 90.7409 100.604 90.7113 100.633C90.6927 100.652 90.0759 100.668 89.3406 100.668H88.0037L87.6332 100.159C87.4294 99.8787 87.1721 99.5188 87.0615 99.3588C86.9508 99.1989 86.8261 99.0334 86.7843 98.9912C86.7424 98.9489 86.7082 98.8966 86.7082 98.8749C86.7081 98.8531 86.6496 98.7656 86.5781 98.6803C86.5066 98.5949 86.253 98.2493 86.0145 97.9123L85.581 97.2995L84.629 97.2941L84.5983 100.638H82.1705L82.1555 96.4507ZM99.9457 93.1922C99.9457 92.4413 99.964 92.178 100.018 92.1559C100.058 92.1396 101.82 92.1309 103.934 92.1365L107.778 92.1467V94.2405L105.09 94.2718V100.67L102.691 100.638L102.662 94.2696H101.395C100.698 94.2696 100.087 94.2537 100.037 94.2343C99.9586 94.204 99.9457 94.0566 99.9457 93.1922ZM34.5676 94.7056C34.427 94.3952 34.0055 94.0055 33.7211 93.923C33.1291 93.7513 32.3087 93.8284 31.8781 94.0961C31.5503 94.3 31.229 94.7025 31.1321 95.0308C31.0736 95.2292 31.0142 95.3523 31.051 95.4284C31.1197 95.5709 31.5245 95.5492 32.8988 95.5492H34.756L34.7162 95.2477C34.6944 95.0818 34.6274 94.8379 34.5676 94.7056ZM96.4964 94.1992C96.4055 94.1125 96.2155 94.0004 96.074 93.9502C95.8081 93.8558 95.0909 93.7887 94.8877 93.8392C94.6016 93.9103 94.2056 94.0478 94.145 94.0973C94.1083 94.1271 93.9934 94.2201 93.8894 94.3039C93.6323 94.5113 93.4177 94.8976 93.3617 95.2537L93.3153 95.5492H96.9976V95.2858C96.9976 94.9773 96.7505 94.4417 96.4964 94.1992ZM45.2899 95.7364C45.1198 95.0101 44.7312 94.4964 44.1407 94.2168C43.6704 93.9942 42.8748 93.9329 42.5159 94.0917C41.7936 94.4112 41.476 94.6505 41.2063 95.0785L41.0419 95.3393V97.4458L41.2056 97.7044C41.4283 98.0561 41.8009 98.3818 42.1911 98.5656C42.6578 98.7856 43.5188 98.8154 44.0142 98.6287C45.0229 98.2486 45.5817 96.9817 45.2899 95.7364ZM76.8235 94.2055C76.7122 94.1684 76.5951 94.1189 76.5633 94.0954C76.4751 94.03 75.7867 93.9895 75.4939 94.0324C74.9154 94.1172 74.2522 94.5619 73.8691 95.1221L73.702 95.3666V97.3876L73.8671 97.6462C74.0973 98.0069 74.2788 98.1885 74.6362 98.4158C75.0664 98.6895 75.384 98.7636 76.0225 98.739C76.6543 98.7148 76.9708 98.5846 77.3668 98.1861C77.8911 97.6586 78.1774 96.7381 78.0395 96.0236C77.8874 95.2363 77.7293 94.9254 77.2592 94.4893C77.1308 94.3702 76.9347 94.2425 76.8235 94.2055ZM66.4763 97.1347L66.1439 97.0692C65.6586 96.9734 64.8181 96.9425 64.4575 97.0072C63.8254 97.1205 63.4243 97.4426 63.3276 97.9144C63.2418 98.3334 63.5305 98.8 63.9907 98.9861C64.2637 99.0966 65.0907 99.0839 65.498 98.9629C65.6753 98.9102 65.9679 98.7693 66.1484 98.6498L66.4763 98.4324V97.1347ZM141.829 109.421C142.419 108.171 143.826 107.251 145.439 107.061C145.645 107.037 146.087 107.03 146.421 107.046C147.23 107.084 147.782 107.214 148.462 107.526L148.733 107.65V108.724C148.733 109.315 148.718 109.799 148.699 109.799C148.68 109.799 148.479 109.711 148.251 109.603C148.024 109.496 147.694 109.371 147.52 109.327C147.103 109.222 145.835 109.22 145.525 109.324C144.818 109.562 144.336 109.947 144.074 110.484C143.924 110.791 143.912 110.87 143.91 111.515C143.907 112.175 143.917 112.232 144.079 112.562C144.395 113.202 145.049 113.676 145.814 113.819C146.572 113.961 147.957 113.748 148.521 113.402C148.622 113.34 148.724 113.289 148.748 113.289C148.772 113.289 148.791 113.783 148.791 114.386V115.483L148.363 115.641C147.357 116.01 145.786 116.128 144.769 115.911C143.839 115.713 142.943 115.217 142.375 114.587C141.884 114.042 141.746 113.8 141.52 113.085C141.389 112.671 141.373 112.518 141.369 111.689C141.364 110.649 141.451 110.222 141.829 109.421ZM55.1077 108.486C55.6505 107.879 56.6415 107.331 57.6031 107.106C57.6667 107.091 58.0476 107.076 58.4495 107.072C59.055 107.067 59.2745 107.09 59.7311 107.209C60.8834 107.511 61.6796 108.138 62.1317 109.102C62.5042 109.895 62.57 110.208 62.5719 111.195C62.573 111.822 62.5511 112.136 62.4997 112.227L62.4259 112.358H56.5824L56.6233 112.546C56.7091 112.939 57.1087 113.399 57.57 113.636C58.5579 114.143 60.2198 114.18 61.5333 113.723C61.761 113.644 61.9648 113.58 61.9862 113.58C62.0077 113.58 62.0253 114.02 62.0253 114.559V115.539L61.5195 115.69C60.6629 115.946 59.9166 116.035 58.8749 116.005C58.3662 115.99 57.7974 115.948 57.611 115.911C57.0951 115.809 56.4121 115.523 55.9436 115.214C55.5563 114.958 54.7996 114.257 54.7996 114.155C54.7996 114.131 54.7657 114.077 54.7243 114.035C54.6829 113.992 54.5928 113.84 54.5239 113.696C53.7175 112.011 53.9698 109.759 55.1077 108.486ZM132.145 108.403C132.743 107.808 133.39 107.439 134.225 107.217C135.018 107.006 136.17 107.003 136.962 107.21C138.225 107.54 139.241 108.308 139.764 109.325C140.256 110.282 140.399 111.671 140.121 112.796C139.725 114.405 138.521 115.525 136.771 115.914C135.821 116.125 134.357 116.013 133.612 115.671C133.475 115.608 133.347 115.557 133.327 115.557C133.241 115.557 132.494 115.03 132.21 114.77C131.248 113.886 130.8 112.489 130.976 110.919C131.099 109.823 131.426 109.119 132.145 108.403ZM44.2212 115.792V107.298H46.7068V110.499L50.0306 110.468L50.0614 107.298H52.4874V115.79H50.0614L50.0306 112.62L46.7087 112.589L46.6779 115.761L44.2212 115.792ZM64.6885 113.478C65.3405 112.046 65.6046 110.7 65.6991 108.33L65.7402 107.298H72.6615V113.866L73.9043 113.9L73.9347 118H71.621V115.79H65.6092V118H63.297V113.87H64.5097L64.6885 113.478ZM75.4072 115.761L75.3776 107.291L81.3612 107.333L81.75 107.486C81.9638 107.571 82.1719 107.667 82.2124 107.7C82.5812 107.999 82.7329 108.149 82.8384 108.321C83.3673 109.182 83.2854 110.387 82.6546 111.022C82.5076 111.17 82.306 111.325 82.2067 111.366C82.1073 111.408 82.0269 111.458 82.0282 111.478C82.0294 111.498 82.1579 111.577 82.3137 111.654C82.6835 111.835 83.0173 112.162 83.1888 112.513C83.3107 112.762 83.3266 112.875 83.3266 113.492C83.3266 114.146 83.3161 114.211 83.1601 114.521C82.9699 114.899 82.6108 115.289 82.315 115.439C82.2037 115.496 81.9566 115.592 81.7658 115.652C81.4452 115.752 81.1915 115.761 78.4131 115.761H75.4072ZM85.0029 115.761L84.9733 107.298H87.4584L87.4886 111.98L87.8932 111.465C88.1158 111.182 88.623 110.538 89.0204 110.034C89.4178 109.53 89.821 109.017 89.9164 108.894C90.0118 108.771 90.2589 108.459 90.4656 108.202C90.6722 107.944 90.9146 107.635 91.0042 107.515L91.167 107.296L93.3269 107.327V115.761L90.8702 115.792L90.8668 111.108L90.7096 111.287C90.623 111.386 90.2921 111.8 89.9742 112.208C89.6563 112.617 89.3699 112.981 89.3377 113.018C89.3056 113.055 89.1383 113.268 88.9661 113.492C88.7939 113.716 88.6067 113.952 88.55 114.016C88.4933 114.08 88.2747 114.355 88.0641 114.627C87.8536 114.898 87.6379 115.174 87.5849 115.238C87.5319 115.303 87.4153 115.454 87.3257 115.574L87.1628 115.792L85.0029 115.761ZM95.9125 109.421C95.8155 109.298 94.6275 107.369 94.6275 107.334C94.6275 107.314 95.2101 107.298 95.9222 107.298H97.2168L97.4761 107.72C97.6187 107.952 97.8173 108.285 97.9174 108.461C98.0175 108.637 98.3525 109.2 98.662 109.712L99.2245 110.642L99.9457 110.677V107.298H102.429L102.46 110.642L102.816 110.66C103.159 110.676 103.176 110.67 103.307 110.486C103.382 110.381 103.471 110.242 103.505 110.178C103.538 110.113 103.937 109.439 104.391 108.679L105.217 107.298H107.876L107.753 107.487C107.598 107.726 106.55 109.386 106.374 109.671C106.302 109.79 106.011 110.253 105.728 110.701L105.213 111.515L105.311 111.675C105.404 111.828 106.144 112.914 106.53 113.463C106.631 113.607 106.837 113.908 106.988 114.132C107.139 114.356 107.438 114.793 107.651 115.102C107.864 115.412 108.038 115.693 108.038 115.727C108.038 115.77 107.628 115.79 106.743 115.79H105.448L105.002 115.106C104.756 114.73 104.484 114.318 104.397 114.19C103.877 113.425 103.566 112.949 103.493 112.809C103.413 112.654 103.397 112.649 102.921 112.649H102.431V115.792L99.9746 115.761L99.9437 112.649H99.0886L98.9246 112.876C98.7106 113.173 98.6616 113.246 98.3751 113.696C98.2428 113.904 98.1128 114.083 98.0862 114.093C98.0597 114.104 98.0381 114.135 98.0381 114.162C98.0381 114.189 97.8004 114.567 97.5099 115.001L96.9817 115.79H95.689C94.8696 115.79 94.3963 115.769 94.3963 115.732C94.3963 115.7 94.8237 115.052 95.3461 114.292C95.8684 113.532 96.5075 112.602 96.7661 112.225L97.2364 111.539L96.8734 110.945C96.4506 110.254 95.9782 109.504 95.9125 109.421ZM109.137 115.79V107.298H111.565V109.586C111.565 110.844 111.581 111.89 111.6 111.91C111.64 111.949 111.761 111.808 112.489 110.874C112.76 110.528 113.007 110.216 113.039 110.182C113.072 110.147 113.189 110.001 113.3 109.857C113.41 109.714 113.532 109.557 113.571 109.508C113.861 109.144 114.715 108.05 114.974 107.712L115.291 107.298H117.461L117.432 115.761H115.004L114.946 111.137L114.484 111.728C114.229 112.052 113.995 112.347 113.963 112.382C113.932 112.417 113.829 112.55 113.734 112.678C113.64 112.806 113.38 113.135 113.156 113.408C112.933 113.682 112.685 113.994 112.605 114.101C112.526 114.209 112.193 114.633 111.867 115.043L111.273 115.79H109.137ZM119.484 115.79V107.298H121.837L122.149 107.794C122.321 108.066 122.531 108.4 122.616 108.535C122.9 108.983 123.037 109.205 123.259 109.577C123.381 109.779 123.555 110.062 123.648 110.206C123.74 110.35 123.869 110.56 123.935 110.671C124.242 111.195 124.373 111.385 124.424 111.385C124.478 111.385 125.333 110.078 125.527 109.7C125.579 109.597 125.659 109.483 125.703 109.446C125.748 109.408 125.785 109.354 125.785 109.326C125.785 109.297 125.906 109.085 126.055 108.853C126.204 108.622 126.39 108.328 126.469 108.2C126.548 108.072 126.656 107.901 126.71 107.822C126.763 107.742 126.851 107.591 126.904 107.487L127.002 107.298H129.369V115.792L127.028 115.761L126.97 110.933L126.764 111.253C126.651 111.429 126.461 111.73 126.342 111.922C125.726 112.912 125.203 113.739 125.121 113.856C125.035 113.977 124.984 113.987 124.432 113.987H123.836L123.615 113.623C123.493 113.423 123.376 113.247 123.354 113.231C123.333 113.215 123.269 113.11 123.212 112.998C123.156 112.886 123.093 112.781 123.072 112.765C123.052 112.749 122.789 112.337 122.488 111.849C122.188 111.361 121.922 110.962 121.898 110.962C121.874 110.962 121.854 112.049 121.854 113.376V115.79H119.484ZM149.658 108.384C149.658 107.829 149.676 107.358 149.697 107.337C149.718 107.316 151.487 107.298 153.628 107.298H157.52V109.392H154.803V115.792L152.404 115.761L152.374 109.392H149.658V108.384ZM158.792 115.79V107.298H161.276L161.306 111.943L161.855 111.245C162.157 110.862 162.449 110.491 162.503 110.421C162.557 110.351 163.034 109.744 163.563 109.072C164.092 108.4 164.62 107.727 164.736 107.577L164.948 107.303L167 107.298V115.792L164.659 115.761L164.601 111.138L164.052 111.841C163.75 112.228 163.476 112.574 163.444 112.611C163.412 112.648 163.295 112.796 163.184 112.94C163.073 113.084 162.951 113.241 162.913 113.289C162.214 114.161 161.073 115.611 161.025 115.688C160.967 115.779 160.846 115.79 159.876 115.79H158.792ZM59.6682 109.329C59.5396 109.219 59.3147 109.096 59.1683 109.056C58.8427 108.969 58.1474 108.972 57.8344 109.063C57.147 109.263 56.6649 109.799 56.5577 110.482L56.5189 110.73H60.2333L60.2332 110.482C60.2332 110.14 59.9585 109.579 59.6682 109.329ZM80.2972 110.64C80.8468 110.354 80.8282 109.404 80.2677 109.136C80.1092 109.061 79.8621 109.043 78.968 109.043H77.864V110.73H78.9941C79.9013 110.73 80.1583 110.712 80.2972 110.64ZM70.1758 113.87V109.217H67.9958L67.9567 109.814C67.9353 110.141 67.8942 110.554 67.8654 110.73C67.8366 110.906 67.7832 111.246 67.7466 111.486C67.6615 112.044 67.4319 112.91 67.2257 113.449L67.0645 113.87H70.1758ZM137.73 111.276C137.646 110.27 137.019 109.498 136.156 109.338C134.966 109.116 134.13 109.516 133.664 110.53C133.52 110.843 133.506 110.937 133.506 111.544C133.506 112.145 133.521 112.246 133.659 112.546C133.865 112.995 134.068 113.25 134.381 113.459C135.185 113.995 136.415 113.903 137.065 113.259C137.572 112.756 137.798 112.083 137.73 111.276ZM80.8356 113.612C81.0341 113.191 80.8926 112.664 80.523 112.447C80.3401 112.34 80.2029 112.327 79.0908 112.31L77.8609 112.292L77.8929 114.074H79.049C80.1377 114.074 80.2208 114.066 80.4743 113.941C80.6549 113.851 80.7738 113.743 80.8356 113.612Z" fill="white"/>
<path fill-rule="evenodd" clip-rule="evenodd" d="M49.6267 43.1451H47.0359C44.5712 43.1451 44.4385 43.1505 44.3087 43.2563L44.1722 43.3674V63.7633C44.1722 83.8858 44.1737 84.1603 44.2844 84.2418C44.3808 84.3127 47.2454 84.3243 64.6201 84.3243H84.8436L85.1274 84.0388V63.7082C85.1274 43.4552 85.1269 43.3773 85.0118 43.2614C84.897 43.1459 84.8191 43.1451 74.4334 43.1451C66.9833 43.1451 63.9706 43.127 63.9706 43.0823L49.6267 43.1451ZM72.3813 63.7132C72.3813 57.514 72.367 56.0486 72.3061 55.9874C72.2454 55.9263 70.7915 55.9096 64.7047 55.9006C60.5652 55.8945 57.124 55.9117 57.0576 55.9389C56.9911 55.9662 56.9062 56.0628 56.8689 56.1537C56.8179 56.2779 56.8048 58.1812 56.8163 63.8125L56.8316 71.3061L56.9681 71.4173C57.1008 71.5255 57.3068 71.5285 64.6307 71.5285C71.0394 71.5285 72.1735 71.5162 72.2691 71.4459C72.3791 71.3649 72.3813 71.2189 72.3813 63.7132Z" fill="white"/>
</svg>
