<svg width="91" height="77" viewBox="0 0 91 77" fill="none" xmlns="http://www.w3.org/2000/svg">
<path d="M72.8438 0C73.8829 0.000241841 74.8981 0.311602 75.7586 0.89397C76.6192 1.47634 77.2857 2.30303 77.6722 3.26756C78.699 5.8275 80.2738 7.67981 81.8209 8.87306C83.4997 10.1565 84.7485 10.3924 84.9844 10.3924C86.3643 10.3924 87.6878 10.9406 88.6635 11.9163C89.6393 12.8921 90.1875 14.2155 90.1875 15.5955C90.1875 16.9755 89.6393 18.2989 88.6635 19.2747C87.6878 20.2504 86.3643 20.7986 84.9844 20.7986C81.7515 20.7986 78.3244 19.3001 75.48 17.1217C74.5735 16.428 73.6947 15.6325 72.8438 14.7353C71.0647 16.6361 68.9167 18.1542 66.5311 19.1968C64.1454 20.2393 61.5722 20.7844 58.9688 20.7986C56.3658 20.7852 53.7929 20.2413 51.4073 19.1999C49.0216 18.1586 46.8734 16.6418 45.0938 14.7422C43.3141 16.6418 41.1659 18.1586 38.7802 19.1999C36.3946 20.2413 33.8217 20.7852 31.2188 20.7986C28.6158 20.7852 26.0429 20.2413 23.6573 19.1999C21.2716 18.1586 19.1234 16.6418 17.3438 14.7422C16.4928 15.6394 15.614 16.4372 14.7075 17.1356C11.8701 19.314 8.44294 20.8125 5.20312 20.8125C3.82317 20.8125 2.49974 20.2643 1.52396 19.2885C0.548185 18.3128 0 16.9893 0 15.6094C0 14.2294 0.548185 12.906 1.52396 11.9302C2.49974 10.9544 3.82317 10.4062 5.20312 10.4062C5.43206 10.4062 6.68775 10.1704 8.35969 8.88C9.91369 7.69369 11.4885 5.8275 12.5152 3.2745C12.9023 2.31054 13.569 1.48448 14.4295 0.902676C15.29 0.320873 16.305 0.0099556 17.3438 0.0099556C18.3825 0.0099556 19.3975 0.320873 20.258 0.902676C21.1185 1.48448 21.7852 2.31054 22.1723 3.2745C24.2396 8.42212 27.9998 10.3924 31.2188 10.3924C34.4378 10.3924 38.2048 8.42212 40.2653 3.26756C40.6523 2.3036 41.319 1.47754 42.1795 0.895738C43.04 0.313934 44.055 0.0030186 45.0938 0.0030186C46.1325 0.0030186 47.1475 0.313934 48.008 0.895738C48.8685 1.47754 49.5352 2.3036 49.9222 3.26756C51.9827 8.42212 55.7497 10.3924 58.9688 10.3924C62.1878 10.3924 65.9548 8.41519 68.0153 3.26756C68.4018 2.30303 69.0683 1.47634 69.9289 0.89397C70.7894 0.311602 71.8046 0.000241841 72.8438 0ZM72.8438 27.75C73.8829 27.7502 74.8981 28.0616 75.7586 28.644C76.6192 29.2263 77.2857 30.053 77.6722 31.0176C78.699 33.5775 80.2738 35.4298 81.8209 36.6231C83.4997 37.9065 84.7485 38.1424 84.9844 38.1424C86.3643 38.1424 87.6878 38.6906 88.6635 39.6663C89.6393 40.6421 90.1875 41.9655 90.1875 43.3455C90.1875 44.7255 89.6393 46.0489 88.6635 47.0247C87.6878 48.0004 86.3643 48.5486 84.9844 48.5486C81.7515 48.5486 78.3244 47.0501 75.48 44.8718C74.5735 44.178 73.6947 43.3825 72.8438 42.4852C71.0647 44.3861 68.9167 45.9042 66.5311 46.9468C64.1454 47.9893 61.5722 48.5344 58.9688 48.5486C56.3658 48.5352 53.7929 47.9913 51.4073 46.9499C49.0216 45.9086 46.8734 44.3918 45.0938 42.4922C43.3141 44.3918 41.1659 45.9086 38.7802 46.9499C36.3946 47.9913 33.8217 48.5352 31.2188 48.5486C28.6158 48.5352 26.0429 47.9913 23.6573 46.9499C21.2716 45.9086 19.1234 44.3918 17.3438 42.4922C16.4928 43.3894 15.614 44.1873 14.7075 44.8856C11.8701 47.064 8.44294 48.5625 5.20312 48.5625C3.82317 48.5625 2.49974 48.0143 1.52396 47.0385C0.548185 46.0628 0 44.7393 0 43.3594C0 41.9794 0.548185 40.656 1.52396 39.6802C2.49974 38.7044 3.82317 38.1562 5.20312 38.1562C5.43206 38.1562 6.68775 37.9204 8.35969 36.63C9.91369 35.4437 11.4885 33.5775 12.5152 31.0245C12.9023 30.0605 13.569 29.2345 14.4295 28.6527C15.29 28.0709 16.305 27.76 17.3438 27.76C18.3825 27.76 19.3975 28.0709 20.258 28.6527C21.1185 29.2345 21.7852 30.0605 22.1723 31.0245C24.2396 36.1721 27.9998 38.1424 31.2188 38.1424C34.4378 38.1424 38.2048 36.1721 40.2653 31.0176C40.6523 30.0536 41.319 29.2275 42.1795 28.6457C43.04 28.0639 44.055 27.753 45.0938 27.753C46.1325 27.753 47.1475 28.0639 48.008 28.6457C48.8685 29.2275 49.5352 30.0536 49.9222 31.0176C51.9827 36.1721 55.7497 38.1424 58.9688 38.1424C62.1878 38.1424 65.9548 36.1652 68.0153 31.0176C68.4018 30.053 69.0683 29.2263 69.9289 28.644C70.7894 28.0616 71.8046 27.7502 72.8438 27.75ZM77.6722 58.7676C77.2852 57.8036 76.6185 56.9775 75.758 56.3957C74.8975 55.8139 73.8825 55.503 72.8438 55.503C71.805 55.503 70.79 55.8139 69.9295 56.3957C69.069 56.9775 68.4023 57.8036 68.0153 58.7676C65.9548 63.9152 62.1878 65.8924 58.9688 65.8924C55.7497 65.8924 51.9827 63.9221 49.9222 58.7676C49.5352 57.8036 48.8685 56.9775 48.008 56.3957C47.1475 55.8139 46.1325 55.503 45.0938 55.503C44.055 55.503 43.04 55.8139 42.1795 56.3957C41.319 56.9775 40.6523 57.8036 40.2653 58.7676C38.1979 63.9152 34.4378 65.8924 31.2188 65.8924C27.9998 65.8924 24.2396 63.9221 22.1723 58.7676C21.7852 57.8036 21.1185 56.9775 20.258 56.3957C19.3975 55.8139 18.3825 55.503 17.3438 55.503C16.305 55.503 15.29 55.8139 14.4295 56.3957C13.569 56.9775 12.9023 57.8036 12.5152 58.7676C11.4885 61.3344 9.91369 63.1868 8.35969 64.3869C6.68775 65.6704 5.43206 65.9062 5.20312 65.9062C3.82317 65.9062 2.49974 66.4544 1.52396 67.4302C0.548185 68.406 0 69.7294 0 71.1094C0 72.4893 0.548185 73.8128 1.52396 74.7885C2.49974 75.7643 3.82317 76.3125 5.20312 76.3125C8.44294 76.3125 11.8701 74.814 14.7075 72.6356C15.614 71.9419 16.4928 71.1441 17.3438 70.2422C19.1234 72.1418 21.2716 73.6586 23.6573 74.6999C26.0429 75.7413 28.6158 76.2852 31.2188 76.2986C33.8217 76.2852 36.3946 75.7413 38.7802 74.6999C41.1659 73.6586 43.3141 72.1418 45.0938 70.2422C46.8734 72.1418 49.0216 73.6586 51.4073 74.6999C53.7929 75.7413 56.3658 76.2852 58.9688 76.2986C61.5722 76.2843 64.1454 75.7393 66.5311 74.6968C68.9167 73.6542 71.0647 72.1361 72.8438 70.2352C73.6947 71.1325 74.5735 71.928 75.48 72.6217C78.3244 74.8001 81.7515 76.2986 84.9844 76.2986C86.3643 76.2986 87.6878 75.7504 88.6635 74.7747C89.6393 73.7989 90.1875 72.4755 90.1875 71.0955C90.1875 69.7155 89.6393 68.3921 88.6635 67.4163C87.6878 66.4406 86.3643 65.8924 84.9844 65.8924C84.7485 65.8924 83.4997 65.6565 81.8209 64.3661C79.9608 62.9059 78.5279 60.9721 77.6722 58.7676Z" fill="url(#paint0_linear_155_1165)"/>
<defs>
<linearGradient id="paint0_linear_155_1165" x1="45.0938" y1="0" x2="45.0938" y2="76.3125" gradientUnits="userSpaceOnUse">
<stop stop-color="#47B2CE"/>
<stop offset="1" stop-color="#1992B1"/>
</linearGradient>
</defs>
</svg>
