<svg width="95" height="95" viewBox="0 0 95 95" fill="none" xmlns="http://www.w3.org/2000/svg">
<path d="M52.4124 52.4124H94.3423V83.8598C94.3423 86.7425 93.3168 89.2112 91.2657 91.2657C89.2147 93.3203 86.746 94.3458 83.8598 94.3423H52.4124V52.4124ZM52.4124 41.9299V0H83.8598C86.7425 0 89.2112 1.02728 91.2657 3.08185C93.3203 5.13642 94.3458 7.60329 94.3423 10.4825V41.9299H52.4124ZM41.9299 41.9299H0V10.4825C0 7.5998 1.02728 5.13292 3.08185 3.08185C5.13642 1.03078 7.60329 0.00349416 10.4825 0H41.9299V41.9299ZM41.9299 52.4124V94.3423H10.4825C7.5998 94.3423 5.13292 93.3168 3.08185 91.2657C1.03078 89.2147 0.00349416 86.746 0 83.8598V52.4124H41.9299Z" fill="url(#paint0_linear_155_132)"/>
<defs>
<linearGradient id="paint0_linear_155_132" x1="47.1712" y1="0" x2="47.1712" y2="94.3423" gradientUnits="userSpaceOnUse">
<stop stop-color="#47B2CE"/>
<stop offset="1" stop-color="#1692B1"/>
</linearGradient>
</defs>
</svg>
