<svg width="104" height="104" viewBox="0 0 104 104" fill="none" xmlns="http://www.w3.org/2000/svg">
<path d="M5.16394 12.7207C6.80253 11.0819 8.74787 9.78199 10.8889 8.89509C13.0299 8.00819 15.3246 7.55171 17.6421 7.55171C19.9595 7.55171 22.2542 8.00819 24.3952 8.89509C26.5363 9.78199 28.4816 11.0819 30.1202 12.7207L30.9823 13.5828C31.455 14.0554 32.0961 14.3209 32.7645 14.3209C33.433 14.3209 34.074 14.0554 34.5468 13.5828L35.4139 12.7257C37.9338 10.2058 41.1575 8.50794 44.6609 7.8555C48.1643 7.20306 51.7831 7.62665 55.0411 9.07052C53.6495 12.6012 52.9345 16.3621 52.9337 20.1571C52.9337 24.6543 53.9169 28.9196 55.6814 32.7563H35.2879C32.6136 32.7563 30.0489 33.8186 28.1579 35.7096C26.2669 37.6006 25.2046 40.1653 25.2046 42.8396V68.0479C25.2046 69.3721 25.4654 70.6833 25.9721 71.9067C26.4788 73.13 27.2216 74.2416 28.1579 75.1779C29.0942 76.1143 30.2058 76.857 31.4292 77.3637C32.6525 77.8705 33.9637 78.1313 35.2879 78.1313H60.4962C63.1705 78.1313 65.7352 77.0689 67.6262 75.1779C69.5172 73.2869 70.5796 70.7222 70.5796 68.0479V47.6494C74.2801 49.3517 78.2871 50.2866 82.3589 50.3975C86.4307 50.5084 90.4827 49.7931 94.2703 48.2947C95.7142 51.5527 96.1378 55.1715 95.4854 58.6749C94.8329 62.1783 93.135 65.4021 90.6152 67.9219L89.7581 68.7891C89.2855 69.2618 89.02 69.9029 89.02 70.5713C89.02 71.2397 89.2855 71.8808 89.7581 72.3535L90.6152 73.2157C93.8701 76.5357 95.6832 81.0061 95.6604 85.6555C95.6376 90.3048 93.7808 94.7573 90.4935 98.0452C87.2062 101.333 82.7541 103.191 78.1048 103.215C73.4554 103.238 68.9846 101.426 65.6639 98.1719L64.7968 97.3098C64.324 96.8372 63.683 96.5717 63.0145 96.5717C62.3461 96.5717 61.705 96.8372 61.2323 97.3098L60.3651 98.1669C57.0561 101.475 52.5686 103.333 47.8895 103.333C43.2105 103.333 38.723 101.475 35.4139 98.1669L34.5468 97.3098C34.074 96.8372 33.433 96.5717 32.7645 96.5717C32.0961 96.5717 31.455 96.8372 30.9823 97.3098L30.1151 98.1669C26.7871 101.381 22.3297 103.16 17.703 103.12C13.0764 103.079 8.65057 101.224 5.37889 97.9519C2.10721 94.6802 0.251418 90.2544 0.211213 85.6278C0.171008 81.0011 1.94961 76.5437 5.16394 73.2157L6.02607 72.3535C6.49865 71.8808 6.76413 71.2397 6.76413 70.5713C6.76413 69.9029 6.49865 69.2618 6.02607 68.7891L5.16898 67.9219C3.53022 66.2833 2.23028 64.338 1.34338 62.197C0.456483 60.056 0 57.7612 0 55.4438C0 53.1263 0.456483 50.8316 1.34338 48.6906C2.23028 46.5496 3.53022 44.6042 5.16898 42.9656L6.02607 42.1035C6.26082 41.8694 6.44707 41.5912 6.57416 41.2849C6.70124 40.9787 6.76665 40.6503 6.76665 40.3188C6.76665 39.9872 6.70124 39.6589 6.57416 39.3526C6.44707 39.0464 6.26082 38.7682 6.02607 38.534L5.16898 37.6719C3.53022 36.0333 2.23028 34.088 1.34338 31.947C0.456483 29.8059 0 27.5112 0 25.1938C0 22.8763 0.456483 20.5816 1.34338 18.4406C2.23028 16.2996 3.53022 14.3542 5.16898 12.7156M60.4962 68.053H35.2879V42.8447H60.4962V68.053ZM80.8091 1.60381C80.9992 1.13024 81.3268 0.72441 81.7495 0.438579C82.1723 0.152749 82.6709 0 83.1812 0C83.6915 0 84.1902 0.152749 84.6129 0.438579C85.0357 0.72441 85.3632 1.13024 85.5533 1.60381L86.8288 4.67923C88.9702 9.89865 93.0322 14.0978 98.1777 16.4112L101.798 18.0245C102.26 18.2387 102.652 18.5808 102.927 19.0105C103.202 19.4403 103.347 19.9396 103.347 20.4496C103.347 20.9595 103.202 21.4589 102.927 21.8886C102.652 22.3183 102.26 22.6604 101.798 22.8746L97.9659 24.5787C92.9513 26.8289 88.9617 30.8761 86.7835 35.9224L85.5382 38.776C85.3444 39.2407 85.0174 39.6376 84.5984 39.9168C84.1794 40.196 83.6872 40.345 83.1837 40.345C82.6803 40.345 82.188 40.196 81.7691 39.9168C81.3501 39.6376 81.0231 39.2407 80.8293 38.776L79.589 35.9275C77.4107 30.8784 73.419 26.8291 68.4016 24.5787L64.5699 22.8746C64.1057 22.6611 63.7124 22.3189 63.4367 21.8886C63.161 21.4583 63.0145 20.958 63.0145 20.447C63.0145 19.936 63.161 19.4357 63.4367 19.0055C63.7124 18.5752 64.1057 18.233 64.5699 18.0195L68.1848 16.4061C73.3284 14.0951 77.3901 9.8999 79.5336 4.68427L80.8091 1.60381Z" fill="url(#paint0_linear_155_314)"/>
<defs>
<linearGradient id="paint0_linear_155_314" x1="51.6738" y1="0" x2="51.6738" y2="103.333" gradientUnits="userSpaceOnUse">
<stop stop-color="#47B2CE"/>
<stop offset="1" stop-color="#1692B1"/>
</linearGradient>
</defs>
</svg>
