<svg width="92" height="88" viewBox="0 0 92 88" fill="none" xmlns="http://www.w3.org/2000/svg">
<path d="M13.125 6.5625C13.125 8.30298 12.4336 9.97218 11.2029 11.2029C9.97218 12.4336 8.30298 13.125 6.5625 13.125C4.82202 13.125 3.15282 12.4336 1.92211 11.2029C0.691404 9.97218 0 8.30298 0 6.5625C0 4.82202 0.691404 3.15282 1.92211 1.92211C3.15282 0.691404 4.82202 0 6.5625 0C8.30298 0 9.97218 0.691404 11.2029 1.92211C12.4336 3.15282 13.125 4.82202 13.125 6.5625ZM85.3125 13.125C86.1743 13.125 87.0277 12.9553 87.8239 12.6255C88.6201 12.2957 89.3435 11.8123 89.9529 11.2029C90.5623 10.5935 91.0457 9.87006 91.3755 9.07386C91.7053 8.27766 91.875 7.4243 91.875 6.5625C91.875 5.7007 91.7053 4.84734 91.3755 4.05114C91.0457 3.25494 90.5623 2.5315 89.9529 1.92211C89.3435 1.31273 88.6201 0.829337 87.8239 0.499541C87.0277 0.169745 86.1743 -1.28418e-08 85.3125 0C83.572 2.59352e-08 81.9028 0.691404 80.6721 1.92211C79.4414 3.15282 78.75 4.82202 78.75 6.5625C78.75 8.30298 79.4414 9.97218 80.6721 11.2029C81.9028 12.4336 83.572 13.125 85.3125 13.125ZM6.5625 17.5C7.72282 17.5 8.83562 17.9609 9.65609 18.7814C10.4766 19.6019 10.9375 20.7147 10.9375 21.875V43.75H21.175C20.2125 41.0112 19.6875 38.0625 19.6875 35C19.6875 30.6337 21.6562 26.8275 24.0362 23.7825C26.4338 20.72 29.5225 18.095 32.4362 15.995C36.0269 13.4167 39.8427 11.1676 43.8375 9.275L44.0475 9.17L44.1087 9.14375H44.1263L44.1437 9.135C44.7066 8.88274 45.3164 8.75234 45.9331 8.75234C46.5499 8.75234 47.1597 8.88274 47.7225 9.135L47.7487 9.14375L47.81 9.17L48.02 9.275L48.7812 9.63375C52.5034 11.4475 56.0657 13.5726 59.43 15.9862C62.3438 18.095 65.4325 20.7288 67.83 23.7825C70.2188 26.8275 72.1875 30.6337 72.1875 35C72.1875 38.0625 71.6625 41.0112 70.7 43.75H80.9375V21.875C80.9375 20.7147 81.3984 19.6019 82.2189 18.7814C83.0394 17.9609 84.1522 17.5 85.3125 17.5C86.4728 17.5 87.5856 17.9609 88.4061 18.7814C89.2266 19.6019 89.6875 20.7147 89.6875 21.875V78.75C89.6875 81.0706 88.7656 83.2962 87.1247 84.9372C85.4837 86.5781 83.2581 87.5 80.9375 87.5H63.4375C61.1169 87.5 58.8913 86.5781 57.2503 84.9372C55.6094 83.2962 54.6875 81.0706 54.6875 78.75V70C54.6875 67.6794 53.7656 65.4538 52.1247 63.8128C50.4837 62.1719 48.2581 61.25 45.9375 61.25C43.6169 61.25 41.3913 62.1719 39.7503 63.8128C38.1094 65.4538 37.1875 67.6794 37.1875 70V78.75C37.1875 81.0706 36.2656 83.2962 34.6247 84.9372C32.9837 86.5781 30.7581 87.5 28.4375 87.5H10.9375C8.61686 87.5 6.39126 86.5781 4.75032 84.9372C3.10937 83.2962 2.1875 81.0706 2.1875 78.75V21.875C2.1875 20.7147 2.64844 19.6019 3.46891 18.7814C4.28938 17.9609 5.40218 17.5 6.5625 17.5Z" fill="url(#paint0_linear_155_1154)"/>
<defs>
<linearGradient id="paint0_linear_155_1154" x1="45.9375" y1="0" x2="45.9375" y2="87.5" gradientUnits="userSpaceOnUse">
<stop stop-color="#47B2CE"/>
<stop offset="1" stop-color="#1992B1"/>
</linearGradient>
</defs>
</svg>
