<svg width="94" height="94" viewBox="0 0 94 94" fill="none" xmlns="http://www.w3.org/2000/svg">
<path d="M7.3705 63.8776C9.32527 63.8776 11.2 64.6542 12.5822 66.0364C13.9645 67.4186 14.741 69.2934 14.741 71.2481V78.6186H22.1115C24.0663 78.6186 25.941 79.3952 27.3232 80.7774C28.7055 82.1596 29.482 84.0343 29.482 85.9891C29.482 87.9439 28.7055 89.8186 27.3232 91.2008C25.941 92.5831 24.0663 93.3596 22.1115 93.3596H12.2842C9.0262 93.3596 5.90167 92.0654 3.59795 89.7617C1.29422 87.4579 1.45842e-07 84.3334 1.45842e-07 81.0755V71.2481C1.45842e-07 69.2934 0.776533 67.4186 2.15877 66.0364C3.541 64.6542 5.41572 63.8776 7.3705 63.8776ZM85.9891 63.8776C87.8213 63.8777 89.5878 64.5602 90.9442 65.7921C92.3005 67.0239 93.1493 68.7168 93.3252 70.5406L93.3596 71.2481V81.0755C93.3601 84.1942 92.1743 87.1965 90.0427 89.4731C87.9111 91.7498 84.9934 93.1305 81.8813 93.3351L81.0755 93.3596H71.2481C69.3553 93.3587 67.5354 92.6296 66.1655 91.3233C64.7956 90.0171 63.9808 88.234 63.8898 86.3433C63.7988 84.4527 64.4387 82.5995 65.6769 81.1678C66.9151 79.7361 68.6566 78.8357 70.5406 78.653L71.2481 78.6186H78.6186V71.2481C78.6186 69.2934 79.3952 67.4186 80.7774 66.0364C82.1596 64.6542 84.0343 63.8776 85.9891 63.8776ZM58.7183 54.0503C60.1203 52.7145 61.9918 51.9841 63.9281 52.0171C65.8643 52.0501 67.7098 52.8438 69.0655 54.2267C70.4212 55.6095 71.1783 57.4703 71.1729 59.4069C71.1676 61.3434 70.4003 63.2 69.037 64.5754C63.0725 70.4363 55.0419 73.7156 46.6798 73.705C37.9777 73.705 30.0716 70.2163 24.3226 64.5754C23.6155 63.9016 23.0493 63.094 22.6569 62.1995C22.2646 61.3049 22.054 60.3414 22.0374 59.3647C22.0207 58.3881 22.1984 57.4179 22.56 56.5106C22.9216 55.6032 23.4599 54.7767 24.1437 54.0793C24.8275 53.3818 25.6432 52.8272 26.5432 52.4477C27.4432 52.0682 28.4097 51.8714 29.3865 51.8687C30.3632 51.866 31.3308 52.0575 32.2329 52.432C33.135 52.8065 33.9537 53.3566 34.6413 54.0503C37.7517 57.0968 41.9922 58.964 46.6798 58.964C51.3674 58.964 55.6079 57.0968 58.7183 54.0503ZM31.9388 27.0252C34.5452 27.0252 37.0448 28.0605 38.8878 29.9035C40.7308 31.7465 41.7661 34.2461 41.7661 36.8525C41.7661 39.4588 40.7308 41.9585 38.8878 43.8014C37.0448 45.6444 34.5452 46.6798 31.9388 46.6798C29.3324 46.6798 26.8328 45.6444 24.9898 43.8014C23.1469 41.9585 22.1115 39.4588 22.1115 36.8525C22.1115 34.2461 23.1469 31.7465 24.9898 29.9035C26.8328 28.0605 29.3324 27.0252 31.9388 27.0252ZM61.4208 27.0252C64.0272 27.0252 66.5268 28.0605 68.3698 29.9035C70.2127 31.7465 71.2481 34.2461 71.2481 36.8525C71.2481 39.4588 70.2127 41.9585 68.3698 43.8014C66.5268 45.6444 64.0272 46.6798 61.4208 46.6798C58.8144 46.6798 56.3148 45.6444 54.4718 43.8014C52.6288 41.9585 51.5935 39.4588 51.5935 36.8525C51.5935 34.2461 52.6288 31.7465 54.4718 29.9035C56.3148 28.0605 58.8144 27.0252 61.4208 27.0252ZM22.1115 1.45842e-07C24.0043 0.000937355 25.8242 0.730053 27.1941 2.03627C28.564 3.34248 29.3789 5.12565 29.4698 7.01629C29.5608 8.90693 28.9209 10.7601 27.6827 12.1918C26.4446 13.6235 24.703 14.5239 22.8191 14.7066L22.1115 14.741H14.741V22.1115C14.7401 24.0043 14.0109 25.8242 12.7047 27.1941C11.3985 28.564 9.61534 29.3789 7.7247 29.4698C5.83406 29.5608 3.98089 28.9209 2.5492 27.6827C1.11751 26.4446 0.217044 24.703 0.0343956 22.8191L1.45842e-07 22.1115V12.2842C-0.000480145 9.16537 1.18534 6.16315 3.31692 3.88649C5.4485 1.60982 8.36624 0.229162 11.4783 0.024569L12.2842 1.45842e-07H22.1115ZM81.0755 1.45842e-07C84.1942 -0.000480145 87.1965 1.18534 89.4731 3.31692C91.7498 5.4485 93.1305 8.36624 93.3351 11.4783L93.3596 12.2842V22.1115C93.3587 24.0043 92.6296 25.8242 91.3233 27.1941C90.0171 28.564 88.234 29.3789 86.3433 29.4698C84.4527 29.5608 82.5995 28.9209 81.1678 27.6827C79.7361 26.4446 78.8357 24.703 78.653 22.8191L78.6186 22.1115V14.741H71.2481C69.3553 14.7401 67.5354 14.0109 66.1655 12.7047C64.7956 11.3985 63.9808 9.61534 63.8898 7.7247C63.7988 5.83406 64.4387 3.98089 65.6769 2.5492C66.9151 1.11751 68.6566 0.217044 70.5406 0.0343956L71.2481 1.45842e-07H81.0755Z" fill="url(#paint0_linear_155_129)"/>
<defs>
<linearGradient id="paint0_linear_155_129" x1="46.6798" y1="0" x2="46.6798" y2="93.3596" gradientUnits="userSpaceOnUse">
<stop stop-color="#47B2CE"/>
<stop offset="1" stop-color="#1692B1"/>
</linearGradient>
</defs>
</svg>
