<svg width="110" height="79" viewBox="0 0 110 79" fill="none" xmlns="http://www.w3.org/2000/svg">
<g clip-path="url(#clip0_155_954)">
<path d="M110 5.925V73.075C110 74.8031 109.202 76.0169 107.606 76.7164C107.074 76.9221 106.562 77.025 106.071 77.025C104.967 77.025 104.046 76.6341 103.309 75.8523L78.5714 50.9797V61.225C78.5714 66.1214 76.8424 70.3079 73.3845 73.7848C69.9265 77.2616 65.7626 79 60.8929 79H17.6786C12.8088 79 8.6449 77.2616 5.18694 73.7848C1.72898 70.3079 0 66.1214 0 61.225V17.775C0 12.8786 1.72898 8.69206 5.18694 5.21523C8.6449 1.73841 12.8088 0 17.6786 0H60.8929C65.7626 0 69.9265 1.73841 73.3845 5.21523C76.8424 8.69206 78.5714 12.8786 78.5714 17.775V27.9586L103.309 3.14766C104.046 2.36589 104.967 1.975 106.071 1.975C106.562 1.975 107.074 2.07786 107.606 2.28359C109.202 2.98307 110 4.19688 110 5.925Z" fill="url(#paint0_linear_155_954)"/>
</g>
<defs>
<linearGradient id="paint0_linear_155_954" x1="55" y1="0" x2="55" y2="79" gradientUnits="userSpaceOnUse">
<stop stop-color="#47B2CE"/>
<stop offset="1" stop-color="#1992B1"/>
</linearGradient>
<clipPath id="clip0_155_954">
<rect width="110" height="79" fill="white"/>
</clipPath>
</defs>
</svg>
