<svg width="99" height="99" viewBox="0 0 99 99" fill="none" xmlns="http://www.w3.org/2000/svg">
<path fill-rule="evenodd" clip-rule="evenodd" d="M83.9212 1.19C76.7659 0.608125 65.4084 0 49.2188 0C33.0291 0 21.6716 0.608125 14.5162 1.19C7.32375 1.77187 1.77187 7.32375 1.19 14.5162C0.608125 21.6716 0 33.0291 0 49.2188C0 65.4084 0.608125 76.7659 1.19 83.9212C1.77406 91.1137 7.32375 96.6634 14.5162 97.2475C21.6716 97.8294 33.0291 98.4375 49.2188 98.4375C65.4084 98.4375 76.7659 97.8294 83.9212 97.2475C91.1137 96.6634 96.6634 91.1137 97.2475 83.9212C97.8294 76.7659 98.4375 65.4084 98.4375 49.2188C98.4375 33.0291 97.8294 21.6716 97.2475 14.5162C96.6634 7.32375 91.1137 1.77406 83.9212 1.19ZM77.0547 29.2316C76.8673 28.9915 76.6277 28.7974 76.354 28.6639C76.0803 28.5303 75.7798 28.4609 75.4753 28.4609C75.1708 28.4609 74.8703 28.5303 74.5966 28.6639C74.323 28.7974 74.0833 28.9915 73.8959 29.2316C70.8422 33.1034 68.7619 37.0606 67.6572 39.4166C67.5264 39.6769 67.4587 39.9642 67.4594 40.2555C67.46 40.5468 67.5291 40.8339 67.6611 41.0936C67.7931 41.3532 67.9842 41.5783 68.2191 41.7505C68.454 41.9228 68.7261 42.0375 69.0134 42.0853C73.2858 42.8483 77.6599 42.8438 81.9306 42.0722C82.2176 42.0238 82.4892 41.9087 82.7235 41.7362C82.9579 41.5637 83.1485 41.3386 83.28 41.0789C83.4115 40.8193 83.4802 40.5325 83.4807 40.2415C83.4811 39.9505 83.4132 39.6634 83.2825 39.4034C82.1822 37.0497 80.1062 33.0947 77.0547 29.2316ZM73.8959 69.2059C74.0833 69.446 74.323 69.6401 74.5966 69.7736C74.8703 69.9072 75.1708 69.9766 75.4753 69.9766C75.7798 69.9766 76.0803 69.9072 76.354 69.7736C76.6277 69.6401 76.8673 69.446 77.0547 69.2059C80.1062 65.3428 82.1822 61.3878 83.2825 59.0341C83.4132 58.7741 83.4811 58.487 83.4807 58.196C83.4802 57.905 83.4115 57.6182 83.28 57.3586C83.1485 57.0989 82.9579 56.8738 82.7235 56.7013C82.4892 56.5288 82.2176 56.4137 81.9306 56.3653C77.66 55.593 73.2859 55.5878 69.0134 56.35C68.7261 56.3978 68.454 56.5125 68.2191 56.6848C67.9842 56.857 67.7931 57.0821 67.6611 57.3418C67.5291 57.6014 67.46 57.8885 67.4594 58.1798C67.4587 58.4711 67.5264 58.7584 67.6572 59.0187C68.7619 61.3769 70.8422 65.3363 73.8959 69.2059ZM36.0959 33.9062C33.7753 33.9062 31.5497 32.9844 29.9088 31.3434C28.2678 29.7025 27.3459 27.4769 27.3459 25.1562C27.3459 22.8356 28.2678 20.61 29.9088 18.9691C31.5497 17.3281 33.7753 16.4062 36.0959 16.4062C38.4166 16.4062 40.6422 17.3281 42.2831 18.9691C43.9241 20.61 44.8459 22.8356 44.8459 25.1562C44.8459 27.4769 43.9241 29.7025 42.2831 31.3434C40.6422 32.9844 38.4166 33.9062 36.0959 33.9062ZM44.8963 38.5219C47.5213 38.6619 49.7525 40.4272 50.4525 42.9625C51.4741 46.6594 52.8456 52.2637 53.375 57.3781C53.6025 59.5962 51.9181 61.4688 49.6934 61.6613C48.5209 61.7619 47.1428 61.8712 45.6553 61.9741L44.0759 78.1462C43.8834 80.115 42.3916 81.7053 40.4184 81.8606C37.5404 82.0853 34.6493 82.0853 31.7712 81.8606C29.7981 81.7053 28.3041 80.115 28.1116 78.1462L26.5366 61.9741C25.0469 61.8734 23.6709 61.7619 22.4941 61.6613C20.2716 61.4688 18.585 59.5962 18.8147 57.3781C19.3441 52.2637 20.7156 46.6594 21.7372 42.9625C22.077 41.7311 22.7973 40.6387 23.7952 39.8412C24.7931 39.0437 26.0174 38.5819 27.2934 38.5219C30.2243 38.366 33.1587 38.2858 36.0938 38.2812C39.4297 38.2812 42.5403 38.3994 44.8963 38.5219Z" fill="url(#paint0_linear_155_309)"/>
<defs>
<linearGradient id="paint0_linear_155_309" x1="49.2188" y1="0" x2="49.2188" y2="98.4375" gradientUnits="userSpaceOnUse">
<stop stop-color="#47B2CE"/>
<stop offset="1" stop-color="#1692B1"/>
</linearGradient>
</defs>
</svg>
