<svg width="104" height="104" viewBox="0 0 104 104" fill="none" xmlns="http://www.w3.org/2000/svg">
<path d="M10.3954 46.8C11.7209 46.8015 12.9958 47.309 13.9597 48.2188C14.9236 49.1287 15.5036 50.3722 15.5813 51.6953C15.6589 53.0184 15.2284 54.3212 14.3777 55.3375C13.5269 56.3539 12.3201 57.0071 11.0039 57.1636L10.3954 57.2H5.19482C3.86929 57.1985 2.59436 56.691 1.6305 55.7812C0.66665 54.8714 0.0866268 53.6278 0.00894518 52.3048C-0.0687365 50.9817 0.361787 49.6788 1.21255 48.6625C2.06331 47.6461 3.2701 46.9929 4.58635 46.8364L5.19482 46.8H10.3954ZM52 0C53.2738 0.000168015 54.5032 0.467772 55.4551 1.31412C56.407 2.16047 57.0151 3.32669 57.1642 4.5916L57.2006 5.2V10.4C57.1991 11.7254 56.6916 13.0002 55.7816 13.9639C54.8717 14.9277 53.628 15.5076 52.3048 15.5853C50.9815 15.663 49.6786 15.2325 48.6621 14.3818C47.6456 13.5312 46.9924 12.3245 46.8358 11.0084L46.7994 10.4V5.2C46.7994 3.82087 47.3473 2.49823 48.3226 1.52304C49.2979 0.547855 50.6207 0 52 0ZM98.8052 46.8C100.131 46.8015 101.406 47.309 102.369 48.2188C103.333 49.1287 103.913 50.3722 103.991 51.6953C104.069 53.0184 103.638 54.3212 102.787 55.3375C101.937 56.3539 100.73 57.0071 99.4137 57.1636L98.8052 57.2H93.6046C92.2791 57.1985 91.0042 56.691 90.0403 55.7812C89.0765 54.8714 88.4964 53.6278 88.4187 52.3048C88.3411 50.9817 88.7716 49.6788 89.6223 48.6625C90.4731 47.6461 91.6799 46.9929 92.9961 46.8364L93.6046 46.8H98.8052ZM15.0395 15.0436C15.935 14.1483 17.1265 13.6104 18.3903 13.531C19.6542 13.4515 20.9037 13.8359 21.9043 14.612L22.3931 15.0436L26.0335 18.6836C26.9662 19.6194 27.5078 20.8751 27.5481 22.1956C27.5884 23.5161 27.1245 24.8025 26.2507 25.7934C25.3768 26.7844 24.1585 27.4056 22.8431 27.5309C21.5278 27.6562 20.214 27.2761 19.1688 26.468L18.6799 26.0364L15.0395 22.3964C14.0645 21.4213 13.5168 20.0989 13.5168 18.72C13.5168 17.3411 14.0645 16.0187 15.0395 15.0436ZM81.6069 15.0436C82.5428 14.111 83.7986 13.5695 85.1193 13.5292C86.44 13.4889 87.7265 13.9527 88.7175 14.8265C89.7086 15.7003 90.3298 16.9185 90.4551 18.2337C90.5804 19.5489 90.2004 20.8624 89.3922 21.9076L88.9605 22.3964L85.3201 26.0364C84.3842 26.969 83.1284 27.5105 81.8077 27.5508C80.487 27.5911 79.2005 27.1273 78.2095 26.2535C77.2184 25.3797 76.5971 24.1615 76.4718 22.8463C76.3465 21.5311 76.7266 20.2176 77.5348 19.1724L77.9665 18.6836L81.6069 15.0436ZM62.4012 83.2C63.7804 83.2 65.1032 83.7479 66.0785 84.723C67.0538 85.6982 67.6017 87.0209 67.6017 88.4C67.6017 92.5374 65.958 96.5053 63.0321 99.4309C60.1062 102.356 56.1378 104 52 104C47.8622 104 43.8938 102.356 40.9679 99.4309C38.042 96.5053 36.3983 92.5374 36.3983 88.4C36.3984 87.1264 36.8661 85.8971 37.7125 84.9453C38.559 83.9935 39.7253 83.3854 40.9904 83.2364L41.5989 83.2H62.4012ZM52 20.8C58.5491 20.8 64.9321 22.8604 70.245 26.6892C75.5579 30.5181 79.5312 35.9214 81.6022 42.1337C83.6732 48.346 83.7368 55.0524 81.7841 61.3028C79.8314 67.5533 75.9613 73.031 70.7221 76.96C70.0053 77.4983 69.1615 77.8423 68.2726 77.9584L67.6017 78H36.3983C35.273 78 34.1781 77.6351 33.2779 76.96C28.0387 73.031 24.1686 67.5533 22.2159 61.3028C20.2632 55.0524 20.3268 48.346 22.3978 42.1337C24.4688 35.9214 28.4422 30.5181 33.755 26.6892C39.0679 22.8604 45.4509 20.8 52 20.8Z" fill="url(#paint0_linear_155_312)"/>
<defs>
<linearGradient id="paint0_linear_155_312" x1="52" y1="0" x2="52" y2="104" gradientUnits="userSpaceOnUse">
<stop stop-color="#47B2CE"/>
<stop offset="1" stop-color="#1692B1"/>
</linearGradient>
</defs>
</svg>
