<svg width="97" height="97" viewBox="0 0 97 97" fill="none" xmlns="http://www.w3.org/2000/svg">
<path fill-rule="evenodd" clip-rule="evenodd" d="M17.0803 0.952C23.3776 0.454559 33.2321 0 48.2432 0C63.2523 0 73.1089 0.454559 79.4062 0.952C86.885 1.54378 93.0151 6.53321 94.2952 14.2157C95.4209 20.9826 96.4865 31.7398 96.4865 48.2432C96.4865 64.7467 95.4209 75.5039 94.2952 82.2708C93.0151 89.9533 86.885 94.9427 79.4062 95.5345C73.1089 96.0319 63.2544 96.4865 48.2432 96.4865C33.2342 96.4865 23.3755 96.0319 17.0803 95.5345C9.60148 94.9427 3.47137 89.9533 2.19132 82.2708C1.06564 75.5039 0 64.7467 0 48.2432C0 31.7398 1.06564 20.9826 2.19132 14.2157C3.47137 6.53321 9.60148 1.54378 17.0803 0.952ZM32.0464 70.8361C29.2097 67.6799 30.9379 63.6918 35.1768 63.501C36.815 63.4259 38.7533 63.3616 41.0368 63.3166C40.827 58.2949 40.7269 53.2693 40.7366 48.2432C40.7366 41.4635 40.8931 36.4054 41.0368 33.1721C38.7554 33.1292 36.8171 33.0648 35.1768 32.9898C30.94 32.7968 29.2118 28.8087 32.0464 25.6525C33.5104 24.0278 35.0102 22.4358 36.5448 20.8775C40.2156 17.136 43.0201 14.9061 44.9648 13.5917C46.9911 12.2195 49.489 12.2195 51.5174 13.5917C53.4599 14.9061 56.2666 17.136 59.9353 20.8775C61.4713 22.4364 62.9726 24.0292 64.438 25.6547C67.2704 28.8109 65.5443 32.7968 61.3075 32.9877C59.6715 33.0627 57.7418 33.127 55.4712 33.1721C55.6084 36.2382 55.7477 41.1161 55.7477 48.2454C55.7477 55.3725 55.6084 60.2505 55.4712 63.3187C57.7418 63.3616 59.6694 63.4259 61.3032 63.501C65.5422 63.6939 67.2682 67.6821 64.4337 70.8382C62.9692 72.4625 61.4693 74.0545 59.9353 75.6132C56.2666 79.3526 53.4599 81.5847 51.5174 82.899C50.5559 83.5682 49.4125 83.9269 48.2411 83.9269C47.0697 83.9269 45.9263 83.5682 44.9648 82.899C43.0223 81.5847 40.2156 79.3526 36.5448 75.6132C35.0095 74.0543 33.5111 72.4616 32.0464 70.8361Z" fill="url(#paint0_linear_155_125)"/>
<defs>
<linearGradient id="paint0_linear_155_125" x1="48.2432" y1="0" x2="48.2432" y2="96.4865" gradientUnits="userSpaceOnUse">
<stop stop-color="#47B2CE"/>
<stop offset="1" stop-color="#1692B1"/>
</linearGradient>
</defs>
</svg>
