<svg width="106" height="106" viewBox="0 0 106 106" fill="none" xmlns="http://www.w3.org/2000/svg">
<path d="M52.9376 81.2498C54.15 82.0579 55.413 82.7872 56.7189 83.4334V102.118C56.7189 103.12 56.3205 104.082 55.6114 104.791C54.9022 105.5 53.9405 105.899 52.9376 105.899C51.9348 105.899 50.973 105.5 50.2639 104.791C49.5547 104.082 49.1564 103.12 49.1564 102.118V83.4334C50.4622 82.7872 51.7252 82.0579 52.9376 81.2498ZM86.0708 22.0448C83.3355 15.5139 78.731 9.93698 72.836 6.01477C66.941 2.09256 60.0182 0 52.9376 0C45.857 0 38.9343 2.09256 33.0392 6.01477C27.1442 9.93698 22.5397 15.5139 19.8044 22.0448C13.8972 24.7448 8.89012 29.0852 5.37912 34.5495C1.86812 40.0138 0.0010434 46.3717 0.000110137 52.8668C-0.0471555 70.9222 15.1251 86.5199 33.1522 86.9925C38.6969 87.1243 44.1901 85.9027 49.1564 83.4334V66.64L28.558 56.3455C27.6604 55.8967 26.9779 55.1098 26.6606 54.1578C26.3433 53.2058 26.4171 52.1667 26.8659 51.2692C27.3147 50.3716 28.1016 49.6891 29.0536 49.3718C30.0056 49.0544 31.0447 49.1283 31.9422 49.5771L49.1564 58.1889V34.055C49.1564 33.0522 49.5547 32.0904 50.2639 31.3813C50.973 30.6722 51.9348 30.2738 52.9376 30.2738C53.9405 30.2738 54.9022 30.6722 55.6114 31.3813C56.3205 32.0904 56.7189 33.0522 56.7189 34.055V46.8451L73.933 38.2333C74.3774 38.0111 74.8613 37.8786 75.3569 37.8434C75.8525 37.8082 76.3502 37.8709 76.8216 38.028C77.293 38.1852 77.7288 38.4336 78.1042 38.7591C78.4795 39.0847 78.7871 39.481 79.0093 39.9254C79.2315 40.3699 79.364 40.8537 79.3993 41.3493C79.4345 41.8449 79.3717 42.3427 79.2146 42.814C79.0575 43.2854 78.8091 43.7212 78.4835 44.0966C78.1579 44.472 77.7616 44.7795 77.3172 45.0018L56.7189 55.2962V83.4334C61.4198 85.7671 66.5956 86.985 71.8439 86.9925H72.7041C90.7501 86.5199 105.927 70.9222 105.875 52.8668C105.874 46.3717 104.007 40.0138 100.496 34.5495C96.9851 29.0852 91.978 24.7448 86.0708 22.0448Z" fill="url(#paint0_linear_155_957)"/>
<defs>
<linearGradient id="paint0_linear_155_957" x1="52.9376" y1="0" x2="52.9376" y2="105.899" gradientUnits="userSpaceOnUse">
<stop stop-color="#47B2CE"/>
<stop offset="1" stop-color="#1992B1"/>
</linearGradient>
</defs>
</svg>
