<svg width="105" height="85" viewBox="0 0 105 85" fill="none" xmlns="http://www.w3.org/2000/svg">
<g clip-path="url(#clip0_155_1147)">
<path d="M55.4203 0.896484C53.6484 -0.298828 51.3516 -0.298828 49.5797 0.896484L27.2836 15.9375H7.875C3.52734 15.9375 0 19.5068 0 23.9062V77.0312C0 81.4307 3.52734 85 7.875 85H42V69.0625C42 63.2021 46.7086 58.4375 52.5 58.4375C58.2914 58.4375 63 63.2021 63 69.0625V85H97.125C101.473 85 105 81.4307 105 77.0312V23.9062C105 19.5068 101.473 15.9375 97.125 15.9375H77.7164L55.4203 0.896484ZM15.75 31.875H21C22.4438 31.875 23.625 33.0703 23.625 34.5312V45.1562C23.625 46.6172 22.4438 47.8125 21 47.8125H15.75C14.3062 47.8125 13.125 46.6172 13.125 45.1562V34.5312C13.125 33.0703 14.3062 31.875 15.75 31.875ZM81.375 34.5312C81.375 33.0703 82.5563 31.875 84 31.875H89.25C90.6937 31.875 91.875 33.0703 91.875 34.5312V45.1562C91.875 46.6172 90.6937 47.8125 89.25 47.8125H84C82.5563 47.8125 81.375 46.6172 81.375 45.1562V34.5312ZM15.75 53.125H21C22.4438 53.125 23.625 54.3203 23.625 55.7812V66.4062C23.625 67.8672 22.4438 69.0625 21 69.0625H15.75C14.3062 69.0625 13.125 67.8672 13.125 66.4062V55.7812C13.125 54.3203 14.3062 53.125 15.75 53.125ZM81.375 55.7812C81.375 54.3203 82.5563 53.125 84 53.125H89.25C90.6937 53.125 91.875 54.3203 91.875 55.7812V66.4062C91.875 67.8672 90.6937 69.0625 89.25 69.0625H84C82.5563 69.0625 81.375 67.8672 81.375 66.4062V55.7812ZM38.0625 29.2188C38.0625 25.3441 39.5836 21.6282 42.2911 18.8884C44.9987 16.1486 48.6709 14.6094 52.5 14.6094C56.3291 14.6094 60.0013 16.1486 62.7089 18.8884C65.4164 21.6282 66.9375 25.3441 66.9375 29.2188C66.9375 33.0934 65.4164 36.8093 62.7089 39.5491C60.0013 42.2889 56.3291 43.8281 52.5 43.8281C48.6709 43.8281 44.9987 42.2889 42.2911 39.5491C39.5836 36.8093 38.0625 33.0934 38.0625 29.2188ZM52.5 21.25C51.0563 21.25 49.875 22.4453 49.875 23.9062V29.2188C49.875 30.6797 51.0563 31.875 52.5 31.875H57.75C59.1937 31.875 60.375 30.6797 60.375 29.2188C60.375 27.7578 59.1937 26.5625 57.75 26.5625H55.125V23.9062C55.125 22.4453 53.9437 21.25 52.5 21.25Z" fill="url(#paint0_linear_155_1147)"/>
</g>
<defs>
<linearGradient id="paint0_linear_155_1147" x1="52.5" y1="0" x2="52.5" y2="85" gradientUnits="userSpaceOnUse">
<stop stop-color="#47B2CE"/>
<stop offset="1" stop-color="#1992B1"/>
</linearGradient>
<clipPath id="clip0_155_1147">
<rect width="105" height="85" fill="white"/>
</clipPath>
</defs>
</svg>
