<svg width="87" height="96" viewBox="0 0 87 96" fill="none" xmlns="http://www.w3.org/2000/svg">
<path d="M0 84.5099V35.4396C0 33.7131 0.385342 32.0774 1.15603 30.5326C1.92671 28.9878 2.98867 27.7156 4.34189 26.716L36.9061 2.1809C38.8056 0.726967 40.9766 0 43.4189 0C45.8612 0 48.0322 0.726967 49.9317 2.1809L82.4959 26.716C83.8528 27.7156 84.9165 28.9878 85.6872 30.5326C86.4579 32.0774 86.8414 33.7131 86.8378 35.4396V84.5099C86.8378 87.5086 85.7741 90.0766 83.6465 92.2139C81.519 94.3512 78.9645 95.418 75.9831 95.4144H59.701C58.1632 95.4144 56.8752 94.891 55.8367 93.8441C54.7983 92.7973 54.2773 91.5033 54.2736 89.9621V62.7009C54.2736 61.1561 53.7526 59.8621 52.7106 58.8189C51.6685 57.7757 50.3804 57.2523 48.8463 57.2486H37.9915C36.4538 57.2486 35.1657 57.7721 34.1273 58.8189C33.0888 59.8657 32.5678 61.1597 32.5642 62.7009V89.9621C32.5642 91.5069 32.0432 92.8028 31.0011 93.8496C29.959 94.8964 28.671 95.418 27.1368 95.4144H10.8547C7.86968 95.4144 5.3152 94.3476 3.19129 92.2139C1.06738 90.0803 0.00361824 87.5123 0 84.5099Z" fill="url(#paint0_linear_155_122)"/>
<defs>
<linearGradient id="paint0_linear_155_122" x1="43.4189" y1="0" x2="43.4189" y2="95.4144" gradientUnits="userSpaceOnUse">
<stop stop-color="#47B2CE"/>
<stop offset="1" stop-color="#1692B1"/>
</linearGradient>
</defs>
</svg>
