<svg width="97" height="97" viewBox="0 0 97 97" fill="none" xmlns="http://www.w3.org/2000/svg">
<path d="M16.4162 12.1243C23.7136 5.67013 32.7916 1.57277 42.4591 0.369808C42.8349 2.97652 43.3078 5.88027 43.914 8.90527C45.0052 14.3612 46.5207 20.3021 48.6182 25.7398C50.2914 30.0984 52.3949 34.2813 55.0562 37.6518L48.497 44.2111L16.4162 12.1243ZM12.1243 16.4223C5.66793 23.7189 1.56842 32.797 0.363745 42.4652C2.97046 42.841 5.86815 43.3139 8.89315 43.9201C14.3491 45.0112 20.2899 46.5268 25.7276 48.6243C30.0863 50.2974 34.2752 52.401 37.6397 55.0622L44.211 48.497L12.1243 16.4223ZM33.3174 59.3906C30.7107 57.4507 27.3644 55.7473 23.5574 54.2802C18.544 52.3525 12.9669 50.9218 7.70497 49.867C5.1486 49.3542 2.57943 48.9075 1.78385e-05 48.5273C-0.0101219 60.3332 4.30276 71.7343 12.1243 80.5777L33.3174 59.3906ZM16.4041 84.8697L37.6033 63.6765C39.5432 66.2832 41.2406 69.6295 42.7076 73.4365C44.6354 78.4438 46.0661 84.0271 47.1209 89.2829C47.6665 91.9987 48.1029 94.6176 48.4545 97C36.6507 97.0086 25.252 92.6959 16.4102 84.8757M41.9317 59.3542L48.497 52.789L80.5777 84.8697C73.2811 91.326 64.203 95.4255 54.5348 96.6302C54.1529 94.0235 53.674 91.1197 53.0739 88.0947C51.9827 82.6388 50.4672 76.6979 48.3757 71.2602C46.6965 66.9076 44.599 62.7248 41.9317 59.3542ZM84.8697 80.5838C91.326 73.2872 95.4255 64.2091 96.6302 54.5409C94.0235 54.1651 91.1197 53.6922 88.0947 53.086C82.6388 51.9948 76.6979 50.4793 71.2602 48.3879C66.9076 46.7086 62.7187 44.6111 59.3482 41.9438L52.7829 48.497L84.8697 80.5838ZM63.6704 37.6215C66.2772 39.5614 69.6295 41.2588 73.4305 42.7258C78.4438 44.6536 84.027 46.0842 89.2829 47.1391C91.9987 47.6846 94.6176 48.1211 97 48.4727C97.0101 36.6668 92.6972 25.2657 84.8757 16.4223L63.6704 37.6215ZM80.5777 12.1243C71.7343 4.30276 60.3332 -0.0101219 48.5273 1.78385e-05C48.8789 2.38243 49.3154 5.00127 49.8609 7.7171C50.9158 12.979 52.3464 18.5562 54.2742 23.5635C55.7412 27.3705 57.4386 30.7168 59.3785 33.3235L80.5777 12.1243Z" fill="url(#paint0_linear_155_963)"/>
<defs>
<linearGradient id="paint0_linear_155_963" x1="48.5" y1="0" x2="48.5" y2="97" gradientUnits="userSpaceOnUse">
<stop stop-color="#47B2CE"/>
<stop offset="1" stop-color="#1992B1"/>
</linearGradient>
</defs>
</svg>
