<svg width="98" height="98" viewBox="0 0 98 98" fill="none" xmlns="http://www.w3.org/2000/svg">
<path d="M73.125 6.5325C80.4778 10.7779 86.5943 16.8701 90.8691 24.2058C95.1439 31.5416 97.4286 39.8666 97.4972 48.3568C97.5658 56.8469 95.4158 65.2078 91.2601 72.6116C87.1044 80.0155 81.0871 86.2057 73.8038 90.5693C66.5205 94.9329 58.2239 97.3188 49.7352 97.4906C41.2466 97.6624 32.8602 95.6142 25.4063 91.5488C17.9525 87.4834 11.6896 81.5418 7.23775 74.3121C2.78588 67.0825 0.29937 58.8155 0.0243756 50.3295L0 48.75L0.0243756 47.1705C0.352552 37.0266 3.83853 27.238 9.99608 19.1701C16.1536 11.1022 24.6757 5.15727 34.3736 2.1645C33.975 4.27789 34.0475 6.45318 34.5857 8.53538C35.124 10.6176 36.1149 12.5554 37.4877 14.2109C38.8606 15.8663 40.5817 17.1986 42.5284 18.1129C44.475 19.0271 46.5993 19.5007 48.75 19.5C50.0429 19.5 51.2829 18.9864 52.1971 18.0721C53.1114 17.1579 53.625 15.9179 53.625 14.625C53.625 13.3321 53.1114 12.0921 52.1971 11.1779C51.2829 10.2636 50.0429 9.75 48.75 9.75L48.1796 9.71588C46.9458 9.56912 45.8145 8.95677 45.017 8.00393C44.2195 7.0511 43.816 5.8297 43.8888 4.5893C43.9616 3.3489 44.5053 2.18311 45.4088 1.33014C46.3123 0.477161 47.5075 0.0013782 48.75 0C57.1642 0 65.5834 2.17912 73.125 6.5325ZM64.35 59.8943C63.4268 58.9893 62.1819 58.4881 60.8892 58.5009C59.5965 58.5137 58.3619 59.0395 57.4568 59.9625C56.322 61.1211 54.9673 62.0415 53.4723 62.6699C51.9772 63.2983 50.3718 63.6219 48.75 63.6219C47.1282 63.6219 45.5228 63.2983 44.0277 62.6699C42.5327 62.0415 41.178 61.1211 40.0432 59.9625C39.1336 59.0608 37.9056 58.5533 36.6247 58.5497C35.3438 58.5462 34.113 59.0469 33.1984 59.9436C32.2838 60.8403 31.7588 62.061 31.737 63.3416C31.7151 64.6223 32.1982 65.8602 33.0818 66.7875C35.1243 68.8717 37.5621 70.5275 40.2525 71.6579C42.9429 72.7883 45.8318 73.3705 48.75 73.3705C51.6682 73.3705 54.5571 72.7883 57.2475 71.6579C59.9379 70.5275 62.3757 68.8717 64.4183 66.7875C65.3232 65.8643 65.8244 64.6194 65.8116 63.3267C65.7988 62.034 65.273 60.7994 64.35 59.8943ZM34.1738 34.125L33.5546 34.1591C32.3208 34.3059 31.1895 34.9182 30.392 35.8711C29.5945 36.8239 29.191 38.0453 29.2638 39.2857C29.3366 40.5261 29.8803 41.6919 30.7838 42.5449C31.6873 43.3978 32.8825 43.8736 34.125 43.875L34.7441 43.8409C35.978 43.6941 37.1092 43.0818 37.9067 42.1289C38.7042 41.1761 39.1078 39.9547 39.035 38.7143C38.9621 37.4739 38.4184 36.3081 37.5149 35.4551C36.6114 34.6022 35.4163 34.1264 34.1738 34.125ZM63.4238 34.125L62.8046 34.1591C61.5708 34.3059 60.4395 34.9182 59.642 35.8711C58.8445 36.8239 58.441 38.0453 58.5138 39.2857C58.5866 40.5261 59.1303 41.6919 60.0338 42.5449C60.9373 43.3978 62.1325 43.8736 63.375 43.875L63.9941 43.8409C65.228 43.6941 66.3592 43.0818 67.1567 42.1289C67.9542 41.1761 68.3578 39.9547 68.285 38.7143C68.2121 37.4739 67.6684 36.3081 66.7649 35.4551C65.8614 34.6022 64.6663 34.1264 63.4238 34.125Z" fill="url(#paint0_linear_155_960)"/>
<defs>
<linearGradient id="paint0_linear_155_960" x1="48.7494" y1="0" x2="48.7494" y2="97.5005" gradientUnits="userSpaceOnUse">
<stop stop-color="#47B2CE"/>
<stop offset="1" stop-color="#1992B1"/>
</linearGradient>
</defs>
</svg>
