<svg width="96" height="96" viewBox="0 0 96 96" fill="none" xmlns="http://www.w3.org/2000/svg">
<path d="M67.4688 85.3571C63.0767 85.3571 59.5313 80.9121 59.5313 75.4088C59.5313 69.9584 63.0767 65.5134 67.4688 65.5134C71.8609 65.5134 75.4063 69.9584 75.4063 75.4088C75.4063 80.9121 71.8609 85.3571 67.4688 85.3571ZM47.6251 43.6588C41.0634 43.6588 35.7188 39.2138 35.7188 33.7634C35.7188 28.26 41.0634 23.815 47.6251 23.815C54.1867 23.815 59.5313 28.26 59.5313 33.7634C59.5313 39.2138 54.1867 43.6588 47.6251 43.6588ZM27.7813 85.3571C23.3892 85.3571 19.8438 80.9121 19.8438 75.4088C19.8438 69.9584 23.3892 65.5134 27.7813 65.5134C32.1734 65.5134 35.7188 69.9584 35.7188 75.4088C35.7188 80.9121 32.1734 85.3571 27.7813 85.3571ZM47.6251 27.7838C49.7947 27.7838 51.5938 29.583 51.5938 31.7525C51.5938 33.9221 49.7947 35.7213 47.6251 35.7213C45.4555 35.7213 43.6563 33.9221 43.6563 31.7525C43.6563 29.583 45.4555 27.7838 47.6251 27.7838ZM83.3438 47.6275C81.6505 47.6275 80.0101 47.998 78.5284 48.6859C75.9884 45.458 72.5488 42.7063 68.4213 40.5896C71.4376 36.3563 73.2367 31.2234 73.2367 25.6671V25.3496C79.0047 24.1325 83.3438 18.9996 83.3438 12.8084C83.3438 5.77046 77.5759 0.00254219 70.538 0.00254219C66.8867 0.00254219 63.5001 1.53713 61.2776 3.97129C57.1964 1.37752 52.4608 0 47.6251 0C42.7894 0 38.0538 1.37752 33.9726 3.97129C31.7501 1.53713 28.3634 0.00254219 24.7122 0.00254219C17.6742 0.00254219 11.9063 5.77046 11.9063 12.8084C11.9063 18.9467 16.2455 24.0796 21.9605 25.3496V25.6671C21.9605 31.2234 23.8126 36.4092 26.7759 40.5896C22.7013 42.7063 19.2617 45.458 16.7217 48.6859C14.9134 47.8713 12.9295 47.5234 10.9519 47.6743C8.97431 47.8251 7.06615 48.4698 5.40226 49.5492C3.73836 50.6286 2.37192 52.1083 1.42811 53.8527C0.484298 55.5971 -0.00670812 57.5504 6.92194e-05 59.5338C6.92194e-05 66.1484 5.29174 71.44 11.9063 71.44H12.2238C12.0122 72.71 11.9063 74.0859 11.9063 75.4088C11.9063 86.3625 18.9972 95.2525 27.7813 95.2525C33.1259 95.2525 37.8355 91.9188 40.7459 86.8388C42.9684 87.1563 45.2438 87.315 47.6251 87.315C50.0063 87.315 52.2817 87.1563 54.5042 86.8388C57.4147 91.9188 62.1242 95.2525 67.4688 95.2525C76.253 95.2525 83.3438 86.3625 83.3438 75.4088C83.3438 74.0859 83.238 72.71 83.0263 71.44H83.3438C89.9584 71.44 95.2501 66.1484 95.2501 59.5338C95.2501 52.9192 89.9584 47.6275 83.3438 47.6275Z" fill="url(#paint0_linear_155_1150)"/>
<defs>
<linearGradient id="paint0_linear_155_1150" x1="47.625" y1="0" x2="47.625" y2="95.2525" gradientUnits="userSpaceOnUse">
<stop stop-color="#47B2CE"/>
<stop offset="1" stop-color="#1992B1"/>
</linearGradient>
</defs>
</svg>
